<svg width="255" height="255" viewBox="0 0 255 255" fill="none" xmlns="http://www.w3.org/2000/svg">
<path d="M79.815 7.65002C70.635 8.87402 62.271 14.994 58.242 23.307C57.273 25.347 56.457 27.03 56.406 27.03C56.355 27.03 55.182 26.673 53.856 26.214C50.133 24.939 43.401 25.398 39.882 27.234C26.469 34.119 26.367 49.674 39.678 56.202L43.095 57.885L67.167 58.038L91.29 58.191V59.925V61.71H86.445H81.6V63.903C81.6 66.759 82.824 71.298 84.354 74.358C86.547 78.642 90.525 81.957 94.707 82.824C96.543 83.232 102.816 89.862 105.468 94.197C105.774 94.707 106.641 94.605 109.14 93.891C111.843 93.126 112.404 92.769 112.302 92.004C112.2 91.443 112.149 89.658 112.149 87.975C112.2 86.139 111.894 84.15 111.333 82.977L110.517 81.039L112.047 79.662C116.025 76.194 118.83 69.87 118.83 64.464V61.71H115.77H112.71V59.976C112.71 58.293 112.761 58.242 115.311 57.936C125.307 56.61 130.713 49.827 128.316 41.667C126.684 36.057 120.87 32.13 114.291 32.13H111.282L110.67 28.662C108.834 17.952 100.98 10.2 89.658 7.90501C85.425 7.08901 84.507 7.03802 79.815 7.65002ZM91.545 8.92501C98.022 10.659 103.938 14.994 106.998 20.4C108.477 23.001 109.752 27.03 110.415 31.263C110.721 33.15 110.721 33.15 112.659 32.844C113.73 32.691 115.872 32.793 117.402 33.099C123.726 34.425 128.01 39.219 128.01 45.033C128.01 49.98 125.868 53.346 121.278 55.437C119.187 56.457 118.269 56.661 114.138 57.375C112.251 57.681 112.2 57.732 112.2 59.925V62.22H110.16H108.12V59.976V57.681L102 57.528L95.88 57.375V59.772V62.22H94.095H92.31L92.208 56.457C92.157 52.479 92.055 51.765 91.953 54.213L91.749 57.681L67.677 57.528L43.605 57.375L40.698 55.998C31.977 51.918 28.305 43.605 31.875 36.057C35.904 27.489 46.869 23.766 56.202 27.795C56.865 28.05 57.171 27.897 57.375 27.234C57.528 26.673 58.497 24.633 59.466 22.593C62.577 16.218 69.36 11.016 77.01 8.97601C80.733 8.00701 87.822 7.95602 91.545 8.92501ZM107.61 59.925V61.71H102H96.39V59.925V58.14H102H107.61V59.925ZM118.116 65.892C117.657 69.717 116.433 73.032 114.342 76.143C112.557 78.693 110.007 80.784 109.395 80.172C109.191 79.968 109.65 81.09 110.415 82.62C111.639 85.017 111.741 85.68 111.384 87.669C110.925 89.811 110.772 89.964 107.916 91.239C105.621 92.208 104.805 92.361 104.652 91.851C104.55 91.494 102.867 89.403 100.929 87.21C98.991 85.017 97.41 83.079 97.41 82.875C97.41 82.722 98.736 82.671 100.368 82.824L103.275 83.13L100.521 82.365C97.104 81.396 94.911 80.07 92.871 77.724C89.964 74.409 87.72 68.799 87.72 64.617V62.73H103.071H118.473L118.116 65.892Z" fill="#151515"/>
<path d="M93.381 48.246C92.769 49.011 92.31 49.878 92.31 50.184C92.31 50.49 92.616 50.286 92.922 49.725C93.228 49.164 93.84 48.297 94.248 47.787C94.656 47.328 94.86 46.92 94.707 46.92C94.554 46.92 93.942 47.532 93.381 48.246Z" fill="#151515"/>
<path d="M98.838 49.827C99.45 49.929 100.47 49.929 101.133 49.827C101.745 49.725 101.235 49.623 99.96 49.623C98.685 49.623 98.175 49.725 98.838 49.827Z" fill="#151515"/>
<path d="M101.49 66.249C100.776 67.626 100.827 68.595 101.694 69.309C102.306 69.819 102.306 70.278 101.694 72.573C101.286 74.052 100.98 75.378 100.98 75.582C100.98 75.837 102.153 75.99 103.53 75.99C106.335 75.99 106.335 75.99 105.468 72.573C105.06 70.788 105.06 70.023 105.468 69.309C106.233 68.085 106.233 66.657 105.468 65.892C104.499 64.923 102.102 65.127 101.49 66.249Z" fill="#151515"/>
<path d="M105.876 82.059C104.907 82.416 104.907 82.467 105.978 82.722C106.743 82.926 107.1 82.824 107.1 82.314C107.1 81.906 107.049 81.6 106.998 81.651C106.896 81.651 106.386 81.855 105.876 82.059Z" fill="#151515"/>
<path d="M180.489 20.553C168.3 27.642 157.641 33.813 156.876 34.323L155.448 35.292L155.754 41.718C156.978 65.127 160.752 81.855 168.351 97.053C176.001 112.251 186.507 123.573 199.206 130.101L203.031 132.09L205.428 130.866C211.65 127.704 220.167 120.462 226.134 113.322C237.66 99.45 245.055 82.365 248.676 61.404C249.798 54.723 250.053 51.663 250.104 43.911L250.155 34.578L226.95 21.114C214.2 13.719 203.541 7.70101 203.235 7.70101C202.98 7.70101 192.729 13.464 180.489 20.553ZM227.154 22.185L249.9 35.292V40.188C249.9 49.827 247.911 63.699 245.055 74.307C240.822 90.219 232.152 106.029 221.799 116.994C217.464 121.584 209.61 127.857 205.428 130.05L203.031 131.274L200.583 130.101C191.811 125.868 181.305 116.331 174.981 106.896C163.659 89.913 157.131 66.912 156.876 43.452L156.825 35.139L179.775 21.879C192.423 14.586 203.082 8.72102 203.592 8.87402C204.051 8.97601 214.659 14.943 227.154 22.185Z" fill="#151515"/>
<path d="M214.2 36.363C214.2 36.465 214.965 37.179 215.883 38.046L217.515 39.525L216.036 37.842C214.608 36.312 214.2 35.955 214.2 36.363Z" fill="#151515"/>
<path d="M200.583 40.647C202.164 40.749 204.816 40.749 206.448 40.647C208.029 40.545 206.703 40.494 203.49 40.494C200.277 40.494 198.951 40.545 200.583 40.647Z" fill="#151515"/>
<path d="M195.075 41.82C193.749 43.248 194.31 43.401 195.687 41.973C196.299 41.31 196.656 40.8 196.401 40.8C196.197 40.8 195.585 41.259 195.075 41.82Z" fill="#151515"/>
<path d="M187.782 51.357L187.68 59.619L183.498 59.823C181.152 59.874 190.026 60.027 203.184 60.078C216.342 60.129 227.001 60.078 226.848 59.925C226.695 59.772 219.351 59.67 210.477 59.67H194.361L194.157 51.612L194.004 43.605L193.902 51.612L193.8 59.67H190.995H188.19L188.037 51.357L187.884 43.095L187.782 51.357Z" fill="#151515"/>
<path d="M164.373 50.235C164.373 51.612 164.475 52.173 164.577 51.357C164.679 50.592 164.679 49.47 164.577 48.807C164.475 48.195 164.373 48.807 164.373 50.235Z" fill="#151515"/>
<path d="M164.832 56.61C164.832 57.579 164.934 57.987 165.087 57.477C165.189 57.018 165.189 56.202 165.087 55.692C164.934 55.233 164.832 55.641 164.832 56.61Z" fill="#151515"/>
<path d="M226.542 64.77C226.542 65.739 226.644 66.147 226.797 65.637C226.899 65.178 226.899 64.362 226.797 63.852C226.644 63.393 226.542 63.801 226.542 64.77Z" fill="#151515"/>
<path d="M200.379 65.229C199.104 66.555 198.849 67.116 199.155 68.238C199.308 69.003 199.869 70.023 200.277 70.482C200.991 71.298 200.991 71.757 199.971 75.684C199.41 78.081 198.9 80.274 198.9 80.58C198.9 80.886 200.583 81.09 203.184 81.09H207.468L206.346 76.296C205.224 71.706 205.224 71.502 206.142 70.38C208.08 67.983 206.754 64.566 203.643 63.954C202.266 63.699 201.756 63.903 200.379 65.229Z" fill="white"/>
<path d="M188.19 84.252C190.281 86.547 190.74 86.955 190.74 86.547C190.74 86.445 189.669 85.374 188.343 84.15L185.895 81.855L188.19 84.252Z" fill="#151515"/>
<path d="M217.77 84.405C216.546 85.68 215.628 86.7 215.781 86.7C215.934 86.7 217.056 85.68 218.28 84.405C219.504 83.13 220.422 82.11 220.269 82.11C220.116 82.11 218.994 83.13 217.77 84.405Z" fill="#151515"/>
<path d="M211.65 88.74C210.681 89.301 210.069 89.709 210.273 89.76C210.834 89.76 213.69 88.281 213.69 87.975C213.69 87.618 213.639 87.618 211.65 88.74Z" fill="#151515"/>
<path d="M173.4 89.964C173.4 90.525 174.93 93.33 175.236 93.33C175.338 93.33 175.083 92.565 174.624 91.647C173.655 89.811 173.4 89.403 173.4 89.964Z" fill="#151515"/>
<path d="M202.368 91.137C202.98 91.239 203.898 91.239 204.408 91.137C204.867 90.984 204.357 90.882 203.235 90.933C202.113 90.933 201.705 91.035 202.368 91.137Z" fill="#151515"/>
<path d="M149.561 92.0666C147.929 93.9026 147.47 99.4106 148.694 101.502C149.408 102.726 149.969 103.083 151.193 103.083C152.06 103.083 153.029 102.828 153.386 102.471C153.743 102.114 154.814 101.91 155.783 101.961C156.752 102.063 157.568 101.859 157.568 101.604C157.568 101.298 158.027 100.635 158.639 100.074C159.506 99.2576 159.659 98.7476 159.353 96.7076C159.149 95.3816 158.639 94.2086 158.282 94.0556C157.874 93.9026 157.568 93.4436 157.568 93.0866C157.568 92.2196 156.14 91.6076 152.978 91.1486C150.887 90.8426 150.53 90.9446 149.561 92.0666ZM154.049 96.2486C154.865 97.2686 154.814 101.043 153.947 101.604C151.55 103.185 147.98 100.482 148.592 97.5746C149.153 95.2286 152.519 94.3616 154.049 96.2486Z" fill="#151515"/>
<path d="M118.881 99.45C118.83 100.623 121.584 107.967 121.737 107.1C121.839 106.692 121.227 104.601 120.411 102.51C119.544 100.419 118.881 99.042 118.881 99.45Z" fill="#151515"/>
<path fill-rule="evenodd" clip-rule="evenodd" d="M179.061 122.349C166.668 109.956 164.934 108.681 157.335 106.284C155.295 105.621 154.326 105.111 155.04 105.111C156.927 105.06 162.843 107.304 165.903 109.191C168.861 111.027 190.383 132.039 191.556 134.232C192.474 136.017 192.474 139.383 191.505 141.27C189.975 144.177 189.159 144.33 173.349 144.33C159.885 144.33 159.018 144.381 159.375 145.197C159.526 145.7 161.263 150.465 163.217 155.828L163.302 156.06C165.24 161.517 167.127 166.26 167.433 166.566C167.994 167.076 183.294 174.267 199.155 181.407C206.765 184.857 206.754 184.875 205.7 186.682L205.683 186.711C204.918 188.037 204.867 188.7 205.479 194.157C205.887 197.472 206.193 200.634 206.193 201.195L205.683 201.501C205.887 200.736 205.428 200.328 203.388 199.461C200.328 198.186 199.92 198.135 199.92 199.155C199.92 199.614 199.614 200.073 199.206 200.226C198.798 200.379 189.21 196.197 177.888 190.944C157.845 181.611 157.233 181.305 154.275 178.296C151.419 175.389 150.909 174.522 147.594 166.515C144.381 158.814 142.749 154.275 143.463 155.04C143.616 155.193 145.248 158.967 147.135 163.455C149.022 167.943 151.113 172.686 151.776 173.961C154.122 178.704 156.315 180.03 178.296 190.332L198.645 199.818L201.807 193.239C203.541 189.618 205.02 186.303 205.122 185.844C205.224 185.283 200.43 182.835 185.895 176.154L166.515 167.229L162.996 157.437C161.058 152.031 159.273 147.339 158.967 146.982C158.712 146.676 157.692 146.37 156.774 146.37C155.397 146.37 155.04 146.166 155.04 145.35C155.04 144.789 154.836 144.33 154.53 144.33C154.275 144.33 154.02 144.024 154.02 143.616C154.02 143.004 153.612 143.055 151.623 143.82C149.991 144.432 148.614 145.503 146.982 147.441C143.31 151.878 137.904 154.683 138.312 151.929C138.465 150.858 137.904 150.297 136.068 149.736C133.977 149.124 135.405 147.492 138.516 146.931C141.627 146.319 141.933 146.574 139.536 147.696C137.649 148.614 137.139 149.736 138.465 150.246C139.587 150.705 143.973 147.696 146.574 144.636C148.104 142.851 149.685 141.576 151.368 140.913L153.918 139.842L154.224 141.831L154.53 143.82H170.901C185.13 143.82 187.476 143.718 188.7 143.004C191.403 141.372 192.576 137.649 191.148 134.997C190.842 134.385 185.385 128.673 179.061 122.349ZM221.315 191.527L220.055 192.158C219.518 191.657 218.445 191.233 216.172 190.335L216.036 190.281C212.568 188.904 211.497 188.649 211.191 189.159C210.936 189.516 210.63 189.618 210.477 189.363C210.324 189.108 210.375 188.598 210.63 188.19C210.936 187.68 212.619 188.139 218.892 190.587C219.777 190.936 220.583 191.249 221.315 191.527Z" fill="#151515"/>
<path d="M207.57 204.408C206.04 203.031 205.479 202.215 205.683 201.501L206.193 201.195C206.244 201.756 207.009 202.878 207.978 203.694C210.477 205.887 210.681 206.55 209.916 209.559C209.457 211.395 209.406 212.211 209.814 212.415C210.12 212.517 209.916 212.568 209.304 212.415C207.876 212.058 204.561 215.271 204.408 217.158C204.306 219.351 204.561 221.034 205.02 221.544C205.632 222.156 215.475 217.974 217.413 216.24C218.382 215.373 219.708 212.772 221.595 208.08C224.247 201.399 224.298 201.144 223.38 200.175C221.952 198.594 220.881 196.146 220.677 194.004C220.583 193.088 220.522 192.594 220.055 192.158L221.315 191.527C225.18 192.995 226.972 193.488 227.358 193.188C227.766 192.78 228.684 192.933 230.265 193.545C231.54 194.004 232.56 194.463 232.56 194.514C232.56 194.565 231.693 196.809 230.622 199.461C228.939 203.541 228.48 204.255 227.511 204.255C226.542 204.255 226.083 204.867 224.859 207.825C223.227 211.956 223.074 212.67 224.145 212.67C225.165 212.67 225.114 213.231 223.686 216.342C222.36 219.351 220.983 220.983 218.892 222.054C216.954 223.074 205.377 227.46 204.714 227.46C204.153 227.46 202.47 223.992 202.47 222.87C202.47 222.564 202.827 222.36 203.235 222.36C203.847 222.36 203.898 221.901 203.694 220.116C203.235 216.852 204.153 214.608 206.805 212.721C208.743 211.344 209.1 210.783 209.406 208.743C209.763 206.397 209.712 206.295 207.57 204.408Z" fill="#F9C825"/>
<path d="M146.37 109.854C146.37 110.823 145.707 113.067 144.84 114.852C144.024 116.637 143.055 119.493 142.749 121.125C142.086 124.695 142.494 130.05 143.616 132.141C144.483 133.875 144.84 134.028 144.483 132.6C144.279 131.733 144.483 131.58 145.656 131.58C148.053 131.58 153.102 132.957 153.561 133.671C153.918 134.232 154.02 134.232 154.02 133.569C154.02 132.447 156.825 132.09 166.209 132.039C170.799 131.988 172.941 131.835 171.768 131.631C170.544 131.376 168.708 130.254 166.668 128.469C162.333 124.746 161.67 124.236 161.67 124.746C161.67 125.001 163.2 126.48 165.036 128.01C168.606 130.917 168.606 131.478 165.036 131.529C163.812 131.58 163.71 131.478 164.22 130.815C165.138 129.693 164.475 129.132 161.466 128.52C159.171 128.061 158.253 128.112 156.213 128.775C152.847 129.846 150.195 129.03 148.716 126.48C147.798 124.95 147.645 123.828 147.645 118.32V111.996L149.328 110.823L151.062 109.701L149.175 108.885C146.574 107.814 146.37 107.865 146.37 109.854Z" fill="#151515"/>
<path d="M41.82 135.66V138.72H71.4H100.98V135.66V132.6H71.4H41.82V135.66Z" fill="#151515"/>
<path d="M129.591 140.097C128.622 143.973 127.755 147.492 127.653 147.951C127.449 148.716 127.704 148.716 131.223 148.002C134.436 147.339 134.946 147.084 134.742 146.268C134.64 145.707 134.793 145.299 135.201 145.299C135.609 145.248 135.099 145.095 134.13 144.891C132.039 144.534 131.733 143.259 133.62 142.749C134.793 142.392 134.793 142.392 133.263 142.341C129.795 142.239 130.866 140.352 134.691 139.893C136.221 139.74 138.363 139.128 139.485 138.567C142.29 137.19 146.625 134.13 145.809 134.13C145.452 134.13 144.789 134.436 144.381 134.844C143.667 135.456 142.8 135.405 137.955 134.334C134.895 133.671 132.09 133.11 131.835 133.11C131.529 133.11 130.509 136.272 129.591 140.097Z" fill="#151515"/>
<path d="M75.99 161.415V164.22H88.485H100.98V161.415V158.61H88.485H75.99V161.415Z" fill="#151515"/>
<path d="M12.903 167.025C12.903 168.402 13.005 168.963 13.107 168.147C13.209 167.382 13.209 166.26 13.107 165.597C13.005 164.985 12.903 165.597 12.903 167.025Z" fill="#151515"/>
<path d="M56.763 167.025C56.763 168.402 56.865 168.963 56.967 168.147C57.069 167.382 57.069 166.26 56.967 165.597C56.865 164.985 56.763 165.597 56.763 167.025Z" fill="#151515"/>
<path d="M79.203 172.227C81.09 172.329 84.099 172.329 85.833 172.227C87.567 172.125 86.037 172.074 82.365 172.074C78.744 172.074 77.316 172.125 79.203 172.227Z" fill="#151515"/>
<path d="M10.2 180.03V183.09H39.525H68.85V180.03V176.97H39.525H10.2V180.03Z" fill="#151515"/>
<path d="M75.99 187.17V190.23H88.485H100.98V187.17V184.11H88.485H75.99V187.17Z" fill="#151515"/>
<path d="M12.903 193.035C12.903 194.412 13.005 194.973 13.107 194.157C13.209 193.392 13.209 192.27 13.107 191.607C13.005 190.995 12.903 191.607 12.903 193.035Z" fill="#151515"/>
<path d="M56.763 193.035C56.763 194.412 56.865 194.973 56.967 194.157C57.069 193.392 57.069 192.27 56.967 191.607C56.865 190.995 56.763 191.607 56.763 193.035Z" fill="#151515"/>
<path d="M10.2 205.785V208.59H39.525H68.85V205.785V202.98H39.525H10.2V205.785Z" fill="#151515"/>
<path d="M12.75 218.79V221.34H34.935H57.12V218.79V216.24H34.935H12.75V218.79ZM56.61 218.79V220.83H34.935H13.26V218.79V216.75H34.935H56.61V218.79Z" fill="#151515"/>
<path d="M133.875 222.717C133.059 222.819 131.376 223.023 130.203 223.176L128.01 223.431V225.726C128.01 227.205 128.214 227.97 128.673 227.919C128.979 227.919 131.682 226.695 134.64 225.165L139.995 222.411L137.7 222.462C136.425 222.513 134.742 222.615 133.875 222.717Z" fill="#151515"/>
<path d="M10.2 231.795V234.6H39.78H69.36V231.795V228.99H39.78H10.2V231.795Z" fill="#151515"/>
<path d="M143.208 239.139C142.035 240.057 140.148 243.27 139.536 245.412C139.383 245.922 138.771 246.33 138.108 246.33C137.445 246.33 131.325 246.942 124.44 247.605C108.222 249.237 108.783 249.237 108.528 247.35C108.222 245.208 109.344 242.862 110.874 242.454C111.588 242.301 112.2 241.944 112.2 241.689C112.2 241.026 111.792 241.128 110.109 242.097C108.324 243.168 107.406 245.31 107.814 247.35C108.069 248.625 107.916 248.88 107.1 248.88C106.233 248.88 106.08 249.237 106.08 251.277C106.08 255.408 105.825 255.306 115.872 254.286C129.897 252.909 129.642 252.96 129.387 251.94C129.183 251.226 129.591 250.971 131.478 250.716C135.507 250.155 137.19 250.308 137.19 251.226C137.19 251.94 137.802 252.042 142.188 251.736C149.073 251.226 148.92 251.277 148.92 248.472C148.92 245.667 148.359 244.545 147.135 244.953C146.625 245.157 146.421 245.106 146.625 244.749C146.829 244.494 146.676 243.933 146.37 243.525C146.013 243.117 145.86 242.454 146.013 241.995C146.217 241.587 146.115 241.128 145.86 240.975C145.554 240.771 145.35 240.108 145.35 239.394C145.35 237.915 144.891 237.864 143.208 239.139Z" fill="#F9C825"/>
<path d="M12.852 244.647L12.903 247.095L13.107 244.902L13.311 242.76H34.935H56.559L56.763 244.902L56.967 247.095L57.018 244.647L57.12 242.25H34.935H12.75L12.852 244.647Z" fill="#151515"/>
<path d="M194.004 36.159C192.831 36.669 191.25 37.995 190.434 39.066L188.955 40.953L188.802 50.082L188.649 59.16H191.199H193.8V51C193.8 42.993 193.851 42.789 195.075 41.565C196.248 40.341 196.554 40.29 203.337 40.29C213.18 40.341 213.18 40.341 213.18 51.459V59.16H215.73H218.28V51.102C218.28 42.279 217.77 40.341 214.914 37.638C212.619 35.496 211.089 35.19 203.337 35.19C197.37 35.19 195.738 35.394 194.004 36.159Z" fill="#F9C825"/>
<path d="M95.319 47.583C92.973 49.164 92.259 51.612 92.412 57.324L92.565 61.965L93.993 62.118L95.37 62.271V56.916C95.37 50.439 95.931 49.47 99.705 49.47C101.898 49.47 102 49.419 102 47.94C102 46.461 101.949 46.41 99.501 46.41C97.818 46.41 96.543 46.767 95.319 47.583Z" fill="#ECC115"/>
<path d="M108.63 60.18C108.63 62.118 108.732 62.22 110.16 62.22C111.588 62.22 111.69 62.118 111.69 60.18C111.69 58.242 111.588 58.14 110.16 58.14C108.732 58.14 108.63 58.242 108.63 60.18Z" fill="#ECC115"/>
<path d="M180.03 62.475C180.03 65.79 181.407 72.063 182.835 75.276C185.385 81.09 189.618 85.782 194.565 88.383C197.421 89.913 197.931 90.015 202.98 90.015C208.029 90.015 208.539 89.913 211.752 88.332C219.81 84.354 225.318 75.174 226.287 63.852L226.593 60.18H203.286H180.03V62.475ZM206.958 66.147C207.774 67.83 207.723 67.983 206.652 70.023L205.53 72.165L206.55 75.99C207.111 78.081 207.57 80.121 207.57 80.427C207.57 80.937 206.295 81.09 202.929 81.09C199.41 81.09 198.339 80.937 198.543 80.427C198.645 80.121 199.206 78.03 199.716 75.837C200.583 72.114 200.583 71.808 199.767 70.431C198.543 68.34 198.645 66.198 200.073 64.923C202.419 62.73 205.581 63.291 206.958 66.147Z" fill="#F9C825"/>
<path d="M87.975 64.107C88.077 64.923 88.332 66.555 88.485 67.83C89.097 72.981 93.33 78.999 97.665 81.039C99.195 81.753 100.98 82.11 103.071 82.11H106.233L105.876 80.019C105.264 76.347 107.916 75.021 109.191 78.336L109.905 80.172L111.333 79.05C114.648 76.398 117.81 69.615 117.81 65.025V62.73H102.765H87.771L87.975 64.107ZM105.57 65.79C106.743 66.963 106.845 67.779 105.876 69.105C105.315 69.921 105.315 70.431 105.876 72.624C106.947 76.551 106.947 76.5 103.53 76.5C101.847 76.5 100.47 76.347 100.47 76.092C100.47 75.888 100.827 74.511 101.184 73.032C101.796 70.788 101.796 70.125 101.235 69.003C99.654 65.943 103.122 63.342 105.57 65.79Z" fill="#ECC115"/>
<path d="M113.322 89.301C112.404 89.658 112.2 90.015 112.455 90.882C112.659 91.545 112.863 92.259 112.914 92.514C112.965 92.973 107.508 94.86 106.029 94.86C105.57 94.86 105.06 94.401 104.907 93.84C104.652 92.871 103.53 92.361 103.53 93.177C103.53 94.299 112.302 116.076 113.067 116.943C115.005 119.085 116.994 119.442 124.491 119.085L131.478 118.728L130.815 122.196C130.407 124.134 129.795 127.245 129.387 129.132C128.724 132.294 128.724 132.6 129.489 132.651C131.07 132.702 133.059 133.059 138.465 134.13C141.474 134.742 144.024 135.099 144.177 134.946C144.33 134.793 143.973 133.671 143.361 132.447C141.168 127.959 141.984 119.34 145.146 113.118C145.809 111.792 146.37 110.007 146.37 109.14C146.37 107.763 146.523 107.61 147.39 107.865C148.155 108.12 148.41 107.967 148.41 107.253C148.41 106.743 148.563 105.825 148.716 105.162C149.022 104.091 148.869 104.04 146.319 104.04C144.279 104.04 130.917 105.468 122.043 106.59C121.992 106.59 122.145 107.151 122.4 107.865C122.655 108.528 122.655 109.242 122.451 109.344C121.992 109.65 118.32 100.419 118.32 98.94C118.32 98.073 115.209 89.505 114.699 89.046C114.597 88.944 113.985 89.046 113.322 89.301Z" fill="#F9C825"/>
<path d="M153.51 106.08C153.51 106.284 152.439 106.896 151.113 107.406L148.665 108.324L150.093 108.834C151.878 109.497 151.827 109.803 149.736 110.925C148.053 111.843 147.951 112.047 147.645 115.464C147.288 119.595 148.002 125.001 149.175 126.786C150.399 128.673 153.459 129.336 156.417 128.367C157.794 127.908 159.426 127.653 160.038 127.857C161.16 128.112 161.466 127.398 161.262 124.797C161.211 124.338 161.313 123.93 161.466 123.93C161.67 123.93 163.71 125.511 166.005 127.5L170.187 131.07H174.879C177.429 131.07 179.52 131.274 179.52 131.478C179.52 131.937 166.515 132.6 158.508 132.6H154.53V138.21V143.82H169.779C178.143 143.82 185.742 143.667 186.609 143.514C187.527 143.31 188.904 142.494 189.771 141.678C191.046 140.403 191.25 139.791 191.25 137.547V134.895L179.163 122.859C168.045 111.843 166.719 110.619 163.2 108.987C159.222 107.1 153.51 105.366 153.51 106.08Z" fill="#F9C825"/>
<path d="M210.681 190.893C210.171 192.066 208.998 195.075 208.08 197.523L206.397 202.062L208.59 203.949C210.579 205.632 210.732 205.989 210.528 207.723L210.324 209.61H213.282C217.26 209.61 217.056 210.528 213.078 210.732C211.344 210.834 209.865 211.14 209.763 211.446C209.661 211.752 211.089 212.415 213.027 212.976C214.914 213.537 216.24 214.098 215.985 214.302C215.679 214.455 214.098 214.2 212.415 213.639C210.783 213.129 209.304 212.772 209.202 212.874C208.947 213.18 214.914 217.26 215.628 217.26C217.056 217.26 218.841 214.353 221.289 208.029L223.839 201.45L222.309 199.257C221.391 197.931 220.626 196.044 220.422 194.616L220.065 192.168L215.832 190.485L211.599 188.751L210.681 190.893Z" fill="#F9C825"/>
<path d="M139.74 227.511C138.21 227.715 134.742 228.072 131.988 228.276L127.092 228.582L126.48 230.928C125.919 233.223 123.012 236.691 119.901 238.833L118.677 239.649L121.074 242.352C122.349 243.831 123.42 245.208 123.42 245.412C123.42 246.33 122.553 245.616 120.666 243.27C119.544 241.842 118.422 240.72 118.167 240.72C117.708 240.72 117.912 247.146 118.422 247.605C118.626 247.86 138.822 245.973 138.924 245.718C139.944 243.015 142.239 239.496 143.616 238.578C145.503 237.303 145.452 237.813 144.177 230.571C143.82 228.786 143.361 227.256 143.055 227.205C142.8 227.154 141.27 227.256 139.74 227.511ZM123.981 239.241C125.154 239.802 125.919 240.414 125.766 240.567C125.409 240.924 120.87 239.037 120.87 238.527C120.87 237.915 121.839 238.119 123.981 239.241Z" fill="#F9C825"/>
<path d="M203.49 26.724V34.17H206.754C211.803 34.17 213.129 34.629 215.781 37.179C218.892 40.239 219.3 41.82 219.3 51.357V59.109L223.278 59.262L227.205 59.415L227.103 63.75C226.797 77.214 217.107 90.015 206.346 91.137L203.49 91.443V105.927C203.49 119.034 203.592 120.462 204.306 120.156C206.601 119.289 213.435 113.985 217.515 109.905C223.482 103.887 227.817 97.716 231.795 89.505C238.068 76.551 241.383 62.475 241.842 46.767L241.995 41.31L223.431 30.549C213.18 24.633 204.51 19.686 204.153 19.533C203.643 19.329 203.49 20.808 203.49 26.724Z" fill="#F9C825"/>
<path d="M203 49.925V58.85H207.335H211.67V50.945C211.67 41.255 211.517 41 206.315 41H203V49.925Z" fill="white"/>
<path d="M4.59003 166.923V176.97H40.035H75.48V167.28V157.59H63.852C57.426 157.59 41.463 157.437 28.407 157.233L4.59003 156.927V166.923ZM68.34 164.73C71.196 167.586 67.167 172.176 64.158 169.473C63.648 169.014 63.24 167.943 63.24 167.127C63.24 164.067 66.249 162.639 68.34 164.73ZM57.375 167.025V169.575L34.833 169.728L12.24 169.83V167.382C12.24 166.005 12.393 164.73 12.597 164.577C12.75 164.373 22.95 164.271 35.139 164.322L57.375 164.475V167.025Z" fill="#40EC96"/>
<path d="M13.26 167.025V168.81H34.68H56.1V167.025V165.24H34.68H13.26V167.025Z" fill="#40EC96"/>
<path d="M4.59003 192.984V202.98H40.035H75.48V193.29V183.6H44.268C27.081 183.6 11.118 183.447 8.82303 183.243L4.59003 182.937V192.984ZM68.34 190.842C70.278 192.933 69.054 196.35 66.3 196.35C64.362 196.35 63.24 195.126 63.24 193.035C63.24 190.026 66.351 188.7 68.34 190.842ZM57.375 193.035V195.585L34.833 195.738L12.24 195.84V193.392C12.24 192.015 12.393 190.74 12.597 190.587C12.75 190.383 22.95 190.281 35.139 190.332L57.375 190.485V193.035Z" fill="#40EC96"/>
<path d="M4.59003 218.79V228.735L40.188 228.633L75.735 228.582L75.837 219.453C75.939 214.455 75.837 210.12 75.582 209.763C75.327 209.304 66.249 209.151 39.882 208.998L4.59003 208.845V218.79ZM68.085 216.495C69.717 218.076 69.717 219.504 68.085 221.136C67.116 222.105 66.504 222.309 65.637 222.054C63.648 221.442 63.189 220.779 63.342 218.586C63.444 216.954 63.801 216.393 64.77 215.883C66.504 215.016 66.657 215.016 68.085 216.495ZM57.528 218.637L57.375 221.085L34.833 221.238L12.24 221.34V218.79V216.24H34.986H57.681L57.528 218.637Z" fill="#40EC96"/>
<path d="M13.26 218.535V220.32H34.68H56.1V218.535V216.75H34.68H13.26V218.535Z" fill="#40EC96"/>
<path d="M4.59003 244.953V255L40.188 254.898L75.735 254.745L75.888 244.8L75.99 234.855H40.29H4.59003V244.953ZM68.085 242.505C69.564 243.933 69.666 245.106 68.544 246.738C67.626 248.064 65.229 248.268 64.005 247.044C62.73 245.769 63.189 242.709 64.77 241.893C66.504 241.026 66.657 241.026 68.085 242.505ZM57.528 244.647L57.375 247.095L34.833 247.248L12.24 247.35V244.8V242.25H34.986H57.681L57.528 244.647Z" fill="#40EC96"/>
<path d="M13.26 244.545V246.33H34.68H56.1V244.545V242.76H34.68H13.26V244.545Z" fill="#40EC96"/>
<path d="M81.0352 8.17898C70.6822 9.45398 61.5022 16.39 58.5442 25.315C58.0852 26.692 57.6262 27.916 57.5752 27.967C57.5242 28.069 56.1472 27.61 54.4642 27.049C47.9872 24.754 39.8782 26.641 35.3902 31.486C28.0462 39.493 30.0862 49.54 40.2352 54.844L43.2952 56.425L67.6732 56.578L92.0002 56.731V53.263C92.0002 47.449 94.5502 44.746 99.8032 45.052L102.455 45.205V47.5V49.795L100.16 49.948C97.0492 50.203 96.5902 50.713 96.5902 53.977V56.782L107.198 56.578C115.817 56.425 118.112 56.221 119.795 55.507C125.456 53.008 127.955 49.693 127.904 44.695C127.853 37.708 122.855 33.271 114.644 32.812L110.564 32.608L109.901 28.936C109.187 24.703 106.994 19.654 104.444 16.543C99.5482 10.576 89.9602 7.15899 81.0352 8.17898ZM89.0932 16.084C92.2042 17.206 95.1112 19.501 96.7432 22.051C97.7632 23.734 98.4772 24.346 99.0892 24.193C100.058 23.938 100.058 24.397 99.3442 28.987L99.0892 30.619L96.5902 28.834C94.0402 26.998 93.5812 26.335 94.6012 25.978C95.4682 25.672 93.8872 22.918 91.8982 21.235C89.5012 19.195 87.3592 18.43 84.2482 18.43C79.5052 18.481 75.4762 21.082 73.5892 25.315C72.5692 27.61 72.1102 27.865 70.4782 27.202C68.7442 26.488 71.7532 20.929 75.4252 18.124C78.8422 15.574 84.9622 14.656 89.0932 16.084ZM72.7222 32.557C75.1192 34.291 75.2212 34.495 74.3542 35.107C73.4872 35.719 73.6402 35.974 76.0372 38.269C78.7912 40.921 81.0862 41.89 84.5032 41.89C88.6852 41.89 93.0712 38.983 94.9072 34.954C95.7742 32.965 96.4372 32.2 97.1512 32.2C98.6302 32.2 98.8852 33.475 97.9162 35.974C96.1822 40.513 90.9802 44.338 85.9822 44.797C80.5252 45.307 74.6092 42.604 72.0592 38.524C71.2432 37.147 70.7842 36.841 69.9172 37.096C68.9992 37.402 68.9482 37.249 69.2032 35.464C69.4072 34.342 69.5602 32.863 69.5602 32.047C69.5602 31.282 69.7132 30.67 69.8662 30.67C70.0702 30.67 71.3452 31.537 72.7222 32.557Z" fill="#40EC96"/>
<path d="M151.215 144.33C150.042 144.84 148.512 146.064 147.747 147.084C146.931 148.104 145.503 149.685 144.585 150.603L142.8 152.337L147.645 163.761C154.275 179.469 152.439 177.939 178.449 190.026C189.516 195.177 198.645 199.308 198.696 199.257C199.053 198.9 205.02 185.487 204.867 185.334C204.765 185.232 196.095 181.203 185.589 176.409C175.083 171.564 166.362 167.433 166.209 167.178C166.056 166.974 164.322 162.282 162.384 156.825L158.865 146.88H156.723C154.836 146.88 154.53 146.727 154.53 145.809C154.53 143.82 153.459 143.361 151.215 144.33Z" fill="#AC5CED"/>
<path d="M130.05 148.512C128.775 148.767 127.5 149.277 127.194 149.583C126.531 150.246 121.992 167.484 121.329 171.87C121.023 174.012 121.482 180.591 123.267 199.053L125.664 223.482L126.939 223.176C127.653 223.023 131.427 222.615 135.303 222.258L142.29 221.646V220.065C142.239 219.249 141.27 208.692 140.046 196.707L137.853 174.828L140.658 165.954C143.463 157.131 143.514 156.978 142.749 154.887C142.239 153.459 141.729 152.796 141.27 152.949C140.862 153.051 139.944 153.204 139.23 153.204C138.21 153.255 137.955 153 137.955 151.98C137.955 151.062 137.649 150.654 136.782 150.552C135.66 150.399 134.436 148.818 134.997 148.206C135.456 147.747 132.753 147.9 130.05 148.512Z" fill="#AC5CED"/>
<path d="M206.703 213.945C205.275 214.965 204.306 217.872 204.714 220.065L205.071 221.748L209.508 219.963C211.956 218.994 214.098 218.025 214.353 217.821C214.71 217.464 209.049 213.18 208.233 213.18C207.978 213.18 207.315 213.537 206.703 213.945Z" fill="#F9C825"/>
<path d="M112.965 242.046C110.058 242.913 108.63 244.29 108.63 246.279C108.63 248.574 109.089 248.727 113.373 248.319C115.617 248.115 117.504 247.809 117.657 247.707C117.759 247.554 117.708 246.075 117.504 244.341C117.147 240.822 117.096 240.822 112.965 242.046Z" fill="#F9C825"/>
<path d="M106.59 78.132C106.641 78.489 106.947 80.274 107.355 82.11C107.763 83.946 108.069 85.731 108.12 86.088C108.12 87.312 107.253 86.241 106.947 84.66C106.743 83.742 106.284 83.13 105.825 83.13C105.366 83.13 105.162 83.334 105.315 83.64C105.468 83.895 105.417 84.15 105.111 84.15C104.856 84.15 104.448 83.895 104.295 83.64C104.142 83.334 103.377 83.13 102.663 83.13C101.388 83.13 101.337 83.13 102.255 84.15C102.765 84.711 102.969 85.17 102.663 85.17C102.408 85.17 101.745 84.711 101.235 84.15C100.725 83.589 99.756 83.13 99.093 83.13C97.869 83.13 97.92 83.232 100.062 85.68C101.235 87.108 102.969 89.097 103.836 90.168L105.366 92.157L107.967 90.882C109.548 90.117 110.721 89.148 110.874 88.536C111.435 86.496 111.18 84.405 110.16 82.875C109.599 82.008 108.885 80.478 108.63 79.407C108.12 77.673 106.59 76.653 106.59 78.132Z" fill="#EC96EC"/>
<path d="M149.634 96.747C148.104 98.328 149.022 101.643 151.215 102.204C154.02 102.918 155.193 100.98 154.02 97.614C153.612 96.441 153.153 96.135 151.929 96.084C151.062 96.033 150.042 96.339 149.634 96.747ZM151.521 99.909C152.439 100.47 152.847 101.031 152.541 101.184C151.827 101.643 150.144 100.725 149.736 99.705C149.379 98.736 149.583 98.736 151.521 99.909Z" fill="white"/>
<path d="M153.255 103.377C152.643 103.785 151.623 104.04 150.705 103.887C149.481 103.683 149.124 103.836 149.124 104.448C149.124 104.958 148.971 105.927 148.767 106.692L148.41 108.069L150.756 107.202C152.592 106.539 153.306 105.927 153.867 104.601C154.734 102.561 154.632 102.357 153.255 103.377Z" fill="white"/>
<path d="M36.21 122.502V132.345H71.91H107.61V122.502V112.71H71.91H36.21V122.502ZM100.062 120.207C101.388 121.38 101.286 124.185 99.858 125.154C98.328 126.225 97.104 126.174 95.88 124.95C93.024 122.094 97.053 117.504 100.062 120.207ZM89.148 122.502L88.995 125.205L66.708 125.358L44.37 125.46V122.655V119.85H66.861H89.301L89.148 122.502Z" fill="#EC96EC"/>
<path d="M45.39 122.655V124.44H66.81H88.23V122.655V120.87H66.81H45.39V122.655Z" fill="#EC96EC"/>
<path d="M144.84 133.11C144.84 133.824 145.197 134.13 145.962 134.13C146.727 134.13 145.809 134.997 142.902 136.884C139.842 138.924 138.006 139.791 136.272 139.995C132.345 140.505 131.478 140.76 131.733 141.423C132.09 142.443 137.139 141.882 140.148 140.403C143.157 138.975 144.126 139.077 141.933 140.607C139.995 141.984 137.445 142.8 135.099 142.8C133.161 142.8 132.09 143.565 132.906 144.33C133.62 144.993 139.74 143.922 141.627 142.8C142.545 142.239 143.31 142.035 143.31 142.29C143.31 143.208 140.25 144.687 137.649 145.044C135.966 145.299 135.15 145.605 135.15 146.115C135.15 147.237 138.312 147.084 141.321 145.809C145.044 144.177 144.891 144.993 141.066 147.135C137.955 148.869 137.19 149.94 139.026 149.94C140.352 149.94 143.973 147.135 146.472 144.228C148.053 142.392 149.481 141.27 151.011 140.709L153.255 139.893V136.68V133.467L150.96 132.804C149.685 132.396 147.798 132.09 146.778 132.09C145.197 132.09 144.84 132.294 144.84 133.11Z" fill="#EC96EC"/>
<path d="M36.21 147.9V157.08H56.049C66.963 157.08 75.99 157.284 76.092 157.539C76.194 157.743 83.283 158.1 91.953 158.202L107.61 158.457V148.614V138.72H71.91H36.21V147.9ZM100.062 146.217C100.572 146.676 100.98 147.747 100.98 148.563C100.98 151.623 97.971 153.051 95.88 150.96C93.024 148.104 97.053 143.514 100.062 146.217ZM89.148 148.512L88.995 151.215L66.708 151.368L44.37 151.47V148.665V145.86H66.861H89.301L89.148 148.512Z" fill="#EC96EC"/>
<path d="M45.39 148.665V150.45H66.81H88.23V148.665V146.88H66.81H45.39V148.665Z" fill="#EC96EC"/>
<path d="M88.638 164.577L75.99 164.73V168.045V171.309L82.518 171.462L88.995 171.615L89.148 174.267L89.301 176.97H79.356H69.36V180.03V183.09H72.675C74.562 183.09 75.99 183.294 75.99 183.6C75.99 183.906 81.6 184.11 91.8 184.11H107.61V174.165V164.22L104.448 164.322C102.663 164.424 95.574 164.526 88.638 164.577ZM99.858 171.666C100.623 172.176 100.98 172.941 100.98 174.165C100.98 176.256 99.858 177.48 97.92 177.48C95.166 177.48 93.891 173.859 95.88 171.87C97.104 170.646 98.328 170.595 99.858 171.666Z" fill="#EC96EC"/>
<path d="M75.99 174.165V175.95H82.11H88.23V174.165V172.38H82.11H75.99V174.165Z" fill="#EC96EC"/>
<path d="M205.326 187.578C205.224 187.782 205.428 190.434 205.734 193.545C206.295 198.288 206.448 198.951 206.907 197.88C208.794 193.443 210.12 189.975 210.12 189.465C210.12 188.853 205.683 187.068 205.326 187.578Z" fill="#EC96EC"/>
<path d="M88.638 190.587L75.99 190.74V194.055V197.319L82.518 197.472L88.995 197.625L89.148 200.277L89.301 202.98H79.356H69.36V205.785V208.59H72.675C75.276 208.59 75.99 208.743 75.99 209.355C75.99 210.018 78.081 210.12 91.8 210.12H107.61V200.175V190.23L104.448 190.332C102.663 190.434 95.574 190.536 88.638 190.587ZM99.858 197.676C100.623 198.186 100.98 198.951 100.98 200.175C100.98 202.266 99.858 203.49 97.92 203.49C95.166 203.49 93.891 199.869 95.88 197.88C97.104 196.656 98.328 196.605 99.858 197.676Z" fill="#EC96EC"/>
<path d="M75.99 200.175V201.96H82.11H88.23V200.175V198.39H82.11H75.99V200.175Z" fill="#EC96EC"/>
<path d="M135.66 224.961L129.795 228.021L134.385 227.715C141.729 227.205 142.29 227.052 142.239 225.471C142.188 224.757 142.035 223.635 141.882 223.074C141.525 222.003 141.321 222.054 135.66 224.961Z" fill="#EC96EC"/>
<path d="M180.03 22.083L156.825 35.445L156.978 41.82C157.539 66.861 164.016 89.913 175.083 106.488C181.407 115.923 190.791 124.695 199.512 129.132L203.184 131.019L205.734 129.54C218.28 122.349 229.704 109.344 237.405 93.585C244.443 79.203 248.166 64.005 249.39 44.574C249.849 37.689 249.798 35.904 249.288 35.445C248.829 34.986 208.59 11.679 203.49 8.874C203.337 8.823 192.78 14.739 180.03 22.083ZM222.717 29.682L242.352 41.055L242.097 48.45C241.485 63.087 238.119 77.367 232.56 88.995C226.389 101.847 216.852 112.914 206.499 119.238L202.929 121.431L199.818 119.85C195.33 117.555 192.933 115.821 188.292 111.435C173.4 97.41 165.342 76.347 163.914 47.685L163.557 41.055L183.141 29.733C193.902 23.46 202.776 18.36 202.878 18.36C202.98 18.36 211.905 23.46 222.717 29.682Z" fill="#F9C825"/>
<path d="M183.855 30.294L164.985 41.208L165.087 48.042C165.393 71.298 172.584 92.514 185.079 106.998C189.414 112.047 197.421 118.218 201.756 119.901L202.98 120.36V105.876V91.443L200.379 91.137C189.21 89.811 179.673 77.214 179.367 63.342L179.265 59.415L183.498 59.262L187.68 59.109V50.694C187.68 41.514 187.986 40.086 190.536 37.536C192.831 35.241 195.636 34.17 199.563 34.17H202.98V26.775C202.98 22.695 202.929 19.38 202.878 19.38C202.776 19.38 194.259 24.327 183.855 30.294Z" fill="white"/>
<path d="M195.275 42.0712C194.408 42.9892 194.306 44.1112 194.153 50.9962L194 58.8502H198.335H202.721V49.9252V41.0002H199.508C196.856 41.0002 196.091 41.2042 195.275 42.0712Z" fill="white"/>
<path d="M80.937 16.371C77.826 17.085 75.225 18.666 73.083 21.114C71.196 23.256 69.666 26.622 70.278 27.234C71.094 28.101 72.369 27.387 72.93 25.755C73.695 23.409 78.081 19.533 80.733 18.819C84.762 17.748 90.066 19.176 92.616 22.032C94.758 24.378 95.523 25.959 94.911 26.673C94.503 27.234 94.86 27.744 96.645 29.019L98.94 30.651V29.172C98.94 28.356 99.093 26.979 99.246 26.112C99.501 24.735 99.45 24.582 98.583 24.786C97.767 24.99 97.257 24.531 96.186 22.746C93.381 17.952 86.445 15.045 80.937 16.371Z" fill="white"/>
<path d="M69.666 32.793C69.105 34.935 69.309 37.23 70.023 36.924C70.431 36.771 71.298 37.485 72.063 38.709C74.613 42.585 79.458 45.033 84.456 44.931C90.678 44.88 96.288 40.494 98.175 34.272C98.43 33.303 98.328 33.15 97.206 33.15C96.237 33.15 95.829 33.507 95.319 35.037C94.401 37.944 90.831 41.106 87.465 42.075C82.62 43.503 78.132 42.126 74.766 38.148C73.134 36.261 72.981 35.904 73.695 35.394C74.358 34.884 74.256 34.629 72.828 33.558C70.176 31.569 70.023 31.569 69.666 32.793Z" fill="white"/>
<path d="M150.552 100.215C151.011 100.725 151.623 101.031 151.98 100.878C152.337 100.776 151.929 100.368 151.164 100.011C149.787 99.399 149.736 99.45 150.552 100.215Z" fill="#ECECEC"/>
<path d="M96.39 120.258C94.197 122.043 95.217 125.46 97.971 125.46C100.317 125.46 101.745 122.655 100.317 120.819C99.297 119.442 97.665 119.238 96.39 120.258Z" fill="#ECECEC"/>
<path d="M96.39 146.268C95.676 146.829 95.268 147.747 95.268 148.665C95.268 151.521 98.634 152.745 100.317 150.501C102.357 147.798 98.991 144.177 96.39 146.268Z" fill="#ECECEC"/>
<path d="M63.903 165.546C63.138 166.77 63.138 167.025 63.801 168.249C64.362 169.269 64.923 169.575 66.3 169.575C67.779 169.575 68.136 169.32 68.544 168.198C69.768 164.781 65.892 162.537 63.903 165.546Z" fill="#ECECEC"/>
<path d="M95.982 171.972C95.115 172.839 95.217 175.746 96.186 176.664C97.257 177.786 98.736 177.684 99.96 176.46C101.184 175.236 101.235 174.012 100.164 172.482C99.297 171.258 97.002 170.952 95.982 171.972Z" fill="#ECECEC"/>
<path d="M63.954 191.505C62.679 193.443 63.597 195.534 65.739 195.738C67.779 195.942 68.85 195.126 68.85 193.239C68.85 190.332 65.535 189.108 63.954 191.505Z" fill="#ECECEC"/>
<path d="M95.982 197.982C95.115 198.849 95.217 201.756 96.186 202.674C97.257 203.796 98.736 203.694 99.96 202.47C101.184 201.246 101.235 200.022 100.164 198.492C99.297 197.268 97.002 196.962 95.982 197.982Z" fill="#ECECEC"/>
<path d="M64.26 216.75C63.699 217.311 63.24 218.229 63.24 218.79C63.24 220.065 64.974 221.85 66.198 221.85C68.544 221.85 69.717 218.178 67.932 216.597C66.657 215.475 65.484 215.526 64.26 216.75Z" fill="#ECECEC"/>
<path d="M64.209 242.811C63.495 243.525 63.24 244.239 63.444 244.953C63.597 245.565 63.75 246.228 63.75 246.483C63.75 246.687 64.362 247.095 65.076 247.401C67.983 248.472 70.227 244.698 67.932 242.607C66.657 241.434 65.484 241.536 64.209 242.811Z" fill="#ECECEC"/>
</svg>
