<svg width="24" height="24" viewBox="0 0 24 24" fill="none" xmlns="http://www.w3.org/2000/svg">
<g clip-path="url(#clip0_103_811)">
<path d="M16.0407 0.121869C14.8032 0.487494 13.5938 1.22812 12.9891 1.98749C12.5672 2.51718 12.2907 3.14999 12.1172 3.98437C12.0375 4.36406 11.9672 5.33437 12.0141 5.45156C12.0375 5.51249 12.0844 5.51249 12.4078 5.45624C12.9328 5.35781 13.725 5.09062 14.2219 4.84218C15.7078 4.09687 16.4719 3.08906 16.6735 1.61718C16.7344 1.13437 16.7297 0.407807 16.6547 0.103119C16.6219 -0.0281305 16.5375 -0.0281305 16.0407 0.121869Z" fill="white"/>
<path d="M15.3282 5.86406C15.0845 5.91562 14.5689 6.08437 14.1798 6.24374C12.5439 6.89999 12.1736 6.97968 11.5548 6.8203C11.4001 6.77812 10.9361 6.60937 10.5236 6.44999C9.19699 5.92031 8.74699 5.82656 7.80949 5.87343C6.42199 5.94374 5.39074 6.42187 4.30793 7.49999C3.27199 8.52656 2.59231 9.82031 2.31106 11.2734C2.21262 11.7937 2.17512 13.35 2.25012 14.0437C2.57824 17.3203 4.06418 20.7141 6.02356 22.6641C6.95637 23.5969 7.72981 24 8.59699 24C9.07512 24 9.46418 23.9016 10.3829 23.5547C11.5689 23.1047 11.972 23.0016 12.5814 23.0016C13.1204 23.0062 13.4626 23.0906 14.4236 23.4656C16.1673 24.1453 16.772 24.1734 17.6298 23.6203C18.0048 23.3766 18.8392 22.6969 19.1626 22.3687C19.7111 21.8109 20.3251 20.85 20.9532 19.5703C21.3329 18.8016 21.8111 17.6812 21.7876 17.6203C21.7782 17.6016 21.6095 17.4984 21.4079 17.3953C20.0111 16.6594 19.0361 15.3187 18.6282 13.5703C18.5017 13.0266 18.5111 11.9719 18.647 11.4656C18.7736 11.0156 19.0923 10.3266 19.3876 9.89062C19.6782 9.45468 20.2501 8.84999 20.7142 8.48437C20.9251 8.32031 21.0939 8.17031 21.0939 8.15156C21.0939 8.07187 20.2079 7.1953 19.8704 6.94218C18.8064 6.13593 17.8782 5.82187 16.4767 5.78437C15.8954 5.77031 15.6986 5.78437 15.3282 5.86406Z" fill="white"/>
</g>
<defs>
<clipPath id="clip0_103_811">
<rect width="24" height="24" fill="white"/>
</clipPath>
</defs>
</svg>
