<svg width="22" height="22" viewBox="0 0 22 22" fill="none" xmlns="http://www.w3.org/2000/svg">
<path fill-rule="evenodd" clip-rule="evenodd" d="M1.14648 11C1.14648 16.4424 5.55835 20.8542 11.0007 20.8542C16.443 20.8542 20.8548 16.4424 20.8548 11C20.8548 5.55774 16.443 1.14587 11.0007 1.14587C5.55835 1.14587 1.14648 5.55774 1.14648 11ZM15.2867 7.57432C15.6599 7.91641 15.6851 8.49627 15.3431 8.86946L10.3014 14.3694C10.1324 14.5538 9.89552 14.661 9.64554 14.6665C9.39557 14.6719 9.15426 14.575 8.97747 14.3982L6.6858 12.1065C6.32782 11.7486 6.32782 11.1682 6.6858 10.8102C7.04379 10.4522 7.62418 10.4522 7.98217 10.8102L9.59687 12.4249L13.9916 7.63063C14.3337 7.25744 14.9135 7.23223 15.2867 7.57432Z" fill="#F9C825"/>
</svg>
