<svg width="27" height="26" viewBox="0 0 27 26" fill="none" xmlns="http://www.w3.org/2000/svg">
<path d="M10.1162 18.6873C9.66828 18.6873 9.30516 19.0511 9.30516 19.4998C9.30516 19.9486 9.66828 20.3123 10.1162 20.3123H16.6046C17.0525 20.3123 17.4156 19.9486 17.4156 19.4998C17.4156 19.0511 17.0525 18.6873 16.6046 18.6873H10.1162Z" fill="#11054D"/>
<path fill-rule="evenodd" clip-rule="evenodd" d="M13.3604 1.354C12.5965 1.354 12.1114 1.89497 11.7852 2.38011C11.4541 2.87248 11.1085 3.58187 10.6989 4.4229L8.25193 9.44606C8.01506 9.9323 7.86269 10.243 7.73048 10.4586C7.63872 10.6082 7.58859 10.6563 7.57684 10.6666C7.54305 10.6823 7.51154 10.6873 7.4825 10.6853C7.46375 10.6748 7.41121 10.6416 7.31458 10.5521C7.13931 10.3897 6.92108 10.1425 6.57501 9.74778L6.54354 9.71189C5.92424 9.00558 5.41836 8.42863 5.00168 8.03841C4.78803 7.83832 4.56347 7.65391 4.32745 7.52174C4.08746 7.38735 3.78609 7.27935 3.44223 7.3096C2.93065 7.35462 2.47671 7.61381 2.15845 7.99903C1.77448 8.46377 1.73127 9.11348 1.73563 9.67513C1.74034 10.2819 1.816 11.0871 1.91001 12.0877L2.16667 14.8196C2.36672 16.9491 2.52339 18.6169 2.7948 19.9126C3.07131 21.2326 3.48698 22.2771 4.28076 23.0906C5.08646 23.9162 6.07646 24.2941 7.29992 24.4733C8.4768 24.6457 9.96335 24.6457 11.8255 24.6457H14.8953C16.7574 24.6457 18.244 24.6457 19.4209 24.4733C20.6443 24.2941 21.6343 23.9162 22.44 23.0906C23.2338 22.2771 23.6495 21.2326 23.926 19.9126C24.1974 18.6169 24.3541 16.9491 24.5541 14.8197L24.8108 12.0877C24.9048 11.0871 24.9804 10.2818 24.9851 9.67513C24.9895 9.11348 24.9463 8.46377 24.5623 7.99903C24.2441 7.61381 23.7901 7.35462 23.2785 7.3096C22.9347 7.27935 22.6333 7.38735 22.3933 7.52174C22.1573 7.65391 21.9327 7.83832 21.7191 8.03841C21.3024 8.42863 20.7965 9.00558 20.1772 9.7119L20.1458 9.74778C19.7997 10.1425 19.5815 10.3897 19.4062 10.5521C19.3096 10.6416 19.257 10.6748 19.2383 10.6853C19.2092 10.6873 19.1777 10.6823 19.1439 10.6666C19.1322 10.6563 19.0821 10.6082 18.9903 10.4586C18.8581 10.243 18.7057 9.9323 18.4688 9.44605L16.0219 4.42289C15.6122 3.58186 15.2667 2.87248 14.9356 2.38011C14.6094 1.89497 14.1242 1.354 13.3604 1.354ZM12.1286 5.19311C12.5739 4.27915 12.8705 3.67456 13.1305 3.28803C13.2405 3.12432 13.3162 3.04248 13.3604 3.00305C13.4046 3.04248 13.4802 3.12432 13.5903 3.28803C13.8502 3.67456 14.1469 4.27914 14.5921 5.1931L17.0281 10.1937C17.243 10.6348 17.4296 11.0181 17.6082 11.3093C17.7911 11.6074 18.0322 11.9254 18.4079 12.1148C18.7468 12.2857 19.1287 12.3484 19.5067 12.2886C19.932 12.2213 20.2547 11.9793 20.5074 11.7452C20.7524 11.5183 21.0266 11.2056 21.3376 10.8509L21.3644 10.8202C22.0228 10.0694 22.4759 9.55412 22.8268 9.22549C23.0005 9.06286 23.1146 8.97947 23.1848 8.94018L23.1857 8.93964C23.2223 8.95299 23.2647 8.97942 23.3065 9.02781C23.3065 9.02781 23.3067 9.0301 23.3081 9.03468C23.3182 9.06698 23.3665 9.22065 23.3631 9.66249C23.359 10.1904 23.2907 10.9252 23.1919 11.9772L22.944 14.6154C22.738 16.8081 22.5888 18.3839 22.3385 19.5788C22.091 20.76 21.7652 21.4575 21.2801 21.9546C20.8069 22.4395 20.1991 22.717 19.1861 22.8654C18.1401 23.0186 16.7722 23.0207 14.831 23.0207H11.8898C9.94856 23.0207 8.5807 23.0186 7.53464 22.8654C6.52166 22.717 5.91386 22.4395 5.44069 21.9546C4.95559 21.4575 4.62973 20.76 4.38232 19.5788C4.13202 18.3839 3.98274 16.8081 3.77674 14.6154L3.52889 11.9772C3.43006 10.9252 3.36177 10.1904 3.35767 9.66249C3.35424 9.22073 3.40235 9.06706 3.41248 9.03473C3.41391 9.03014 3.41424 9.02781 3.41424 9.02781C3.4561 8.97942 3.4985 8.95299 3.53502 8.93964L3.53598 8.94018C3.60615 8.97947 3.7203 9.06286 3.89395 9.22549C4.24487 9.55412 4.69795 10.0694 5.35632 10.8202L5.38323 10.8509C5.69422 11.2056 5.96841 11.5183 6.21336 11.7452C6.46603 11.9793 6.78876 12.2213 7.21406 12.2886C7.59204 12.3484 7.97394 12.2857 8.31288 12.1148C8.68853 11.9254 8.92968 11.6074 9.11255 11.3093C9.29113 11.0181 9.4778 10.6348 9.69265 10.1937L12.1286 5.19311ZM23.3065 9.02781C23.3086 9.0302 23.3107 9.03264 23.3127 9.03514C23.3101 9.032 23.3074 9.02861 23.3074 9.02861L23.3065 9.02781ZM13.408 2.96921C13.408 2.96921 13.4046 2.97178 13.398 2.97388C13.4048 2.96975 13.408 2.96921 13.408 2.96921ZM13.3227 2.97388C13.3161 2.97178 13.3127 2.96921 13.3127 2.96921C13.3127 2.96921 13.316 2.96975 13.3227 2.97388Z" fill="#11054D"/>
</svg>
