<svg width="24" height="24" viewBox="0 0 24 24" fill="none" xmlns="http://www.w3.org/2000/svg">
<g clip-path="url(#clip0_800_2435)">
<path d="M9.75004 17C9.33582 17 9.00004 17.3358 9.00004 17.75C9.00004 18.1642 9.33582 18.5 9.75004 18.5H15.75C16.1643 18.5 16.5 18.1642 16.5 17.75C16.5 17.3358 16.1643 17 15.75 17H9.75004Z" fill="url(#paint0_linear_800_2435)"/>
<path fill-rule="evenodd" clip-rule="evenodd" d="M12.75 1C12.0437 1 11.5951 1.49936 11.2934 1.94718C10.9872 2.40167 10.6677 3.05649 10.2889 3.83283L8.02608 8.46959C7.80705 8.91843 7.66614 9.20523 7.54388 9.40422C7.45903 9.54233 7.41267 9.58677 7.40181 9.5962C7.37056 9.61072 7.34142 9.61537 7.31457 9.61347C7.29723 9.60385 7.24864 9.57316 7.15929 9.49055C6.99721 9.34068 6.79541 9.11242 6.47538 8.7481L6.44628 8.71497C5.8736 8.063 5.40579 7.53042 5.02048 7.17022C4.82291 6.98552 4.61525 6.8153 4.39699 6.6933C4.17506 6.56924 3.89638 6.46955 3.5784 6.49748C3.10533 6.53903 2.68556 6.77828 2.39125 7.13387C2.03618 7.56286 1.99622 8.16259 2.00026 8.68104C2.00461 9.2411 2.07458 9.9844 2.16151 10.908L2.39885 13.4298C2.58384 15.3955 2.72873 16.935 2.97971 18.131C3.2354 19.3495 3.61979 20.3136 4.35382 21.0645C5.09888 21.8267 6.01436 22.1754 7.14573 22.3409C8.23403 22.5 9.60869 22.5 11.3306 22.5H14.1694C15.8914 22.5 17.266 22.5 18.3543 22.3409C19.4857 22.1754 20.4012 21.8267 21.1463 21.0645C21.8803 20.3136 22.2647 19.3495 22.5204 18.131C22.7713 16.935 22.9162 15.3955 23.1012 13.4298L23.3386 10.908C23.4255 9.9844 23.4955 9.24109 23.4998 8.68104C23.5038 8.16259 23.4639 7.56286 23.1088 7.13387C22.8145 6.77828 22.3947 6.53903 21.9217 6.49748C21.6037 6.46955 21.325 6.56924 21.1031 6.6933C20.8848 6.8153 20.6772 6.98552 20.4796 7.17022C20.0943 7.53043 19.6265 8.063 19.0538 8.71498L19.0247 8.7481C18.7047 9.11242 18.5029 9.34068 18.3408 9.49055C18.2514 9.57316 18.2028 9.60385 18.1855 9.61347C18.1586 9.61537 18.1295 9.61072 18.0983 9.5962C18.0874 9.58677 18.041 9.54232 17.9562 9.40422C17.8339 9.20523 17.693 8.91842 17.474 8.46958L15.2112 3.83282C14.8324 3.05648 14.5129 2.40167 14.2067 1.94717C13.905 1.49935 13.4564 1 12.75 1ZM11.611 4.54379C12.0227 3.70013 12.297 3.14205 12.5374 2.78525C12.6392 2.63414 12.7092 2.55859 12.75 2.5222C12.7909 2.55859 12.8609 2.63414 12.9627 2.78525C13.203 3.14205 13.4774 3.70013 13.8891 4.54378L16.1417 9.15969C16.3404 9.56688 16.513 9.92068 16.6781 10.1895C16.8472 10.4647 17.0703 10.7582 17.4176 10.933C17.7311 11.0908 18.0842 11.1487 18.4337 11.0935C18.827 11.0313 19.1255 10.8079 19.3591 10.5919C19.5856 10.3825 19.8392 10.0938 20.1268 9.76635L20.1516 9.73804C20.7605 9.04494 21.1794 8.56934 21.5039 8.26599C21.6645 8.11587 21.7701 8.03889 21.835 8.00262L21.8359 8.00213C21.8696 8.01445 21.9088 8.03885 21.9475 8.08351C21.9475 8.08351 21.9477 8.08563 21.949 8.08985C21.9584 8.11967 22.003 8.26152 21.9999 8.66937C21.9961 9.15668 21.9329 9.83494 21.8415 10.806L21.6123 13.2413C21.4218 15.2653 21.2838 16.7199 21.0523 17.8229C20.8235 18.9132 20.5222 19.5571 20.0736 20.016C19.6361 20.4636 19.074 20.7197 18.1373 20.8567C17.17 20.9981 15.9051 21 14.11 21H11.3901C9.59501 21 8.3301 20.9981 7.36279 20.8567C6.42605 20.7197 5.864 20.4636 5.42644 20.016C4.97785 19.5571 4.67652 18.9132 4.44773 17.8229C4.21628 16.7199 4.07823 15.2653 3.88774 13.2413L3.65854 10.806C3.56715 9.83494 3.504 9.15668 3.50021 8.66937C3.49704 8.2616 3.54153 8.11975 3.55089 8.0899C3.55222 8.08567 3.55252 8.08352 3.55252 8.08352C3.59123 8.03885 3.63044 8.01445 3.66421 8.00213L3.6651 8.00262C3.72998 8.03889 3.83554 8.11587 3.99613 8.26599C4.32063 8.56934 4.7396 9.04494 5.34843 9.73804L5.37331 9.76637C5.66089 10.0938 5.91444 10.3825 6.14095 10.5919C6.37461 10.8079 6.67305 11.0313 7.06634 11.0935C7.41586 11.1487 7.76901 11.0908 8.08245 10.933C8.42982 10.7582 8.65282 10.4647 8.82192 10.1895C8.98706 9.92069 9.15969 9.56692 9.35836 9.15976L11.611 4.54379ZM21.9475 8.08351C21.9494 8.08572 21.9514 8.08797 21.9533 8.09028C21.9509 8.08738 21.9483 8.08425 21.9483 8.08425L21.9475 8.08351ZM12.7941 2.49096C12.7941 2.49096 12.7909 2.49333 12.7848 2.49527C12.7911 2.49146 12.7941 2.49096 12.7941 2.49096ZM12.7152 2.49527C12.7091 2.49333 12.706 2.49096 12.706 2.49096C12.706 2.49096 12.709 2.49146 12.7152 2.49527Z" fill="url(#paint1_linear_800_2435)"/>
<path fill-rule="evenodd" clip-rule="evenodd" d="M12.5374 2.78525C12.297 3.14205 12.0227 3.70013 11.611 4.54379L9.35836 9.15976C9.15969 9.56692 8.98706 9.92069 8.82192 10.1895C8.65282 10.4647 8.42982 10.7582 8.08245 10.933C7.76901 11.0908 7.41586 11.1487 7.06634 11.0935C6.67305 11.0313 6.37461 10.8079 6.14095 10.5919C5.91444 10.3825 5.66089 10.0938 5.37331 9.76637L5.34843 9.73804C4.7396 9.04494 4.32063 8.56934 3.99613 8.26599C3.83554 8.11587 3.72998 8.03889 3.6651 8.00262L3.66421 8.00213C3.63044 8.01445 3.59123 8.03885 3.55252 8.08352C3.55252 8.08352 3.55222 8.08567 3.55089 8.0899C3.54153 8.11975 3.49704 8.2616 3.50021 8.66937C3.504 9.15668 3.56715 9.83494 3.65854 10.806L3.88774 13.2413C4.07823 15.2653 4.21628 16.7199 4.44773 17.8229C4.67652 18.9132 4.97785 19.5571 5.42644 20.016C5.864 20.4636 6.42605 20.7197 7.36279 20.8567C8.3301 20.9981 9.59501 21 11.3901 21H14.11C15.9051 21 17.17 20.9981 18.1373 20.8567C19.074 20.7197 19.6361 20.4636 20.0736 20.016C20.5222 19.5571 20.8235 18.9132 21.0523 17.8229C21.2838 16.7199 21.4218 15.2653 21.6123 13.2413L21.8415 10.806C21.9329 9.83494 21.9961 9.15668 21.9999 8.66937C22.003 8.26152 21.9584 8.11967 21.949 8.08985C21.9477 8.08563 21.9475 8.08351 21.9475 8.08351C21.9088 8.03885 21.8696 8.01445 21.8359 8.00213L21.835 8.00262C21.7701 8.03889 21.6645 8.11587 21.5039 8.26599C21.1794 8.56934 20.7605 9.04494 20.1516 9.73804L20.1268 9.76635C19.8392 10.0938 19.5856 10.3825 19.3591 10.5919C19.1255 10.8079 18.827 11.0313 18.4337 11.0935C18.0842 11.1487 17.7311 11.0908 17.4176 10.933C17.0703 10.7582 16.8472 10.4647 16.6781 10.1895C16.513 9.92068 16.3404 9.56688 16.1417 9.15969L13.8891 4.54378C13.4774 3.70013 13.203 3.14205 12.9627 2.78525C12.8609 2.63414 12.7909 2.55859 12.75 2.5222C12.7092 2.55859 12.6392 2.63414 12.5374 2.78525ZM9.75004 17C9.33582 17 9.00004 17.3358 9.00004 17.75C9.00004 18.1642 9.33582 18.5 9.75004 18.5H15.75C16.1643 18.5 16.5 18.1642 16.5 17.75C16.5 17.3358 16.1643 17 15.75 17H9.75004Z" fill="url(#paint2_linear_800_2435)"/>
</g>
<defs>
<linearGradient id="paint0_linear_800_2435" x1="12.75" y1="22.5" x2="12.75" y2="1" gradientUnits="userSpaceOnUse">
<stop offset="0.46" stop-color="#FF9D37"/>
<stop offset="1" stop-color="#FFCB4B"/>
</linearGradient>
<linearGradient id="paint1_linear_800_2435" x1="12.75" y1="22.5" x2="12.75" y2="1" gradientUnits="userSpaceOnUse">
<stop offset="0.46" stop-color="#FF9D37"/>
<stop offset="1" stop-color="#FFCB4B"/>
</linearGradient>
<linearGradient id="paint2_linear_800_2435" x1="12.75" y1="22.5" x2="12.75" y2="1" gradientUnits="userSpaceOnUse">
<stop offset="0.46" stop-color="#FF9D37"/>
<stop offset="1" stop-color="#FFCB4B"/>
</linearGradient>
<clipPath id="clip0_800_2435">
<rect width="23" height="24" fill="white" transform="translate(0.5)"/>
</clipPath>
</defs>
</svg>
