<svg width="42" height="42" viewBox="0 0 42 42" fill="none" xmlns="http://www.w3.org/2000/svg">
<path d="M15.8954 29.3023C15.2596 29.3023 14.7442 29.8333 14.7442 30.4884C14.7442 31.1434 15.2596 31.6744 15.8954 31.6744H25.1046C25.7404 31.6744 26.2558 31.1434 26.2558 30.4884C26.2558 29.8333 25.7404 29.3023 25.1046 29.3023H15.8954Z" fill="url(#paint0_linear_800_2468)"/>
<path fill-rule="evenodd" clip-rule="evenodd" d="M20.5 4C19.4158 4 18.7273 4.78968 18.2642 5.49786C17.7943 6.21659 17.3038 7.25212 16.7224 8.47982L13.2493 15.8124C12.9131 16.5222 12.6968 16.9757 12.5092 17.2904C12.3789 17.5088 12.3078 17.5791 12.2911 17.594C12.2432 17.617 12.1984 17.6243 12.1572 17.6213C12.1306 17.6061 12.056 17.5576 11.9189 17.4269C11.6701 17.1899 11.3604 16.8289 10.8692 16.2528L10.8245 16.2004C9.9455 15.1694 9.22748 14.3272 8.63607 13.7576C8.33282 13.4655 8.01409 13.1963 7.67909 13.0034C7.33846 12.8072 6.91071 12.6495 6.42265 12.6937C5.69655 12.7594 5.05225 13.1377 4.60052 13.7001C4.05554 14.3785 3.9942 15.3269 4.00039 16.1468C4.00708 17.0324 4.11446 18.2079 4.2479 19.6685L4.61219 23.6565C4.89613 26.7649 5.11851 29.1995 5.50373 31.0909C5.89619 33.0178 6.48618 34.5425 7.61282 35.7299C8.7564 36.9352 10.1616 37.4867 11.8981 37.7484C13.5685 38.0001 15.6784 38 18.3214 38H22.6786C25.3216 38 27.4315 38.0001 29.1019 37.7484C30.8384 37.4867 32.2436 36.9352 33.3872 35.7299C34.5138 34.5425 35.1038 33.0178 35.4963 31.0909C35.8815 29.1995 36.1039 26.7649 36.3878 23.6565L36.7521 19.6685C36.8855 18.2079 36.9929 17.0324 36.9996 16.1468C37.0058 15.3269 36.9445 14.3785 36.3995 13.7001C35.9478 13.1377 35.3035 12.7594 34.5773 12.6937C34.0893 12.6495 33.6615 12.8072 33.3209 13.0034C32.9859 13.1963 32.6672 13.4655 32.3639 13.7576C31.7725 14.3272 31.0545 15.1694 30.1755 16.2004L30.1308 16.2528C29.6396 16.8289 29.3299 17.1899 29.0811 17.4269C28.944 17.5576 28.8694 17.6061 28.8428 17.6213C28.8016 17.6243 28.7568 17.617 28.7089 17.594C28.6922 17.5791 28.6211 17.5088 28.4908 17.2904C28.3032 16.9757 28.0869 16.5222 27.7507 15.8124L24.2776 8.47981C23.6962 7.25211 23.2057 6.21659 22.7358 5.49786C22.2727 4.78968 21.5842 4 20.5 4ZM18.7517 9.60413C19.3836 8.26997 19.8047 7.38743 20.1737 6.82319C20.3299 6.58423 20.4373 6.46475 20.5 6.4072C20.5627 6.46475 20.6701 6.58423 20.8263 6.82319C21.1953 7.38743 21.6164 8.26997 22.2483 9.60412L25.7058 16.9037C26.0107 17.5476 26.2757 18.1071 26.5292 18.5322C26.7887 18.9674 27.131 19.4316 27.6642 19.708C28.1453 19.9575 28.6873 20.0491 29.2238 19.9618C29.8274 19.8635 30.2855 19.5102 30.6441 19.1686C30.9918 18.8374 31.381 18.3809 31.8224 17.8631L31.8606 17.8183C32.795 16.7222 33.4381 15.9701 33.9362 15.4904C34.1827 15.253 34.3447 15.1313 34.4443 15.0739L34.4456 15.0731C34.4975 15.0926 34.5576 15.1312 34.6171 15.2018C34.6171 15.2018 34.6173 15.2052 34.6193 15.2119C34.6337 15.259 34.7022 15.4833 34.6974 16.1283C34.6915 16.8989 34.5946 17.9715 34.4543 19.5072L34.1026 23.3583C33.8102 26.5591 33.5983 28.8594 33.243 30.6037C32.8919 32.3278 32.4294 33.3461 31.7408 34.0717C31.0692 34.7796 30.2065 35.1846 28.7688 35.4013C27.2841 35.625 25.3426 35.6279 22.5873 35.6279H18.4127C15.6574 35.6279 13.7159 35.625 12.2312 35.4013C10.7935 35.1846 9.93077 34.7796 9.25918 34.0717C8.57064 33.3461 8.10814 32.3278 7.75698 30.6037C7.40171 28.8594 7.18983 26.559 6.89745 23.3583L6.54566 19.5072C6.40538 17.9715 6.30846 16.8989 6.30264 16.1283C6.29777 15.4835 6.36606 15.2591 6.38043 15.2119C6.38247 15.2052 6.38293 15.2018 6.38293 15.2018C6.44234 15.1312 6.50253 15.0926 6.55437 15.0731L6.55573 15.0739C6.65532 15.1313 6.81734 15.253 7.06381 15.4904C7.56188 15.9701 8.20496 16.7222 9.13943 17.8183L9.17763 17.8631C9.61903 18.3809 10.0082 18.8374 10.3559 19.1686C10.7145 19.5102 11.1726 19.8635 11.7762 19.9618C12.3127 20.0491 12.8547 19.9575 13.3358 19.708C13.869 19.4316 14.2113 18.9674 14.4708 18.5322C14.7243 18.1071 14.9893 17.5477 15.2942 16.9038L18.7517 9.60413ZM34.6171 15.2018C34.62 15.2053 34.6229 15.2089 34.6259 15.2125C34.6222 15.208 34.6183 15.203 34.6183 15.203L34.6171 15.2018ZM20.5676 6.35779C20.5676 6.35779 20.5628 6.36155 20.5534 6.36462C20.563 6.35859 20.5676 6.35779 20.5676 6.35779ZM20.4466 6.36462C20.4372 6.36155 20.4324 6.35779 20.4324 6.35779C20.4324 6.35779 20.437 6.35859 20.4466 6.36462Z" fill="url(#paint1_linear_800_2468)"/>
<defs>
<linearGradient id="paint0_linear_800_2468" x1="20.5" y1="4" x2="20.5" y2="38" gradientUnits="userSpaceOnUse">
<stop offset="0.46" stop-color="#FF9D37"/>
<stop offset="1" stop-color="#FFCB4B"/>
</linearGradient>
<linearGradient id="paint1_linear_800_2468" x1="20.5" y1="4" x2="20.5" y2="38" gradientUnits="userSpaceOnUse">
<stop offset="0.46" stop-color="#FF9D37"/>
<stop offset="1" stop-color="#FFCB4B"/>
</linearGradient>
</defs>
</svg>
