<svg width="25" height="24" viewBox="0 0 25 24" fill="none" xmlns="http://www.w3.org/2000/svg">
<path d="M9.50001 17.25C9.08579 17.25 8.75001 17.5858 8.75001 18C8.75001 18.4142 9.08579 18.75 9.50001 18.75H15.5C15.9142 18.75 16.25 18.4142 16.25 18C16.25 17.5858 15.9142 17.25 15.5 17.25H9.50001Z" fill="#F9C825"/>
<path fill-rule="evenodd" clip-rule="evenodd" d="M12.5 1.25C11.7937 1.25 11.345 1.74936 11.0433 2.19718C10.7372 2.65167 10.4176 3.30649 10.0388 4.08283L7.77605 8.71959C7.55702 9.16843 7.41611 9.45523 7.29385 9.65422C7.209 9.79233 7.16264 9.83677 7.15178 9.8462C7.12053 9.86072 7.09139 9.86537 7.06454 9.86347C7.0472 9.85385 6.99861 9.82316 6.90926 9.74055C6.74718 9.59068 6.54538 9.36242 6.22535 8.9981L6.19625 8.96497C5.62356 8.313 5.15576 7.78042 4.77045 7.42022C4.57287 7.23552 4.36522 7.0653 4.14696 6.9433C3.92503 6.81924 3.64635 6.71955 3.32837 6.74748C2.8553 6.78903 2.43553 7.02828 2.14122 7.38387C1.78615 7.81286 1.74619 8.41259 1.75022 8.93104C1.75458 9.4911 1.82454 10.2344 1.91148 11.158L2.14882 13.6798C2.33381 15.6455 2.4787 17.185 2.72968 18.381C2.98537 19.5995 3.36976 20.5636 4.10378 21.3145C4.84884 22.0767 5.76433 22.4254 6.8957 22.5909C7.98399 22.75 9.35866 22.75 11.0806 22.75H13.9194C15.6413 22.75 17.016 22.75 18.1043 22.5909C19.2357 22.4254 20.1512 22.0767 20.8962 21.3145C21.6302 20.5636 22.0146 19.5995 22.2703 18.381C22.5213 17.185 22.6662 15.6455 22.8512 13.6798L23.0885 11.158C23.1755 10.2344 23.2454 9.49109 23.2498 8.93104C23.2538 8.41259 23.2139 7.81286 22.8588 7.38387C22.5645 7.02828 22.1447 6.78903 21.6716 6.74748C21.3537 6.71955 21.075 6.81924 20.853 6.9433C20.6348 7.0653 20.4271 7.23552 20.2296 7.42022C19.8442 7.78043 19.3764 8.313 18.8037 8.96498L18.7747 8.9981C18.4546 9.36242 18.2528 9.59068 18.0907 9.74055C18.0014 9.82316 17.9528 9.85385 17.9355 9.86347C17.9086 9.86537 17.8795 9.86072 17.8482 9.8462C17.8374 9.83677 17.791 9.79232 17.7062 9.65422C17.5839 9.45523 17.443 9.16842 17.224 8.71958L14.9612 4.08282C14.5824 3.30648 14.2628 2.65167 13.9567 2.19717C13.655 1.74935 13.2064 1.25 12.5 1.25ZM11.361 4.79379C11.7727 3.95013 12.047 3.39205 12.2874 3.03525C12.3892 2.88414 12.4591 2.80859 12.5 2.7722C12.5409 2.80859 12.6108 2.88414 12.7126 3.03525C12.953 3.39205 13.2273 3.95013 13.639 4.79378L15.8916 9.40969C16.0903 9.81688 16.263 10.1707 16.4281 10.4395C16.5972 10.7147 16.8202 11.0082 17.1676 11.183C17.481 11.3408 17.8342 11.3987 18.1837 11.3435C18.577 11.2813 18.8754 11.0579 19.1091 10.8419C19.3356 10.6325 19.5891 10.3438 19.8767 10.0164L19.9016 9.98804C20.5104 9.29494 20.9294 8.81934 21.2539 8.51599C21.4145 8.36587 21.5201 8.28889 21.5849 8.25262L21.5858 8.25213C21.6196 8.26445 21.6588 8.28885 21.6975 8.33351C21.6974 8.33348 21.6975 8.33349 21.6975 8.33351C21.6972 8.33368 21.6976 8.33563 21.699 8.33985C21.7083 8.36967 21.753 8.51152 21.7498 8.91937C21.746 9.40668 21.6829 10.0849 21.5915 11.056L21.3623 13.4913C21.1718 15.5153 21.0338 16.9699 20.8023 18.0729C20.5735 19.1632 20.2722 19.8071 19.8236 20.266C19.386 20.7136 18.824 20.9697 17.8873 21.1067C16.9199 21.2481 15.655 21.25 13.8599 21.25H11.1401C9.34498 21.25 8.08007 21.2481 7.11276 21.1067C6.17602 20.9697 5.61397 20.7136 5.17641 20.266C4.72782 19.8071 4.42649 19.1632 4.1977 18.0729C3.96624 16.9699 3.8282 15.5153 3.63771 13.4913L3.40851 11.056C3.31712 10.0849 3.25397 9.40668 3.25018 8.91937C3.24701 8.5116 3.2915 8.36975 3.30086 8.3399C3.30219 8.33567 3.30281 8.33368 3.30249 8.33352C3.3412 8.28885 3.38041 8.26445 3.41418 8.25213L3.41507 8.25262C3.47995 8.28889 3.58551 8.36587 3.7461 8.51599C4.0706 8.81934 4.48957 9.29494 5.0984 9.98804L5.12328 10.0164C5.41086 10.3438 5.66441 10.6325 5.89092 10.8419C6.12458 11.0579 6.42302 11.2813 6.81631 11.3435C7.16583 11.3987 7.51898 11.3408 7.83242 11.183C8.17979 11.0082 8.40279 10.7147 8.57189 10.4395C8.73703 10.1707 8.90965 9.81692 9.10833 9.40976L11.361 4.79379ZM21.6975 8.33351C21.6994 8.33572 21.7013 8.33797 21.7032 8.34028C21.7008 8.33738 21.6992 8.3353 21.6983 8.33425C21.6979 8.33385 21.6977 8.3336 21.6975 8.33351ZM12.5441 2.74096C12.544 2.74143 12.5409 2.74333 12.5348 2.74527C12.5411 2.74146 12.5441 2.74049 12.5441 2.74096ZM12.4652 2.74527C12.4591 2.74333 12.456 2.74143 12.4559 2.74096C12.4559 2.74049 12.4589 2.74146 12.4652 2.74527Z" fill="#F9C825"/>
</svg>
