<svg width="24" height="24" viewBox="0 0 24 24" fill="none" xmlns="http://www.w3.org/2000/svg">
<path d="M8.09324 2.01492C7.9057 2.09163 7.70964 2.26638 7.61162 2.44965C7.52211 2.62014 7.51785 2.68833 7.50506 3.66009L7.49228 4.69579H5.58285H3.67768L3.46031 4.80234C3.32392 4.87054 3.20032 4.97709 3.1236 5.08791C3.01279 5.2456 3 5.29675 3 5.61641C3 5.93607 3.01279 5.98295 3.12786 6.14917C3.20032 6.2472 3.34097 6.37507 3.44326 6.43047L3.63079 6.5285H11.162H18.6931L18.8807 6.43047C18.9957 6.3708 19.1236 6.25147 19.2088 6.11934C19.3452 5.91902 19.3538 5.89345 19.3367 5.58657C19.3197 5.18167 19.1918 4.96857 18.8636 4.80234L18.6462 4.69579H16.7411H14.8317L14.8189 3.66009C14.8061 2.64997 14.8018 2.6244 14.6995 2.43687C14.6399 2.33458 14.5077 2.18966 14.4097 2.11721L14.2222 1.98934L11.2131 1.98082C9.29089 1.97656 8.16143 1.98934 8.09324 2.01492ZM12.9521 4.24827V4.69579H11.162H9.37187V4.24827V3.80075H11.162H12.9521V4.24827Z" fill="#FF0000"/>
<path d="M4.40484 7.50427C4.196 7.6023 4.02551 7.77705 3.94027 7.98589C3.8806 8.12654 3.87208 8.75307 3.87208 13.4712C3.87208 19.2379 3.86781 19.0887 4.10649 19.7195C4.4432 20.6146 5.24874 21.4286 6.13526 21.7611C6.77884 22.004 6.71065 21.9998 11.1603 21.9998C15.61 21.9998 15.5418 22.004 16.1853 21.7611C17.0633 21.4286 17.8774 20.6146 18.2099 19.7366C18.4571 19.0802 18.4485 19.2805 18.4485 13.467C18.4485 8.36096 18.4443 8.11802 18.3676 7.95606C18.0735 7.31674 17.1571 7.24002 16.7607 7.81541L16.6371 7.99015L16.6158 13.3647C16.5945 19.2081 16.6116 18.7818 16.3644 19.2592C16.1555 19.6769 15.6185 20.0392 15.0985 20.1244C14.7661 20.1798 7.55455 20.1798 7.2221 20.1244C6.6936 20.0392 6.16936 19.6812 5.95199 19.2592C5.70905 18.7818 5.7261 19.2081 5.70479 13.3647L5.68348 7.99015L5.55988 7.81541C5.3212 7.46591 4.79269 7.32526 4.40484 7.50427Z" fill="#FF0000"/>
<path d="M8.92471 9.32396C8.73718 9.42625 8.60506 9.55837 8.51555 9.73312C8.43883 9.88656 8.43457 10.0357 8.43457 13.3389V16.7869L8.5326 16.9745C8.58801 17.0768 8.71587 17.2174 8.8139 17.2899C8.98012 17.4049 9.02701 17.4177 9.34666 17.4177C9.66632 17.4177 9.71747 17.4049 9.87517 17.2941C9.98598 17.2174 10.0925 17.0938 10.1607 16.9574L10.2673 16.74V13.3474V9.95475L10.1607 9.73738C10.0925 9.60099 9.98598 9.47739 9.87517 9.40067C9.72599 9.29412 9.65354 9.27707 9.3765 9.26429C9.14208 9.25576 9.01848 9.27281 8.92471 9.32396Z" fill="#FF0000"/>
<path d="M12.5889 9.31627C12.4014 9.40152 12.2352 9.572 12.1414 9.77658C12.0604 9.95133 12.0562 10.092 12.0562 13.3525V16.7409L12.1627 16.9583C12.3247 17.2779 12.542 17.4143 12.9256 17.4314C13.3135 17.4484 13.5479 17.3376 13.7525 17.0392L13.8889 16.8347V13.361C13.8889 9.59331 13.9017 9.78085 13.6587 9.52086C13.4371 9.27365 12.9128 9.17562 12.5889 9.31627Z" fill="#FF0000"/>
</svg>
