<svg width="22" height="23" viewBox="0 0 22 23" fill="none" xmlns="http://www.w3.org/2000/svg">
<path d="M1.50212 6.33589C1.64783 6.49874 2.06783 6.83303 3.19926 7.69874C3.35355 7.81874 3.77355 8.13589 4.12498 8.4016C4.48498 8.67589 4.80212 8.89874 4.82783 8.89874C4.86212 8.89874 4.51926 8.60731 4.06498 8.25589C3.61926 7.90446 3.23355 7.61303 3.21641 7.61303C3.19926 7.61303 3.01926 7.45874 2.81355 7.27017C2.60783 7.0816 2.39355 6.92731 2.33355 6.92731C2.28212 6.92731 2.05926 6.75589 1.84498 6.5416C1.43355 6.14731 1.21069 6.01017 1.50212 6.33589Z" fill="#EC4015"/>
<path d="M1.05639 6.56737C0.893533 6.70451 0.816391 6.90165 0.57639 7.82737C0.533533 8.01594 0.439248 8.29022 0.379248 8.42737C0.310676 8.57308 0.233533 8.98451 0.199248 9.34451C0.164962 9.71308 0.104962 9.98737 0.0621047 9.96165C0.0106762 9.92737 -0.00646669 10.4159 0.00210474 11.1617C0.0106762 11.8474 0.0449619 12.4131 0.0792476 12.4131C0.113533 12.4131 0.190676 12.7559 0.242105 13.1845C0.302105 13.6045 0.387819 13.9559 0.439248 13.9559C0.482105 13.9559 0.499248 14.0588 0.464962 14.2131C0.430676 14.3588 0.447819 14.4702 0.490676 14.4702C0.533533 14.4702 0.619248 14.6417 0.679248 14.8559C0.739248 15.0702 0.816391 15.2674 0.859248 15.2931C0.893533 15.3102 0.910676 15.3874 0.876391 15.4559C0.850676 15.5245 0.876391 15.5845 0.927819 15.5845C0.979248 15.5845 1.0221 15.6445 1.0221 15.7131C1.0221 15.9531 1.25353 15.8417 2.01639 15.2588C2.43639 14.9417 3.20782 14.3588 3.7221 13.9645C4.24496 13.5702 4.69925 13.1931 4.74211 13.1245C4.81925 12.9788 4.73353 12.2674 4.6221 12.1988C4.52782 12.1388 4.57068 10.7759 4.70782 9.85022C4.75925 9.46451 4.79353 9.13022 4.77639 9.11308C4.71639 9.06165 3.31068 7.97308 2.80496 7.58737C2.51353 7.36451 2.0421 7.00451 1.75925 6.79879C1.48496 6.58451 1.25353 6.41308 1.24496 6.41308C1.24496 6.42165 1.15925 6.48165 1.05639 6.56737Z" fill="#ECC115"/>
<path d="M10.0648 0.070188L9.55054 0.130188H10.1763C10.5105 0.130188 10.7934 0.0959023 10.7934 0.0616166C10.7934 0.0187594 10.742 -0.00695486 10.6905 0.00161656C10.6305 0.010188 10.3477 0.0359023 10.0648 0.070188Z" fill="#C14040"/>
<path d="M11.6504 0.0873546C11.6504 0.155926 12.0275 0.190212 12.4132 0.155926C12.5247 0.147355 12.6447 0.190212 12.679 0.250212C12.7218 0.310212 12.8761 0.36164 13.039 0.370212C13.3647 0.387355 13.7932 0.490212 13.9218 0.584497C13.9732 0.618783 14.2218 0.695926 14.479 0.755926C14.9332 0.858783 15.6275 1.16735 16.4761 1.63878C16.699 1.76735 16.879 1.82735 16.879 1.7845C16.879 1.69021 16.4675 1.39878 16.219 1.32164C16.1075 1.28735 16.0218 1.21878 16.0218 1.17593C16.0218 1.13307 15.9618 1.09878 15.8932 1.09878C15.7475 1.09878 15.1475 0.833069 15.0704 0.730212C15.0447 0.695926 14.959 0.687355 14.8818 0.72164C14.8047 0.747355 14.7361 0.738783 14.7361 0.687355C14.7361 0.644497 14.5904 0.575926 14.419 0.54164C14.239 0.507355 13.9818 0.430212 13.8361 0.370212C13.699 0.310212 13.4075 0.233069 13.1932 0.198783C12.2932 0.0702117 11.6504 0.0273546 11.6504 0.0873546Z" fill="#C14040"/>
<path d="M8.95044 0.241617C8.92473 0.293046 8.9933 0.327332 9.1133 0.327332C9.2333 0.327332 9.3533 0.284474 9.37901 0.241617C9.40473 0.190189 9.33616 0.155903 9.21616 0.155903C9.09616 0.155903 8.97616 0.190189 8.95044 0.241617Z" fill="#C14040"/>
<path d="M8.45342 0.370234C8.41913 0.447377 8.46199 0.46452 8.57342 0.438805C8.79628 0.378805 8.8477 0.275948 8.65056 0.267377C8.56485 0.258805 8.47056 0.301662 8.45342 0.370234Z" fill="#C14040"/>
<path d="M8.00757 0.498758C7.98186 0.541616 8.03329 0.584473 8.12757 0.584473C8.23043 0.584473 8.30757 0.541616 8.30757 0.498758C8.30757 0.44733 8.25614 0.413044 8.18757 0.413044C8.119 0.413044 8.03329 0.44733 8.00757 0.498758Z" fill="#C14040"/>
<path d="M7.60475 0.54165C7.57903 0.567365 7.4676 0.610222 7.36475 0.627365C7.25332 0.653079 7.14189 0.695936 7.11617 0.730222C7.09046 0.773079 6.85046 0.867365 6.59332 0.953079C6.07903 1.12451 5.59046 1.43308 5.83046 1.44165C6.0276 1.44165 6.5076 1.18451 6.5076 1.08165C6.5076 1.03022 6.58475 1.01308 6.67903 1.03879C6.77332 1.06451 6.85046 1.04736 6.85046 0.995936C6.85046 0.953079 6.88475 0.935936 6.9276 0.970222C6.97046 0.995936 7.03046 0.978793 7.06475 0.927365C7.09046 0.884508 7.18475 0.84165 7.27046 0.84165C7.35617 0.84165 7.51046 0.764508 7.62189 0.670222C7.73332 0.575936 7.78475 0.498793 7.73332 0.498793C7.69046 0.498793 7.63046 0.515936 7.60475 0.54165Z" fill="#C14040"/>
<path d="M5.0077 1.81019C4.29627 2.29877 4.02199 2.55591 4.21913 2.55591C4.29627 2.55591 4.36484 2.51305 4.36484 2.47019C4.36484 2.41877 4.43342 2.35019 4.51913 2.31591C4.77627 2.21305 5.65056 1.59591 5.65056 1.51877C5.65056 1.39019 5.5477 1.44162 5.0077 1.81019Z" fill="#C14040"/>
<path d="M17.2133 2.03306C17.3761 2.17878 17.5561 2.29878 17.6075 2.29878C17.7447 2.29878 18.1475 2.78735 18.1904 3.0102C18.2161 3.14735 18.2333 3.12163 18.2418 2.92449C18.2504 2.68449 18.1818 2.60735 17.7275 2.25592C17.1018 1.78449 16.8018 1.64735 17.2133 2.03306Z" fill="#C14040"/>
<path d="M3.3533 3.13021C3.01044 3.43879 2.73615 3.73021 2.73615 3.77307C2.73615 3.83307 2.65901 3.92736 2.23044 4.39879C2.05901 4.57879 1.45044 5.51307 1.45044 5.59879C1.45044 5.76164 1.64758 5.57307 1.9133 5.13593C2.0933 4.85307 2.30758 4.56164 2.40187 4.47593C2.48758 4.39879 2.56473 4.27879 2.56473 4.21879C2.56473 4.15879 2.70187 4.0045 2.86473 3.87593C3.02758 3.75593 3.14758 3.61879 3.12187 3.5845C3.09615 3.55021 3.13901 3.47307 3.20758 3.41307C3.27615 3.35307 3.33615 3.33593 3.33615 3.37021C3.33615 3.4045 3.39615 3.38736 3.46473 3.32736C3.5333 3.26736 3.57615 3.19021 3.55044 3.15593C3.52473 3.12164 3.56758 3.0445 3.63615 2.9845C3.70473 2.9245 3.76473 2.90736 3.76473 2.95021C3.76473 2.99307 3.82473 2.93307 3.90187 2.83021C4.16758 2.45307 3.96187 2.5645 3.3533 3.13021Z" fill="#C14040"/>
<path d="M17.2304 3.88453C16.8361 4.28738 16.5532 4.6131 16.6047 4.6131C16.7247 4.6131 17.8218 3.54167 17.8218 3.42167C17.8218 3.37024 17.8647 3.33596 17.9161 3.34453C17.9675 3.36167 18.0361 3.31881 18.0532 3.25881C18.139 3.01881 17.9161 3.19881 17.2304 3.88453Z" fill="#C14040"/>
<path d="M10.0219 4.66452C9.80761 4.72452 9.53332 4.77594 9.40475 4.77594C9.27618 4.78452 9.02761 4.86166 8.86475 4.95594C8.69332 5.05023 8.48761 5.14452 8.41046 5.15309C8.19618 5.18737 7.79332 5.4788 7.80189 5.59023C7.80189 5.6588 7.81904 5.65023 7.84475 5.58166C7.87046 5.53023 8.09332 5.4188 8.33332 5.33309C8.58189 5.25594 8.80475 5.15309 8.83046 5.11023C8.89046 5.01594 9.97046 4.78452 10.3476 4.78452C10.5362 4.78452 10.6219 4.75023 10.6047 4.68166C10.5533 4.53594 10.459 4.53594 10.0219 4.66452Z" fill="#C14040"/>
<path d="M10.7078 4.64733C10.7078 4.76733 11.1106 4.7759 11.2992 4.66447C11.3506 4.63019 11.3935 4.63876 11.3935 4.68162C11.3935 4.72447 11.5306 4.75876 11.6935 4.76733C12.0278 4.78447 12.0963 4.66447 11.8049 4.57876C11.4192 4.4759 10.7078 4.51876 10.7078 4.64733Z" fill="#C14040"/>
<path d="M12.3876 4.77591C12.3619 4.81877 12.5333 4.89591 12.7647 4.95591C13.0047 5.01591 13.3904 5.15306 13.6219 5.26448C13.8619 5.37591 14.0761 5.4702 14.1104 5.4702C14.1361 5.4702 14.239 5.53877 14.3247 5.61591C14.4704 5.74448 14.479 5.74448 14.4361 5.61591C14.4019 5.53877 14.2904 5.45306 14.1961 5.41877C14.0933 5.38448 13.9904 5.34163 13.9647 5.30734C13.8619 5.17877 13.3647 4.95591 13.1761 4.95591C13.0647 4.95591 12.9361 4.92163 12.8933 4.87877C12.7561 4.7502 12.439 4.6902 12.3876 4.77591Z" fill="#C14040"/>
<path d="M16.1762 4.94734C16.0134 5.09305 15.8762 5.27305 15.8762 5.3502C15.8762 5.44448 15.9876 5.37591 16.2191 5.13591C16.6219 4.70734 16.5876 4.57877 16.1762 4.94734Z" fill="#C14040"/>
<path d="M15.4219 5.68449C15.1905 5.93306 15.0276 5.9502 14.8133 5.76163C14.7276 5.68449 14.6505 5.66734 14.6162 5.71877C14.5819 5.76163 14.6419 5.82163 14.7362 5.85591C14.8305 5.88163 14.9076 5.94163 14.9076 5.98449C14.9076 6.17306 15.1733 6.11306 15.4562 5.84734C15.6276 5.68449 15.7648 5.53877 15.7648 5.51306C15.7648 5.4102 15.6105 5.48734 15.4219 5.68449Z" fill="#C14040"/>
<path d="M7.30483 5.73592C7.15054 5.83878 7.02197 5.97592 7.02197 6.05306C7.02197 6.16449 7.05626 6.15592 7.21912 6.0102C7.32197 5.91592 7.47626 5.81306 7.56197 5.78735C7.70769 5.73592 7.76769 5.55592 7.64769 5.55592C7.60483 5.55592 7.45054 5.64163 7.30483 5.73592Z" fill="#C14040"/>
<path d="M1.24479 5.8645C1.1505 6.1045 1.19336 6.19879 1.32193 6.03593C1.3905 5.94164 1.4505 5.83879 1.4505 5.79593C1.4505 5.67593 1.29621 5.71879 1.24479 5.8645Z" fill="#C14040"/>
<path d="M6.44767 6.45591C6.24196 6.67019 6.0791 6.90162 6.0791 6.97876C6.0791 7.05591 6.2591 6.91876 6.50767 6.65305C6.74767 6.40448 6.93624 6.17305 6.93624 6.13876C6.93624 5.99305 6.79053 6.08734 6.44767 6.45591Z" fill="#C14040"/>
<path d="M5.67615 7.44164C5.59044 7.63021 5.49615 7.7845 5.46186 7.7845C5.38472 7.7845 4.99901 8.48735 4.93044 8.76164C4.89615 8.89021 4.91329 8.9845 4.96472 8.9845C5.00758 8.9845 5.05044 8.9245 5.05044 8.84735C5.05044 8.77021 5.11901 8.60735 5.20472 8.48735C5.29901 8.35878 5.45329 8.07593 5.56472 7.8445C5.67615 7.62164 5.79615 7.44164 5.83044 7.44164C5.85615 7.44164 5.90758 7.3645 5.93329 7.27021C6.01044 6.96164 5.82186 7.09021 5.67615 7.44164Z" fill="#C14040"/>
<path d="M10.1506 0.13876C9.85059 0.155903 9.76488 0.190188 9.85059 0.241617C9.96202 0.310188 9.95345 0.327331 9.83345 0.327331C9.75631 0.327331 9.67916 0.275903 9.65345 0.215903C9.62773 0.13876 9.57631 0.13876 9.40488 0.224474C9.28488 0.293045 9.07059 0.31876 8.92488 0.301617C8.77059 0.275903 8.66773 0.293045 8.70202 0.335903C8.74488 0.404474 8.54773 0.455903 8.35916 0.421617C8.31631 0.413045 8.30773 0.464474 8.33345 0.533045C8.37631 0.635903 8.33345 0.644474 8.11059 0.575903C7.95631 0.533045 7.83631 0.49876 7.82773 0.49876C7.82773 0.49876 7.73345 0.575903 7.62202 0.670188C7.51059 0.764474 7.35631 0.841617 7.27916 0.841617C7.19345 0.841617 7.08202 0.901617 7.02202 0.970188C6.95345 1.04733 6.84202 1.08162 6.71345 1.04733C6.55916 1.00447 6.50773 1.03019 6.50773 1.13305C6.50773 1.21019 6.43916 1.27019 6.34488 1.27019C6.25059 1.27019 6.14773 1.31305 6.11345 1.36447C6.08773 1.4159 5.96773 1.44162 5.8563 1.4159C5.72773 1.39876 5.65059 1.42447 5.65059 1.48447C5.65059 1.58733 4.82773 2.18733 4.51916 2.3159C4.43345 2.35019 4.36488 2.41876 4.36488 2.47019C4.36488 2.51305 4.32202 2.5559 4.27059 2.5559C4.15916 2.5559 2.56488 4.14162 2.56488 4.25305C2.56488 4.2959 2.50488 4.38162 2.4363 4.44162C2.35916 4.50162 2.1963 4.7159 2.05916 4.91305C1.87059 5.1959 1.8363 5.30733 1.91345 5.38447C1.98202 5.47019 1.97345 5.48733 1.85345 5.44447C1.72488 5.39304 1.70773 5.41876 1.75059 5.58162C1.78488 5.69304 1.7763 5.72733 1.73345 5.66733C1.63916 5.53019 1.49345 5.63304 1.4163 5.88162C1.36488 6.04447 1.42488 6.14733 1.79345 6.49876C2.04202 6.73876 2.29059 6.92733 2.34202 6.92733C2.39345 6.92733 2.60773 7.08162 2.81345 7.27019C3.01916 7.45876 3.19916 7.61304 3.2163 7.61304C3.23345 7.61304 3.59345 7.87876 4.01345 8.21304C4.7763 8.81304 4.96488 8.9159 4.96488 8.69304C4.96488 8.53876 5.38488 7.78447 5.47916 7.78447C5.51345 7.78447 5.56488 7.70733 5.59059 7.60447C5.62488 7.48447 5.6763 7.45019 5.75345 7.49304C5.83916 7.54447 5.84773 7.5359 5.76202 7.43304C5.64202 7.28733 5.76202 7.09876 5.96773 7.09876C6.11345 7.09876 6.11345 6.95304 5.9763 6.90162C5.89059 6.86733 5.89059 6.85019 5.96773 6.85019C6.02773 6.84162 6.23345 6.67019 6.43059 6.4559C6.6363 6.23304 6.84202 6.07876 6.91059 6.10447C6.97059 6.13019 7.02202 6.0959 7.02202 6.0359C7.02202 5.88162 7.58773 5.52162 7.70773 5.59876C7.75059 5.62447 7.79345 5.59019 7.79345 5.52162C7.79345 5.44447 7.84488 5.38447 7.91345 5.38447C7.97345 5.38447 8.07631 5.32447 8.13631 5.2559C8.19631 5.18733 8.27345 5.15305 8.31631 5.17876C8.35916 5.20447 8.39345 5.17876 8.39345 5.12733C8.39345 5.0759 8.42773 5.05019 8.47059 5.08447C8.52202 5.11019 8.68488 5.05876 8.83916 4.97305C8.99345 4.88733 9.27631 4.79305 9.46488 4.75876C9.65345 4.73305 9.92773 4.67305 10.0649 4.63876C10.5106 4.51876 11.9077 4.55305 11.9849 4.69019C12.0277 4.75019 12.1049 4.7759 12.1563 4.75019C12.2077 4.7159 12.2506 4.73305 12.2506 4.78447C12.2506 4.84447 12.3192 4.82733 12.4392 4.75019C12.6106 4.63019 12.6449 4.63019 12.7906 4.75876C12.8763 4.84447 13.0477 4.92162 13.1763 4.93876C13.3049 4.9559 13.4934 5.02447 13.6049 5.09305C13.7163 5.17019 13.8534 5.20447 13.9134 5.18733C13.9734 5.16162 14.1363 5.27305 14.2649 5.4359C14.402 5.59876 14.5649 5.71019 14.6163 5.69304C14.6763 5.66733 14.7706 5.71019 14.822 5.77876C14.9934 5.9759 15.2163 5.9159 15.482 5.6159C15.6192 5.47019 15.902 5.18733 16.1077 5.00733C16.382 4.76733 16.4334 4.68162 16.2963 4.7159C16.1934 4.75019 16.1249 4.73305 16.1592 4.69019C16.1849 4.64733 16.2706 4.61305 16.3477 4.61305C16.5277 4.61305 18.1649 3.0359 18.1649 2.87305C18.1649 2.77876 17.6934 2.29876 17.5992 2.29876C17.5477 2.29876 17.402 2.20447 17.2734 2.08447C17.1449 1.96447 17.0077 1.87019 16.9649 1.87019C16.922 1.87019 16.6992 1.76733 16.4763 1.63876C15.6277 1.16733 14.9334 0.85876 14.4792 0.755903C14.222 0.695903 13.9734 0.61876 13.922 0.584474C13.7934 0.490188 13.3649 0.387331 13.0392 0.370188C12.8763 0.361617 12.722 0.310188 12.6877 0.250188C12.6534 0.19876 12.5077 0.155903 12.3706 0.155903C12.2334 0.164474 11.7792 0.147331 11.3506 0.13876C10.9306 0.121617 10.3906 0.121617 10.1506 0.13876Z" fill="#EC4040"/>
<path d="M3.9191 14.0159C1.5791 15.7902 1.2791 16.0216 1.23625 16.0987C1.16767 16.2102 1.45053 16.5273 1.70767 16.6302L1.92196 16.7159L1.73339 16.793C1.62196 16.8273 1.53625 16.8787 1.53625 16.8959C1.53625 16.913 1.62196 16.9216 1.73339 16.9216C1.86196 16.913 1.91339 16.9559 1.89625 17.0587C1.8791 17.1616 1.94767 17.2302 2.09339 17.2645C2.31625 17.3245 2.3591 17.4616 2.22196 17.7273C2.1191 17.9245 2.32482 18.0273 2.56482 17.8987C2.77053 17.7873 2.82196 17.7873 2.82196 17.9073C2.82196 17.9502 2.78767 17.9673 2.73625 17.9416C2.68482 17.9159 2.65053 17.933 2.65053 17.9759C2.65053 18.0273 2.72767 18.0702 2.81339 18.0702C2.92482 18.0702 2.96767 18.1216 2.95053 18.2159C2.93339 18.3016 2.91625 18.3873 2.91625 18.413C2.90767 18.4387 2.86482 18.3959 2.82196 18.3273C2.76196 18.2416 2.73625 18.233 2.73625 18.3102C2.73625 18.3702 2.78767 18.4387 2.85625 18.4645C2.92482 18.4902 3.00196 18.593 3.02767 18.6959C3.07053 18.8416 3.09625 18.8587 3.15625 18.773C3.20767 18.6787 3.24196 18.6959 3.27625 18.833C3.30196 18.953 3.28482 18.9959 3.22482 18.9616C3.16482 18.9273 3.20767 18.9959 3.3191 19.1073C3.48196 19.2787 3.52482 19.2959 3.59339 19.1845C3.66196 19.0816 3.6791 19.1073 3.6791 19.2787C3.6791 19.4245 3.75625 19.5616 3.89339 19.6473C4.02196 19.733 4.0991 19.7502 4.09053 19.6902C4.07339 19.6387 4.11625 19.5702 4.18482 19.5445C4.27053 19.5187 4.28767 19.5445 4.25339 19.6473C4.2191 19.733 4.24482 19.7845 4.32196 19.7845C4.3991 19.7845 4.42482 19.733 4.3991 19.6302C4.36482 19.5187 4.39053 19.5273 4.5191 19.673C4.61339 19.7759 4.70767 19.8359 4.74196 19.8102C4.76767 19.7759 4.79339 19.8016 4.79339 19.8616C4.79339 19.9302 4.73339 19.9473 4.62196 19.913C4.5191 19.8787 4.45053 19.8959 4.45053 19.9559C4.45053 20.0073 4.49339 20.0245 4.53625 19.9987C4.58767 19.973 4.62196 19.9816 4.62196 20.0245C4.62196 20.0673 4.71625 20.1102 4.83625 20.1187C5.2991 20.1445 5.30767 20.153 5.30767 20.4187C5.30767 20.5987 5.33339 20.6502 5.38482 20.5645C5.44482 20.4702 5.49625 20.4873 5.64196 20.633C5.74482 20.7359 5.80482 20.8645 5.77053 20.9245C5.73625 20.9845 5.7791 20.9587 5.87339 20.8816C5.98482 20.7873 6.11339 20.753 6.24196 20.7873C6.3791 20.8216 6.43053 20.813 6.38767 20.7445C6.33625 20.6502 6.57625 20.4702 6.75625 20.4702C6.93625 20.4702 6.85053 20.7187 6.66196 20.7445C6.55053 20.7616 6.46482 20.8302 6.46482 20.8987C6.46482 20.9673 6.43053 21.0702 6.40482 21.1216C6.31053 21.2673 6.40482 21.3187 6.7391 21.2759C6.99625 21.2416 7.03053 21.2587 6.98767 21.3873C6.95339 21.473 6.95339 21.5073 6.98767 21.4816C7.01339 21.4473 7.15053 21.473 7.28767 21.5502C7.56196 21.6873 7.67339 21.6959 7.6391 21.5673C7.62196 21.5159 7.68196 21.4987 7.76767 21.533C7.84482 21.5673 7.88767 21.5587 7.84482 21.5245C7.81053 21.4902 7.6991 21.4559 7.59625 21.4559C7.50196 21.4559 7.40767 21.413 7.39053 21.3616C7.37339 21.3016 7.4591 21.2845 7.62196 21.3102C7.87053 21.3445 7.91339 21.3959 7.88767 21.6787C7.8791 21.7645 7.9391 21.8159 8.02482 21.8159C8.34196 21.8159 8.40196 21.8416 8.34196 21.9445C8.2991 22.0216 8.32482 22.013 8.42767 21.9359C8.5391 21.8416 8.54767 21.7987 8.46196 21.7473C8.41053 21.713 8.32482 21.7045 8.28196 21.7302C8.2391 21.7559 8.21339 21.7302 8.2391 21.6616C8.29053 21.5073 8.64196 21.4559 8.76196 21.5759C8.83053 21.6445 8.82196 21.6702 8.74482 21.6702C8.68482 21.6702 8.6591 21.7045 8.68482 21.7387C8.75339 21.8587 9.10482 21.7987 9.14767 21.6616C9.17339 21.5587 9.16482 21.5587 9.09625 21.6616C9.04482 21.7302 8.99339 21.7387 8.9591 21.6873C8.89053 21.5759 9.07053 21.5159 9.27625 21.5673C9.37053 21.593 9.39625 21.6359 9.34482 21.6616C9.29339 21.6959 9.27625 21.7987 9.30196 21.9016C9.34482 22.0559 9.39625 22.073 9.69625 22.0302C9.92767 22.0045 10.0648 22.0216 10.1077 22.0987C10.1505 22.1759 10.4591 22.2102 11.1105 22.2187C11.8991 22.2273 12.0534 22.2102 12.0448 22.0987C12.0362 21.9616 12.3448 21.9702 12.4305 22.1159C12.482 22.2016 12.8334 22.1759 13.0048 22.073C13.0562 22.0302 13.142 22.0302 13.1934 22.0559C13.2448 22.0902 13.2534 22.0473 13.2191 21.9616C13.1762 21.8416 13.1934 21.8245 13.3305 21.8673C13.4848 21.9273 13.4848 21.9187 13.322 21.7902C13.1505 21.653 13.1505 21.653 13.3477 21.6959C13.4505 21.7216 13.5362 21.7045 13.5362 21.653C13.5362 21.6102 13.4334 21.5845 13.3048 21.6016C13.1162 21.6187 13.0734 21.6702 13.0905 21.7987C13.1162 21.9359 13.0991 21.9445 13.0134 21.8673C12.9277 21.7816 12.9277 21.7387 13.022 21.6273C13.1762 21.4387 13.5448 21.4645 13.5962 21.6702C13.6477 21.8587 13.7505 21.893 13.8362 21.7559C13.8705 21.7045 13.9648 21.6873 14.0505 21.713C14.1448 21.7387 14.222 21.713 14.2562 21.6273C14.282 21.5587 14.3934 21.4987 14.4962 21.4987C14.6591 21.4987 14.6677 21.5159 14.5648 21.5845C14.4534 21.653 14.462 21.6702 14.5905 21.6702C14.6677 21.6702 14.7362 21.6273 14.7362 21.5759C14.7362 21.533 14.7705 21.5073 14.8134 21.5416C14.8562 21.5673 14.9162 21.5502 14.9505 21.4987C14.9848 21.4473 15.0448 21.4302 15.0877 21.4559C15.1305 21.4902 15.1648 21.4216 15.1648 21.3102C15.1734 21.1216 15.1734 21.1216 15.2934 21.2759C15.4048 21.4216 15.422 21.4216 15.4734 21.3016C15.4991 21.2245 15.5591 21.1816 15.602 21.2073C15.6448 21.233 15.6791 21.1987 15.6791 21.1387C15.6791 21.0616 15.7048 21.0616 15.7648 21.1559C15.8334 21.2673 15.8505 21.2673 15.8505 21.1473C15.8505 21.0702 15.7905 20.9587 15.722 20.8987C15.6105 20.8045 15.602 20.813 15.6448 20.933C15.7134 21.1216 15.3962 21.1216 15.242 20.9245C15.1562 20.8216 15.1562 20.7959 15.2334 20.8473C15.3791 20.933 15.6191 20.6759 15.5591 20.4873C15.5334 20.393 15.5591 20.4102 15.6448 20.5387C15.722 20.6416 15.8334 20.7273 15.902 20.7273C15.9705 20.7273 15.9962 20.7787 15.9705 20.8559C15.9362 20.9245 15.962 20.9845 16.0134 20.9845C16.0648 20.9845 16.1077 20.9502 16.1077 20.9073C16.1077 20.8645 16.1934 20.8473 16.3048 20.873C16.4848 20.9159 16.4848 20.9159 16.2791 20.7187C16.1591 20.6073 16.1077 20.5473 16.1762 20.5987C16.262 20.6502 16.3305 20.633 16.4077 20.5216C16.4934 20.4187 16.5791 20.3845 16.7162 20.4273C16.862 20.4787 16.8791 20.5045 16.7848 20.5645C16.7162 20.6073 16.7077 20.6416 16.7505 20.6416C16.802 20.6416 16.9477 20.5473 17.0848 20.4273C17.222 20.3073 17.3591 20.213 17.3934 20.213C17.5048 20.213 17.9077 19.7673 17.9077 19.6387C17.9077 19.5702 17.8648 19.5445 17.8048 19.5787C17.7448 19.6216 17.7277 19.5959 17.762 19.5016C17.8305 19.3216 17.6334 19.1502 17.4962 19.2873C17.3334 19.4502 17.1105 19.2959 17.162 19.0473C17.1877 18.8759 17.1362 18.7902 16.8962 18.6016L16.5962 18.3702L16.4677 18.5673C16.3391 18.7645 16.1077 18.8245 16.1077 18.6702C16.1077 18.6187 16.1677 18.5587 16.2362 18.533C16.3048 18.4987 16.3648 18.4302 16.3648 18.3616C16.3648 18.293 16.3048 18.2416 16.2362 18.2416C16.1677 18.2416 16.1077 18.1816 16.1077 18.113C16.1077 18.0359 16.022 17.9502 15.9191 17.9073C15.8077 17.8645 15.6277 17.7273 15.5162 17.6073C15.2762 17.3502 15.1905 17.3416 14.8562 17.513C14.4534 17.7187 14.3334 17.6759 14.2648 17.2987C14.2477 17.2045 14.2648 17.1273 14.3162 17.1273C14.3591 17.1273 14.3934 17.1787 14.402 17.2302C14.402 17.2902 14.4362 17.2645 14.4791 17.1702C14.522 17.0759 14.5562 17.0502 14.5562 17.1016C14.5648 17.1702 14.6762 17.213 14.8477 17.213L15.122 17.2045L14.8734 17.0073C14.6677 16.8359 14.5991 16.8187 14.3848 16.8959C14.2477 16.9559 14.1362 17.0587 14.1362 17.1359C14.1362 17.2645 14.0762 17.3245 13.862 17.3759C13.8277 17.393 13.6048 17.4702 13.3648 17.5559C13.1334 17.6416 12.9534 17.6759 12.9877 17.633C13.0134 17.5902 12.9791 17.5559 12.902 17.5559C12.8334 17.5559 12.7648 17.513 12.7477 17.4616C12.7305 17.4102 12.6362 17.4445 12.5248 17.5387C12.3448 17.693 12.302 17.7016 11.9505 17.5902C11.6334 17.4959 11.5562 17.4959 11.5048 17.5987C11.4105 17.753 10.802 17.7959 10.7162 17.6502C10.6562 17.5559 10.5877 17.5559 10.3134 17.6502C10.1248 17.7102 9.89339 17.753 9.79053 17.7445C9.6791 17.7359 9.59339 17.7702 9.59339 17.8216C9.59339 17.873 9.53339 17.8473 9.45625 17.7702C9.3791 17.7016 9.34482 17.5816 9.37053 17.513C9.4391 17.3245 9.25053 17.2645 9.12196 17.4359C9.06196 17.5302 8.97625 17.5645 8.94196 17.5302C8.8991 17.4959 8.92482 17.4187 8.99339 17.3759C9.09625 17.3073 9.08767 17.2987 8.95053 17.3159C8.84767 17.333 8.78767 17.4102 8.79625 17.5045C8.80482 17.6502 8.79625 17.6502 8.66767 17.5216C8.5391 17.4016 8.5391 17.3673 8.64196 17.2987C8.86482 17.1616 8.59053 16.9559 8.25625 16.9987C7.98196 17.033 7.92196 16.9816 7.95625 16.7587C7.96482 16.7159 7.93053 16.7073 7.8791 16.7416C7.83625 16.7673 7.79339 16.7502 7.79339 16.7073C7.79339 16.5787 7.53625 16.5873 7.52767 16.7159C7.52767 16.7759 7.49339 16.7416 7.45053 16.6302C7.40767 16.5273 7.30482 16.4502 7.2191 16.4502C7.07339 16.4587 7.07339 16.4673 7.2191 16.5016C7.29625 16.5187 7.36482 16.5959 7.36482 16.6559C7.36482 16.7502 7.31339 16.7587 7.15053 16.6987C7.01339 16.6473 6.93625 16.6473 6.93625 16.6987C6.93625 16.7502 6.99625 16.7845 7.07339 16.7845C7.14196 16.7845 7.18482 16.8187 7.15053 16.8702C7.11625 16.9216 7.02196 16.9216 6.89339 16.8702C6.7391 16.8102 6.6791 16.8187 6.6791 16.8873C6.6791 16.9387 6.66196 16.9645 6.63625 16.9473C6.5591 16.8616 6.70482 16.5273 6.7991 16.5787C6.85053 16.6045 6.81625 16.5616 6.73053 16.493C6.63625 16.4159 6.59339 16.3559 6.62767 16.3559C6.67053 16.3559 6.63625 16.2616 6.56767 16.1502C6.36196 15.8416 6.49053 15.8159 6.75625 16.1159C6.90196 16.2787 7.04767 16.3645 7.15053 16.3387C7.28767 16.313 7.26196 16.2787 7.00482 16.1502C6.83339 16.0645 6.67053 15.9445 6.64482 15.8759C6.6191 15.8073 6.54196 15.7816 6.44767 15.8159C6.31053 15.8673 6.31053 15.8587 6.41339 15.7302C6.49053 15.6273 6.4991 15.5845 6.43053 15.5845C6.37053 15.5845 6.34482 15.5502 6.37053 15.5073C6.39625 15.473 6.3191 15.3959 6.20767 15.3445C6.08767 15.2845 5.99339 15.1902 5.99339 15.1216C5.99339 15.0616 5.93339 14.9587 5.86482 14.8987C5.78767 14.8387 5.67625 14.6673 5.5991 14.513C5.43625 14.153 5.1191 14.0845 4.69053 14.2902C4.41625 14.4187 4.34767 14.4273 4.27053 14.333C4.2191 14.2645 4.10767 14.213 4.0391 14.213C3.93625 14.213 3.92767 14.1873 3.99625 14.1187C4.11625 13.9987 4.41625 14.0587 4.39053 14.1959C4.35625 14.3502 4.47625 14.3245 4.80196 14.1016C4.99053 13.973 5.08482 13.8445 5.06767 13.733C5.0591 13.6473 5.04196 13.5016 5.03339 13.4159C5.02482 13.3387 4.99053 13.2702 4.96482 13.2702C4.93053 13.2702 4.46767 13.6045 3.9191 14.0159ZM4.64767 13.7587C4.71625 13.8187 4.55339 14.0416 4.44196 14.0416C4.40767 14.0416 4.38196 13.9645 4.39053 13.8702C4.3991 13.6987 4.53625 13.6387 4.64767 13.7587ZM3.6791 14.8902C3.6791 15.053 3.70482 15.0702 3.7991 14.9845C3.90196 14.9073 3.92767 14.9159 3.91053 15.053C3.90196 15.1987 3.87625 15.2073 3.70482 15.1302C3.53339 15.053 3.48196 15.0702 3.3791 15.2159C3.23339 15.4302 2.65053 15.7902 2.65053 15.6702C2.65053 15.5245 2.92482 15.2245 3.42196 14.8216C3.6191 14.6587 3.6191 14.6502 3.46482 14.6416C3.32767 14.6416 3.3191 14.6245 3.42196 14.5559C3.57625 14.4616 3.6791 14.5987 3.6791 14.8902ZM5.90767 15.3273C5.90767 15.3702 5.86482 15.413 5.81339 15.413C5.77053 15.413 5.75339 15.4559 5.7791 15.4987C5.81339 15.5587 5.88196 15.5587 5.99339 15.4987C6.10482 15.4387 6.17339 15.4387 6.21625 15.5159C6.25053 15.5673 6.24196 15.5845 6.18196 15.5502C6.13053 15.5245 6.03625 15.5587 5.96767 15.6273C5.89053 15.6959 5.77053 15.7302 5.70196 15.7045C5.5391 15.6445 5.5391 15.6273 5.66767 15.413C5.78767 15.233 5.90767 15.1902 5.90767 15.3273ZM3.90196 15.6187C4.03053 15.7216 4.04767 15.7645 3.95339 15.8587C3.82482 15.9873 3.56767 15.8587 3.52482 15.6359C3.49053 15.4645 3.6791 15.4559 3.90196 15.6187ZM2.08482 15.7216C2.27339 15.7902 2.25625 16.013 2.06767 16.013C1.98196 16.013 1.87053 16.0559 1.81053 16.1159C1.73339 16.193 1.70767 16.193 1.70767 16.1245C1.70767 16.0645 1.78482 15.9959 1.88767 15.9702C2.02482 15.9273 2.04196 15.8845 1.95625 15.7902C1.84482 15.6616 1.8791 15.6445 2.08482 15.7216ZM3.25053 16.0559C3.25053 16.1845 2.88196 16.1587 2.8391 16.0302C2.81339 15.9445 2.87339 15.9187 3.02767 15.9445C3.15625 15.9616 3.25053 16.0045 3.25053 16.0559ZM2.22196 16.2187C2.22196 16.3816 2.10196 16.4587 1.93053 16.3902C1.80196 16.3387 1.80196 16.3216 1.9391 16.2187C2.13625 16.073 2.22196 16.073 2.22196 16.2187ZM7.55339 17.4873C7.41625 17.6245 7.23625 17.453 7.31339 17.2473C7.36482 17.1102 7.38196 17.1102 7.51053 17.2387C7.62196 17.3502 7.6391 17.4016 7.55339 17.4873ZM8.13625 17.2987C8.13625 17.3416 8.0591 17.3845 7.96482 17.3845C7.87053 17.3845 7.79339 17.3416 7.79339 17.2987C7.79339 17.2473 7.87053 17.213 7.96482 17.213C8.0591 17.213 8.13625 17.2473 8.13625 17.2987ZM8.30767 17.7702C8.30767 17.8473 8.23053 17.8987 8.09339 17.8987C7.95625 17.8987 7.8791 17.8473 7.8791 17.7702C7.8791 17.693 7.95625 17.6416 8.09339 17.6416C8.23053 17.6416 8.30767 17.693 8.30767 17.7702ZM3.46482 17.9073C3.4991 17.9587 3.50767 18.0187 3.48196 18.0359C3.42196 18.1045 2.99339 17.9759 2.99339 17.8902C2.99339 17.7787 3.39625 17.7959 3.46482 17.9073ZM3.9791 18.3187C4.0391 18.5159 3.94482 18.773 3.81625 18.7302C3.66196 18.6787 3.64482 18.1559 3.7991 18.1559C3.86767 18.1559 3.94482 18.2245 3.9791 18.3187ZM16.7762 18.8245C16.7934 18.8845 16.7505 18.9273 16.682 18.9273C16.6048 18.9273 16.5362 18.9787 16.5105 19.0302C16.4934 19.0902 16.4505 19.1159 16.4162 19.0816C16.322 19.0045 16.5277 18.653 16.6477 18.6959C16.6991 18.713 16.7591 18.773 16.7762 18.8245ZM5.61625 19.8445C5.58196 19.8787 5.52196 19.8616 5.48767 19.793C5.42767 19.7073 5.40196 19.7159 5.36767 19.8187C5.33339 19.8959 5.27339 19.9559 5.22196 19.9559C5.17053 19.9559 5.18767 19.8959 5.25625 19.8187C5.33339 19.7502 5.39339 19.6387 5.39339 19.5873C5.39339 19.5359 5.45339 19.553 5.5391 19.6387C5.61625 19.7159 5.65053 19.8102 5.61625 19.8445ZM17.5562 19.6473C17.6334 19.7416 17.6077 19.7587 17.4362 19.7587C17.2648 19.7587 17.2391 19.7416 17.3162 19.6473C17.3677 19.5787 17.4277 19.5273 17.4362 19.5273C17.4448 19.5273 17.5048 19.5787 17.5562 19.6473ZM6.72196 19.6987C6.74767 19.7502 6.72196 19.8359 6.66196 19.8959C6.52482 20.033 5.90767 20.2216 5.80482 20.1616C5.6591 20.0673 5.74482 19.9559 5.95053 19.9559C6.07053 19.9559 6.25053 19.8787 6.35339 19.7845C6.5591 19.5959 6.64482 19.5702 6.72196 19.6987ZM17.0077 19.9045C17.162 19.8702 17.2048 19.8873 17.1962 20.0159C17.1877 20.1016 17.1448 20.1959 17.0934 20.2302C16.9648 20.3245 16.7762 20.3159 16.8362 20.213C16.862 20.1616 16.8277 20.1273 16.7591 20.1273C16.5791 20.1273 16.4934 19.9473 16.6305 19.8616C16.6991 19.8187 16.7591 19.8273 16.7762 19.8702C16.7934 19.9216 16.8962 19.9302 17.0077 19.9045ZM7.2791 20.693C7.2791 20.7616 7.24482 20.7959 7.19339 20.7702C7.15053 20.7445 7.10767 20.6587 7.10767 20.5902C7.10767 20.5216 7.15053 20.4873 7.19339 20.513C7.24482 20.5387 7.2791 20.6245 7.2791 20.693ZM8.97625 21.3873C8.92482 21.4473 8.85625 21.473 8.81339 21.4473C8.68482 21.3702 8.72767 21.2759 8.8991 21.2759C9.02767 21.2759 9.04482 21.3016 8.97625 21.3873ZM10.4077 21.4216C10.3648 21.4816 10.4677 21.4902 10.742 21.4559C11.0591 21.4045 11.1277 21.413 11.0934 21.5073C11.0591 21.593 10.9134 21.6187 10.562 21.593C10.1162 21.5673 10.082 21.5587 10.2362 21.4473C10.4334 21.3016 10.4762 21.293 10.4077 21.4216ZM12.8248 21.6016C12.7734 21.6787 12.7048 21.713 12.6791 21.6787C12.6534 21.6359 12.542 21.6102 12.4305 21.6187C12.3191 21.6187 12.2077 21.5845 12.1905 21.5416C12.1734 21.4902 12.3191 21.4473 12.542 21.4473C12.8762 21.4473 12.902 21.4645 12.8248 21.6016ZM12.0791 21.5845C12.0791 21.6273 12.002 21.6702 11.9077 21.6702C11.8134 21.6702 11.7362 21.6273 11.7362 21.5845C11.7362 21.533 11.8134 21.4987 11.9077 21.4987C12.002 21.4987 12.0791 21.533 12.0791 21.5845ZM10.802 21.9702C10.802 22.013 10.742 22.073 10.6648 22.0816C10.4677 22.1245 10.262 22.0302 10.322 21.9187C10.3905 21.8073 10.802 21.8502 10.802 21.9702ZM11.6505 21.9273C11.4791 22.0387 11.0505 22.0387 11.0505 21.9273C11.0505 21.8759 11.2134 21.8416 11.4191 21.8416C11.6848 21.8416 11.7448 21.8673 11.6505 21.9273Z" fill="#409640"/>
<path d="M9.50774 17.4702C9.41346 17.5302 9.40488 17.573 9.47346 17.6416C9.54203 17.7102 9.59346 17.7102 9.62774 17.6502C9.66203 17.6073 9.73917 17.5816 9.80774 17.6159C9.87631 17.6416 9.93631 17.6245 9.93631 17.573C9.93631 17.5302 9.87631 17.4616 9.79917 17.4359C9.63631 17.3759 9.66203 17.3673 9.50774 17.4702Z" fill="#409640"/>
<path d="M14.7877 16.6988C14.8648 16.8359 15.0877 17.033 15.7134 17.513C15.9534 17.693 16.1848 17.873 16.2277 17.9159C16.8791 18.4473 18.1048 19.3645 18.1305 19.3302C18.1648 19.2959 17.8562 19.0559 15.9362 17.5988C15.5848 17.333 15.1648 16.9902 15.002 16.8445C14.8391 16.6902 14.7448 16.6302 14.7877 16.6988Z" fill="#409696"/>
<path d="M12.8762 9.13021C12.9534 9.14735 13.0905 9.14735 13.1762 9.13021C13.2534 9.10449 13.1848 9.08735 13.0219 9.08735C12.8591 9.08735 12.7905 9.10449 12.8762 9.13021Z" fill="#4096C1"/>
<path d="M14.6334 9.13021C14.7362 9.14735 14.9077 9.14735 15.0191 9.13021C15.122 9.11307 15.0362 9.09592 14.822 9.09592C14.6077 9.09592 14.522 9.11307 14.6334 9.13021Z" fill="#4096C1"/>
<path d="M16.0048 9.13021C16.1077 9.14735 16.262 9.14735 16.3477 9.13021C16.4248 9.10449 16.3391 9.08735 16.1506 9.09592C15.962 9.09592 15.8934 9.11307 16.0048 9.13021Z" fill="#4096C1"/>
<path d="M19.0048 9.13021C19.1591 9.14735 19.3905 9.14735 19.5191 9.13021C19.6476 9.11307 19.5191 9.09592 19.2362 9.09592C18.9533 9.09592 18.8505 9.11307 19.0048 9.13021Z" fill="#4096C1"/>
<path d="M21.4219 12.6273C21.4219 12.6959 21.4647 12.7559 21.5076 12.7559C21.559 12.7559 21.5933 12.6959 21.5933 12.6273C21.5933 12.5588 21.559 12.4988 21.5076 12.4988C21.4647 12.4988 21.4219 12.5588 21.4219 12.6273Z" fill="#4096C1"/>
<path d="M14.882 16.5102C14.7448 16.5702 14.762 16.6045 15.0105 16.8445C15.1648 16.9902 15.542 17.2988 15.8505 17.5302C16.1591 17.7616 16.8191 18.2674 17.3334 18.6616C17.9077 19.1074 18.3105 19.3559 18.4048 19.3302C18.5334 19.2959 18.5334 19.2874 18.3877 19.2788C18.302 19.2788 18.0534 19.1245 17.8305 18.9445C17.6163 18.7645 17.2991 18.5245 17.1363 18.4045C16.9734 18.2931 16.7763 18.1388 16.6991 18.0702C16.622 18.0016 16.2105 17.6674 15.7734 17.3416C15.1991 16.9045 14.9934 16.6988 15.0277 16.5874C15.0448 16.5102 15.0534 16.4416 15.0534 16.4502C15.0448 16.4502 14.9677 16.4845 14.882 16.5102Z" fill="#4096C1"/>
<path d="M11.6248 9.19019C11.6505 9.23305 11.6248 9.25019 11.5563 9.22447C11.2734 9.13019 11.1963 9.3959 11.2048 10.4673C11.2048 11.1788 11.1791 11.5302 11.1105 11.573C11.0334 11.6245 11.0334 11.6416 11.1191 11.6416C11.1963 11.6416 11.222 11.8645 11.222 12.4559C11.222 13.1245 11.2477 13.2873 11.3591 13.3302C11.4363 13.3559 11.5305 13.3302 11.5648 13.2702C11.6077 13.2016 11.6934 13.1845 11.7877 13.2188C11.882 13.253 13.0305 13.2788 14.3591 13.2702C16.7163 13.2616 17.1963 13.2959 16.9477 13.4502C16.8534 13.5188 16.8534 13.5359 16.9563 13.6045C17.0848 13.6816 17.0163 14.0416 16.8705 14.0416C16.8191 14.0416 16.8105 14.0759 16.8363 14.1273C16.862 14.1702 16.8534 14.213 16.8191 14.213C16.7763 14.213 16.7334 14.3159 16.7248 14.4445C16.7163 14.5645 16.6477 14.7359 16.5705 14.8216C16.502 14.8988 16.4077 15.0788 16.3734 15.2073C16.3391 15.3616 16.2363 15.473 16.0991 15.5073C15.9877 15.5416 15.9448 15.5673 16.0048 15.5759C16.0905 15.5845 16.0648 15.653 15.9448 15.833C15.842 15.9702 15.7648 16.1245 15.7648 16.1845C15.7648 16.2359 15.7305 16.2616 15.6877 16.2273C15.5763 16.1673 14.9934 16.5188 14.9934 16.6473C14.9934 16.6988 15.3448 17.0159 15.782 17.3416C16.2105 17.6759 16.622 18.0016 16.6991 18.0702C16.7763 18.1388 16.9734 18.293 17.1363 18.4045C17.2991 18.5245 17.6163 18.7645 17.8391 18.9445C18.1648 19.2102 18.2591 19.253 18.3534 19.1673C18.4134 19.1073 18.602 18.9445 18.7648 18.8073C18.9277 18.6702 19.0648 18.533 19.0648 18.5073C19.0734 18.4816 19.1763 18.293 19.3048 18.0873C19.4763 17.8302 19.5877 17.7273 19.682 17.7616C19.7763 17.8045 19.802 17.7788 19.7591 17.6845C19.7334 17.6073 19.7677 17.5302 19.8363 17.5045C19.9048 17.4702 19.9648 17.4016 19.9648 17.333C19.9648 17.2645 20.0077 17.213 20.0591 17.213C20.102 17.213 20.1277 17.1788 20.102 17.1359C20.0248 17.0245 20.1877 16.6473 20.3934 16.4416C20.4877 16.3473 20.5305 16.2702 20.4877 16.2702C20.4448 16.2702 20.4277 16.193 20.4534 16.0988C20.4791 16.0045 20.5391 15.9273 20.582 15.9273C20.6248 15.9273 20.6334 15.8845 20.6077 15.8416C20.582 15.7902 20.6248 15.653 20.7191 15.5159C20.8134 15.3873 20.9163 15.0873 20.9505 14.8559C20.9848 14.6159 21.0705 14.3588 21.1391 14.273C21.2505 14.153 21.2591 14.1273 21.1563 14.1273C21.0791 14.1188 21.1134 14.0588 21.242 13.9559C21.3534 13.8616 21.3963 13.7845 21.3448 13.7845C21.2848 13.7845 21.2677 13.7416 21.2934 13.6988C21.3191 13.6473 21.3448 13.3645 21.3448 13.0559C21.3448 12.6788 21.3791 12.4988 21.4477 12.4988C21.5077 12.4988 21.5505 12.4045 21.5505 12.2845C21.5505 12.1645 21.5248 12.0702 21.4991 12.0702C21.4048 12.0702 21.4563 10.4073 21.5505 10.3302C21.602 10.2959 21.602 10.2445 21.5334 10.2016C21.3963 10.1159 21.302 9.6959 21.4134 9.6359C21.4648 9.60162 21.4391 9.5159 21.3277 9.40447C21.2334 9.31019 21.122 9.25876 21.0791 9.28447C21.0448 9.31019 20.9505 9.26733 20.8734 9.19876C20.7877 9.10447 20.7277 9.0959 20.6848 9.16447C20.6505 9.23305 20.6077 9.22447 20.5563 9.14733C20.5134 9.07876 20.4791 9.06162 20.4791 9.11305C20.4791 9.16447 20.0505 9.19876 19.3648 9.19876C18.7563 9.19876 18.2505 9.17305 18.2505 9.13019C18.2505 9.02733 18.0105 9.06162 17.9677 9.17305C17.942 9.24162 17.9163 9.25019 17.9163 9.19019C17.9077 9.07019 17.462 9.13876 17.3763 9.2759C17.3334 9.34447 17.3077 9.3359 17.3077 9.25876C17.3077 9.20733 17.2477 9.1559 17.1791 9.1559C17.1105 9.1559 17.0505 9.20733 17.0505 9.25876C17.0505 9.31876 17.0077 9.30162 16.9563 9.2159C16.8534 9.0359 16.5963 9.02733 16.4163 9.19876C16.3305 9.28447 16.2705 9.30162 16.2277 9.23305C16.202 9.18162 16.0391 9.1559 15.8848 9.17305C15.722 9.19019 15.5934 9.18162 15.5934 9.1559C15.5934 9.13019 15.5163 9.10447 15.422 9.10447C15.3277 9.10447 15.2505 9.13019 15.2505 9.1559C15.2505 9.20733 14.4791 9.19019 13.8791 9.12162C13.6563 9.0959 13.562 9.11305 13.6563 9.14733C13.7848 9.19876 13.802 9.22447 13.7077 9.28447C13.6391 9.32733 13.562 9.31019 13.502 9.23305C13.4334 9.14733 13.1763 9.11305 12.4905 9.11305C11.9934 9.11305 11.5991 9.14733 11.6248 9.19019Z" fill="#4096EC"/>
</svg>
