<svg width="24" height="24" viewBox="0 0 24 24" fill="none" xmlns="http://www.w3.org/2000/svg">
<path d="M8.74951 8.75037V6.87537C8.74951 6.37809 8.94706 5.90117 9.29869 5.54954C9.65032 5.19791 10.1272 5.00037 10.6245 5.00037L19.6245 5.00037C20.1218 5.00037 20.5987 5.19791 20.9503 5.54954C21.302 5.90117 21.4995 6.37809 21.4995 6.87537V18.1254C21.4995 18.6226 21.302 19.0996 20.9503 19.4512C20.5987 19.8028 20.1218 20.0004 19.6245 20.0004H10.6245C10.1272 20.0004 9.65032 19.8028 9.29869 19.4512C8.94706 19.0996 8.74951 18.6226 8.74951 18.1254V16.2504M5.74951 8.75037L1.99951 12.5004M1.99951 12.5004L5.74951 16.2504M1.99951 12.5004H14.7964" stroke="#FA610E" stroke-width="1.5" stroke-linecap="round" stroke-linejoin="round"/>
</svg>
