<svg width="24" height="24" viewBox="0 0 24 24" fill="none" xmlns="http://www.w3.org/2000/svg">
<path d="M11.3046 3.04023C10.5021 3.1121 9.45599 3.34367 8.71735 3.61518C8.12643 3.83078 7.09233 4.35382 6.58126 4.69719C3.99401 6.42203 2.34104 9.14504 2.0336 12.1914C1.96972 12.8023 2.00166 14.2517 2.0895 14.8146C2.4169 16.8908 3.38712 18.8512 4.82448 20.3365C5.08001 20.6 5.25569 20.6719 5.49525 20.608C5.61503 20.5761 5.82265 20.3924 6.48943 19.7176C6.95657 19.2505 7.35584 18.8273 7.3798 18.7794C7.40375 18.7315 7.42372 18.6117 7.42372 18.5119C7.42372 18.1765 7.11229 17.9569 6.76493 18.0527C6.64115 18.0886 6.47346 18.2284 5.97837 18.7195C5.61503 19.0748 5.33155 19.3264 5.31558 19.3024C4.70071 18.5797 4.31342 17.9968 3.92613 17.2102C3.51888 16.3718 3.18349 15.2179 3.09166 14.3156C3.07968 14.1838 3.05972 14.0081 3.04774 13.9243L3.02378 13.7765H3.91016C4.88437 13.7765 4.99218 13.7566 5.14789 13.537C5.24371 13.4012 5.2517 13.1417 5.16785 12.978C5.05207 12.7544 4.96423 12.7384 3.95009 12.7384H3.02778L3.05173 12.5069C3.27133 10.4906 3.97005 8.77771 5.1399 7.40024L5.3595 7.14071L5.98236 7.76357C6.32573 8.10295 6.66112 8.4024 6.725 8.42635C6.92463 8.50221 7.1602 8.44232 7.29994 8.28262C7.39976 8.17082 7.42372 8.11093 7.42372 7.95122C7.42372 7.70368 7.34786 7.60386 6.65313 6.91313L6.11013 6.37811L6.37364 6.1625C7.815 4.98067 9.59174 4.24602 11.3884 4.09031L11.6959 4.06635V4.97668C11.6959 5.81115 11.7039 5.90298 11.7757 6.01877C11.8157 6.09064 11.9075 6.17448 11.9714 6.21042C12.2149 6.33419 12.5144 6.25434 12.6541 6.01877C12.726 5.90298 12.734 5.81115 12.734 4.97668V4.06635L13.0454 4.09031C14.8341 4.24602 16.6189 4.98466 18.0562 6.1625L18.3197 6.37811L17.7767 6.91313C17.082 7.60386 17.0061 7.70368 17.0061 7.95122C17.0061 8.11093 17.0301 8.17082 17.1299 8.28262C17.2697 8.44232 17.5052 8.50221 17.7049 8.42635C17.7727 8.4024 18.1041 8.10295 18.4475 7.76357L19.0704 7.14071L19.29 7.40024C20.4598 8.77771 21.1585 10.4906 21.3781 12.5069L21.4021 12.7384H20.4798C19.4656 12.7384 19.3778 12.7544 19.262 12.978C19.1782 13.1417 19.1862 13.4012 19.282 13.537C19.4377 13.7566 19.5455 13.7765 20.5197 13.7765H21.4061L21.3821 13.9243C21.3701 14.0081 21.3502 14.1838 21.3382 14.3156C21.2464 15.2179 20.911 16.3718 20.5037 17.2102C20.1164 17.9968 19.7292 18.5797 19.1143 19.3024C19.0983 19.3264 18.8148 19.0748 18.4515 18.7195C17.9484 18.2204 17.7887 18.0886 17.6609 18.0527C17.3136 17.9609 17.0061 18.1765 17.0061 18.5119C17.0061 18.6117 17.0261 18.7315 17.0501 18.7794C17.074 18.8273 17.4733 19.2505 17.9404 19.7176C18.6072 20.3924 18.8148 20.5761 18.9346 20.608C19.1742 20.6719 19.3499 20.6 19.6054 20.3365C21.0427 18.8472 22.013 16.8908 22.3404 14.8146C22.4282 14.2517 22.4601 12.8023 22.3963 12.1914C22.0409 8.69386 19.9128 5.63148 16.7506 4.07434C15.992 3.69902 15.5089 3.51935 14.7942 3.33569C13.6044 3.03225 12.4665 2.93642 11.3046 3.04023Z" fill="#A6A196"/>
<path d="M14.1117 7.48463C14.0438 7.51258 13.968 7.56449 13.94 7.59643C13.9121 7.63236 13.5527 8.49079 13.1415 9.50892L12.3949 11.3615L12.1074 11.3735C11.2769 11.4054 10.6061 11.9604 10.3786 12.7909C10.3067 13.0584 10.3466 13.6533 10.4544 13.9368C10.6101 14.3441 10.7818 14.5836 11.0453 14.7593C12.1593 15.5099 13.5967 15.0587 14.0079 13.829C14.2195 13.1942 14.0398 12.3836 13.5847 11.8925L13.401 11.6969L14.1237 9.89222C14.5988 8.71438 14.8504 8.03562 14.8504 7.94379C14.8504 7.7761 14.7146 7.55251 14.5709 7.48064C14.4431 7.41676 14.2634 7.41676 14.1117 7.48463ZM12.6943 12.5394C12.9618 12.6751 13.1215 13.1502 13.0137 13.4816C12.842 13.9967 12.291 14.2203 11.796 13.9767C11.3288 13.7452 11.237 13.0424 11.6283 12.6591C11.9117 12.3797 12.295 12.3357 12.6943 12.5394Z" fill="#A6A196"/>
</svg>
