<svg width="25" height="24" viewBox="0 0 25 24" fill="none" xmlns="http://www.w3.org/2000/svg">
<path d="M9.50004 17.25C9.08582 17.25 8.75004 17.5858 8.75004 18C8.75004 18.4142 9.08582 18.75 9.50004 18.75H15.5C15.9143 18.75 16.25 18.4142 16.25 18C16.25 17.5858 15.9143 17.25 15.5 17.25H9.50004Z" fill="#F9C825"/>
<path fill-rule="evenodd" clip-rule="evenodd" d="M12.5 1.25C11.7937 1.25 11.3451 1.74936 11.0434 2.19718C10.7372 2.65167 10.4177 3.30649 10.0389 4.08283L7.77608 8.71959C7.55705 9.16843 7.41614 9.45523 7.29388 9.65422C7.20903 9.79233 7.16267 9.83677 7.15181 9.8462C7.12056 9.86072 7.09142 9.86537 7.06457 9.86347C7.04723 9.85385 6.99864 9.82316 6.90929 9.74055C6.74721 9.59068 6.54541 9.36242 6.22538 8.9981L6.19628 8.96497C5.6236 8.313 5.15579 7.78042 4.77048 7.42022C4.57291 7.23552 4.36525 7.0653 4.14699 6.9433C3.92506 6.81924 3.64638 6.71955 3.3284 6.74748C2.85533 6.78903 2.43556 7.02828 2.14125 7.38387C1.78618 7.81286 1.74622 8.41259 1.75026 8.93104C1.75461 9.4911 1.82458 10.2344 1.91151 11.158L2.14885 13.6798C2.33384 15.6455 2.47873 17.185 2.72971 18.381C2.9854 19.5995 3.36979 20.5636 4.10382 21.3145C4.84888 22.0767 5.76436 22.4254 6.89573 22.5909C7.98403 22.75 9.35869 22.75 11.0806 22.75H13.9194C15.6414 22.75 17.016 22.75 18.1043 22.5909C19.2357 22.4254 20.1512 22.0767 20.8963 21.3145C21.6303 20.5636 22.0147 19.5995 22.2704 18.381C22.5213 17.185 22.6662 15.6455 22.8512 13.6798L23.0886 11.158C23.1755 10.2344 23.2455 9.49109 23.2498 8.93104C23.2538 8.41259 23.2139 7.81286 22.8588 7.38387C22.5645 7.02828 22.1447 6.78903 21.6717 6.74748C21.3537 6.71955 21.075 6.81924 20.8531 6.9433C20.6348 7.0653 20.4272 7.23552 20.2296 7.42022C19.8443 7.78043 19.3765 8.313 18.8038 8.96498L18.7747 8.9981C18.4547 9.36242 18.2529 9.59068 18.0908 9.74055C18.0014 9.82316 17.9528 9.85385 17.9355 9.86347C17.9086 9.86537 17.8795 9.86072 17.8483 9.8462C17.8374 9.83677 17.791 9.79232 17.7062 9.65422C17.5839 9.45523 17.443 9.16842 17.224 8.71958L14.9612 4.08282C14.5824 3.30648 14.2629 2.65167 13.9567 2.19717C13.655 1.74935 13.2064 1.25 12.5 1.25ZM11.361 4.79379C11.7727 3.95013 12.047 3.39205 12.2874 3.03525C12.3892 2.88414 12.4592 2.80859 12.5 2.7722C12.5409 2.80859 12.6109 2.88414 12.7127 3.03525C12.953 3.39205 13.2274 3.95013 13.6391 4.79378L15.8917 9.40969C16.0904 9.81688 16.263 10.1707 16.4281 10.4395C16.5972 10.7147 16.8203 11.0082 17.1676 11.183C17.4811 11.3408 17.8342 11.3987 18.1837 11.3435C18.577 11.2813 18.8755 11.0579 19.1091 10.8419C19.3356 10.6325 19.5892 10.3438 19.8768 10.0164L19.9016 9.98804C20.5105 9.29494 20.9294 8.81934 21.2539 8.51599C21.4145 8.36587 21.5201 8.28889 21.585 8.25262L21.5859 8.25213C21.6196 8.26445 21.6588 8.28885 21.6975 8.33351C21.6975 8.33351 21.6977 8.33563 21.699 8.33985C21.7084 8.36967 21.753 8.51152 21.7499 8.91937C21.7461 9.40668 21.6829 10.0849 21.5915 11.056L21.3623 13.4913C21.1718 15.5153 21.0338 16.9699 20.8023 18.0729C20.5735 19.1632 20.2722 19.8071 19.8236 20.266C19.3861 20.7136 18.824 20.9697 17.8873 21.1067C16.92 21.2481 15.6551 21.25 13.86 21.25H11.1401C9.34501 21.25 8.0801 21.2481 7.11279 21.1067C6.17605 20.9697 5.614 20.7136 5.17644 20.266C4.72785 19.8071 4.42652 19.1632 4.19773 18.0729C3.96628 16.9699 3.82823 15.5153 3.63774 13.4913L3.40854 11.056C3.31715 10.0849 3.254 9.40668 3.25021 8.91937C3.24704 8.5116 3.29153 8.36975 3.30089 8.3399C3.30222 8.33567 3.30252 8.33352 3.30252 8.33352C3.34123 8.28885 3.38044 8.26445 3.41421 8.25213L3.4151 8.25262C3.47998 8.28889 3.58554 8.36587 3.74613 8.51599C4.07063 8.81934 4.4896 9.29494 5.09843 9.98804L5.12331 10.0164C5.41089 10.3438 5.66444 10.6325 5.89095 10.8419C6.12461 11.0579 6.42305 11.2813 6.81634 11.3435C7.16586 11.3987 7.51901 11.3408 7.83245 11.183C8.17982 11.0082 8.40282 10.7147 8.57192 10.4395C8.73706 10.1707 8.90969 9.81692 9.10836 9.40976L11.361 4.79379ZM21.6975 8.33351C21.6994 8.33572 21.7014 8.33797 21.7033 8.34028C21.7009 8.33738 21.6983 8.33425 21.6983 8.33425L21.6975 8.33351ZM12.5441 2.74096C12.5441 2.74096 12.5409 2.74333 12.5348 2.74527C12.5411 2.74146 12.5441 2.74096 12.5441 2.74096ZM12.4652 2.74527C12.4591 2.74333 12.456 2.74096 12.456 2.74096C12.456 2.74096 12.459 2.74146 12.4652 2.74527Z" fill="#281D5F"/>
<path fill-rule="evenodd" clip-rule="evenodd" d="M12.2874 3.03525C12.047 3.39205 11.7727 3.95013 11.361 4.79379L9.10836 9.40976C8.90969 9.81692 8.73706 10.1707 8.57192 10.4395C8.40282 10.7147 8.17982 11.0082 7.83245 11.183C7.51901 11.3408 7.16586 11.3987 6.81634 11.3435C6.42305 11.2813 6.12461 11.0579 5.89095 10.8419C5.66444 10.6325 5.41089 10.3438 5.12331 10.0164L5.09843 9.98804C4.4896 9.29494 4.07063 8.81934 3.74613 8.51599C3.58554 8.36587 3.47998 8.28889 3.4151 8.25262L3.41421 8.25213C3.38044 8.26445 3.34123 8.28885 3.30252 8.33352C3.30252 8.33352 3.30222 8.33567 3.30089 8.3399C3.29153 8.36975 3.24704 8.5116 3.25021 8.91937C3.254 9.40668 3.31715 10.0849 3.40854 11.056L3.63774 13.4913C3.82823 15.5153 3.96628 16.9699 4.19773 18.0729C4.42652 19.1632 4.72785 19.8071 5.17644 20.266C5.614 20.7136 6.17605 20.9697 7.11279 21.1067C8.0801 21.2481 9.34501 21.25 11.1401 21.25H13.86C15.6551 21.25 16.92 21.2481 17.8873 21.1067C18.824 20.9697 19.3861 20.7136 19.8236 20.266C20.2722 19.8071 20.5735 19.1632 20.8023 18.0729C21.0338 16.9699 21.1718 15.5153 21.3623 13.4913L21.5915 11.056C21.6829 10.0849 21.7461 9.40668 21.7499 8.91937C21.753 8.51152 21.7084 8.36967 21.699 8.33985C21.6977 8.33563 21.6975 8.33351 21.6975 8.33351C21.6588 8.28885 21.6196 8.26445 21.5859 8.25213L21.585 8.25262C21.5201 8.28889 21.4145 8.36587 21.2539 8.51599C20.9294 8.81934 20.5105 9.29494 19.9016 9.98804L19.8768 10.0164C19.5892 10.3438 19.3356 10.6325 19.1091 10.8419C18.8755 11.0579 18.577 11.2813 18.1837 11.3435C17.8342 11.3987 17.4811 11.3408 17.1676 11.183C16.8203 11.0082 16.5972 10.7147 16.4281 10.4395C16.263 10.1707 16.0904 9.81688 15.8917 9.40969L13.6391 4.79378C13.2274 3.95013 12.953 3.39205 12.7127 3.03525C12.6109 2.88414 12.5409 2.80859 12.5 2.7722C12.4592 2.80859 12.3892 2.88414 12.2874 3.03525ZM9.50004 17.25C9.08582 17.25 8.75004 17.5858 8.75004 18C8.75004 18.4142 9.08582 18.75 9.50004 18.75H15.5C15.9143 18.75 16.25 18.4142 16.25 18C16.25 17.5858 15.9143 17.25 15.5 17.25H9.50004Z" fill="#281D5F"/>
</svg>
