<svg width="22" height="22" viewBox="0 0 22 22" fill="none" xmlns="http://www.w3.org/2000/svg">
<path d="M8.00004 16.25C7.58582 16.25 7.25004 16.5858 7.25004 17C7.25004 17.4142 7.58582 17.75 8.00004 17.75H14C14.4143 17.75 14.75 17.4142 14.75 17C14.75 16.5858 14.4143 16.25 14 16.25H8.00004Z" fill="#F9C825"/>
<path fill-rule="evenodd" clip-rule="evenodd" d="M11 0.25C10.2937 0.25 9.84506 0.749356 9.54338 1.19718C9.2372 1.65167 8.91768 2.30649 8.53886 3.08283L6.27608 7.71959C6.05705 8.16843 5.91614 8.45523 5.79388 8.65422C5.70903 8.79233 5.66267 8.83677 5.65181 8.8462C5.62056 8.86072 5.59142 8.86537 5.56457 8.86347C5.54723 8.85385 5.49864 8.82316 5.40929 8.74055C5.24721 8.59068 5.04541 8.36242 4.72538 7.9981L4.69628 7.96497C4.1236 7.313 3.65579 6.78042 3.27048 6.42022C3.07291 6.23552 2.86525 6.0653 2.64699 5.9433C2.42506 5.81924 2.14638 5.71955 1.8284 5.74748C1.35533 5.78903 0.935558 6.02828 0.641248 6.38387C0.286185 6.81286 0.246223 7.41259 0.250255 7.93104C0.254611 8.4911 0.324575 9.2344 0.411511 10.158L0.648854 12.6798C0.833844 14.6455 0.978726 16.185 1.22971 17.381C1.4854 18.5995 1.86979 19.5636 2.60382 20.3145C3.34888 21.0767 4.26436 21.4254 5.39573 21.5909C6.48403 21.75 7.85869 21.75 9.58065 21.75H12.4194C14.1414 21.75 15.516 21.75 16.6043 21.5909C17.7357 21.4254 18.6512 21.0767 19.3963 20.3145C20.1303 19.5636 20.5147 18.5995 20.7704 17.381C21.0213 16.185 21.1662 14.6455 21.3512 12.6798L21.5886 10.158C21.6755 9.2344 21.7455 8.49109 21.7498 7.93104C21.7538 7.41259 21.7139 6.81286 21.3588 6.38387C21.0645 6.02828 20.6447 5.78903 20.1717 5.74748C19.8537 5.71955 19.575 5.81924 19.3531 5.9433C19.1348 6.0653 18.9272 6.23552 18.7296 6.42022C18.3443 6.78043 17.8765 7.313 17.3038 7.96498L17.2747 7.9981C16.9547 8.36242 16.7529 8.59068 16.5908 8.74055C16.5014 8.82316 16.4528 8.85385 16.4355 8.86347C16.4086 8.86537 16.3795 8.86072 16.3483 8.8462C16.3374 8.83677 16.291 8.79232 16.2062 8.65422C16.0839 8.45523 15.943 8.16842 15.724 7.71958L13.4612 3.08282C13.0824 2.30648 12.7629 1.65167 12.4567 1.19717C12.155 0.749354 11.7064 0.25 11 0.25ZM9.86099 3.79379C10.2727 2.95013 10.547 2.39205 10.7874 2.03525C10.8892 1.88414 10.9592 1.80859 11 1.7722C11.0409 1.80859 11.1109 1.88414 11.2127 2.03525C11.453 2.39205 11.7274 2.95013 12.1391 3.79378L14.3917 8.40969C14.5904 8.81688 14.763 9.17068 14.9281 9.43946C15.0972 9.71469 15.3203 10.0082 15.6676 10.183C15.9811 10.3408 16.3342 10.3987 16.6837 10.3435C17.077 10.2813 17.3755 10.0579 17.6091 9.84191C17.8356 9.63246 18.0892 9.34379 18.3768 9.01635L18.4016 8.98804C19.0105 8.29494 19.4294 7.81934 19.7539 7.51599C19.9145 7.36587 20.0201 7.28889 20.085 7.25262L20.0859 7.25213C20.1196 7.26445 20.1588 7.28885 20.1975 7.33351C20.1975 7.33351 20.1977 7.33563 20.199 7.33985C20.2084 7.36967 20.253 7.51152 20.2499 7.91937C20.2461 8.40668 20.1829 9.08494 20.0915 10.056L19.8623 12.4913C19.6718 14.5153 19.5338 15.9699 19.3023 17.0729C19.0735 18.1632 18.7722 18.8071 18.3236 19.266C17.8861 19.7136 17.324 19.9697 16.3873 20.1067C15.42 20.2481 14.1551 20.25 12.36 20.25H9.64011C7.84501 20.25 6.5801 20.2481 5.61279 20.1067C4.67605 19.9697 4.114 19.7136 3.67644 19.266C3.22785 18.8071 2.92652 18.1632 2.69773 17.0729C2.46628 15.9699 2.32823 14.5153 2.13774 12.4913L1.90854 10.056C1.81715 9.08494 1.754 8.40668 1.75021 7.91937C1.74704 7.5116 1.79153 7.36975 1.80089 7.3399C1.80222 7.33567 1.80252 7.33352 1.80252 7.33352C1.84123 7.28885 1.88044 7.26445 1.91421 7.25213L1.9151 7.25262C1.97998 7.28889 2.08554 7.36587 2.24613 7.51599C2.57063 7.81934 2.9896 8.29494 3.59843 8.98804L3.62331 9.01637C3.91089 9.3438 4.16444 9.63247 4.39095 9.84191C4.62461 10.0579 4.92305 10.2813 5.31634 10.3435C5.66586 10.3987 6.01901 10.3408 6.33245 10.183C6.67982 10.0082 6.90282 9.71469 7.07192 9.43946C7.23706 9.17069 7.40969 8.81692 7.60836 8.40976L9.86099 3.79379ZM20.1975 7.33351C20.1994 7.33572 20.2014 7.33797 20.2033 7.34028C20.2009 7.33738 20.1983 7.33425 20.1983 7.33425L20.1975 7.33351ZM11.0441 1.74096C11.0441 1.74096 11.0409 1.74333 11.0348 1.74527C11.0411 1.74146 11.0441 1.74096 11.0441 1.74096ZM10.9652 1.74527C10.9591 1.74333 10.956 1.74096 10.956 1.74096C10.956 1.74096 10.959 1.74146 10.9652 1.74527Z" fill="#281D5F"/>
<path fill-rule="evenodd" clip-rule="evenodd" d="M10.7874 2.03525C10.547 2.39205 10.2727 2.95013 9.86099 3.79379L7.60836 8.40976C7.40969 8.81692 7.23706 9.17069 7.07192 9.43946C6.90282 9.71469 6.67982 10.0082 6.33245 10.183C6.01901 10.3408 5.66586 10.3987 5.31634 10.3435C4.92305 10.2813 4.62461 10.0579 4.39095 9.84191C4.16444 9.63247 3.91089 9.3438 3.62331 9.01637L3.59843 8.98804C2.9896 8.29494 2.57063 7.81934 2.24613 7.51599C2.08554 7.36587 1.97998 7.28889 1.9151 7.25262L1.91421 7.25213C1.88044 7.26445 1.84123 7.28885 1.80252 7.33352C1.80252 7.33352 1.80222 7.33567 1.80089 7.3399C1.79153 7.36975 1.74704 7.5116 1.75021 7.91937C1.754 8.40668 1.81715 9.08494 1.90854 10.056L2.13774 12.4913C2.32823 14.5153 2.46628 15.9699 2.69773 17.0729C2.92652 18.1632 3.22785 18.8071 3.67644 19.266C4.114 19.7136 4.67605 19.9697 5.61279 20.1067C6.5801 20.2481 7.84501 20.25 9.64011 20.25H12.36C14.1551 20.25 15.42 20.2481 16.3873 20.1067C17.324 19.9697 17.8861 19.7136 18.3236 19.266C18.7722 18.8071 19.0735 18.1632 19.3023 17.0729C19.5338 15.9699 19.6718 14.5153 19.8623 12.4913L20.0915 10.056C20.1829 9.08494 20.2461 8.40668 20.2499 7.91937C20.253 7.51152 20.2084 7.36967 20.199 7.33985C20.1977 7.33563 20.1975 7.33351 20.1975 7.33351C20.1588 7.28885 20.1196 7.26445 20.0859 7.25213L20.085 7.25262C20.0201 7.28889 19.9145 7.36587 19.7539 7.51599C19.4294 7.81934 19.0105 8.29494 18.4016 8.98804L18.3768 9.01635C18.0892 9.34379 17.8356 9.63246 17.6091 9.84191C17.3755 10.0579 17.077 10.2813 16.6837 10.3435C16.3342 10.3987 15.9811 10.3408 15.6676 10.183C15.3203 10.0082 15.0972 9.71469 14.9281 9.43946C14.763 9.17068 14.5904 8.81688 14.3917 8.40969L12.1391 3.79378C11.7274 2.95013 11.453 2.39205 11.2127 2.03525C11.1109 1.88414 11.0409 1.80859 11 1.7722C10.9592 1.80859 10.8892 1.88414 10.7874 2.03525ZM8.00004 16.25C7.58582 16.25 7.25004 16.5858 7.25004 17C7.25004 17.4142 7.58582 17.75 8.00004 17.75H14C14.4143 17.75 14.75 17.4142 14.75 17C14.75 16.5858 14.4143 16.25 14 16.25H8.00004Z" fill="#281D5F"/>
</svg>
