<svg width="20" height="18" viewBox="0 0 20 18" fill="none" xmlns="http://www.w3.org/2000/svg">
<path d="M11.1111 4.5C11.1111 3.67157 11.6086 3 12.2222 3H13.3333C13.947 3 14.4444 3.67157 14.4444 4.5V16.5C14.4444 17.3284 13.947 18 13.3333 18H12.2222C11.6086 18 11.1111 17.3284 11.1111 16.5V4.5Z" fill="#03EE61"/>
<path d="M16.6667 1.5C16.6667 0.671573 17.1641 0 17.7778 0H18.8889C19.5025 0 20 0.671573 20 1.5V16.5C20 17.3284 19.5025 18 18.8889 18H17.7778C17.1641 18 16.6667 17.3284 16.6667 16.5V1.5Z" fill="#737068"/>
<path d="M5.55556 9.75C5.55556 8.92157 6.05302 8.25 6.66667 8.25H7.77778C8.39143 8.25 8.88889 8.92157 8.88889 9.75V16.5C8.88889 17.3284 8.39143 18 7.77778 18H6.66667C6.05302 18 5.55556 17.3284 5.55556 16.5V9.75Z" fill="#03EE61"/>
<path d="M0 13.5C0 12.6716 0.497461 12 1.11111 12H2.22222C2.83587 12 3.33333 12.6716 3.33333 13.5V16.5C3.33333 17.3284 2.83587 18 2.22222 18H1.11111C0.497461 18 0 17.3284 0 16.5V13.5Z" fill="#03EE61"/>
</svg>
