<svg width="22" height="22" viewBox="0 0 22 22" fill="none" xmlns="http://www.w3.org/2000/svg">
<path d="M12.0182 6.875C12.0182 6.11561 12.4742 5.5 13.0367 5.5H14.0552C14.6177 5.5 15.0737 6.11561 15.0737 6.875V17.875C15.0737 18.6344 14.6177 19.25 14.0552 19.25H13.0367C12.4742 19.25 12.0182 18.6344 12.0182 17.875V6.875Z" fill="#03EE61"/>
<path d="M17.1108 4.125C17.1108 3.36561 17.5668 2.75 18.1293 2.75H19.1478C19.7103 2.75 20.1663 3.36561 20.1663 4.125V17.875C20.1663 18.6344 19.7103 19.25 19.1478 19.25H18.1293C17.5668 19.25 17.1108 18.6344 17.1108 17.875V4.125Z" fill="#737068"/>
<path d="M6.9256 11.6875C6.9256 10.9281 7.38161 10.3125 7.94412 10.3125H8.96264C9.52515 10.3125 9.98116 10.9281 9.98116 11.6875V17.875C9.98116 18.6344 9.52515 19.25 8.96264 19.25H7.94412C7.38161 19.25 6.9256 18.6344 6.9256 17.875V11.6875Z" fill="#03EE61"/>
<path d="M1.83301 15.125C1.83301 14.3656 2.28901 13.75 2.85153 13.75H3.87004C4.43256 13.75 4.88856 14.3656 4.88856 15.125V17.875C4.88856 18.6344 4.43256 19.25 3.87004 19.25H2.85153C2.28901 19.25 1.83301 18.6344 1.83301 17.875V15.125Z" fill="#03EE61"/>
</svg>
