<svg width="24" height="24" viewBox="0 0 24 24" fill="none" xmlns="http://www.w3.org/2000/svg">
<path d="M17.55 4.47187C17.3437 4.56562 17.1937 4.8 17.1656 5.0625C17.1422 5.32031 17.2078 5.47031 17.4703 5.74218C18.1266 6.42187 18.7828 7.50937 19.0687 8.39062C19.5609 9.88593 19.5703 11.4562 19.0969 12.9094C18.9656 13.3172 18.6187 14.0859 18.45 14.3437C18.075 14.9156 17.9344 15.1031 17.5922 15.4969C17.325 15.8016 17.1984 15.9844 17.175 16.1016C17.0766 16.6406 17.4891 17.0484 18.0281 16.9453C18.2297 16.9078 18.5859 16.5891 18.9516 16.125C19.0875 15.9562 19.2047 15.8109 19.2187 15.7969C19.2328 15.7828 19.3734 15.5719 19.5328 15.3281C19.9828 14.6391 20.3906 13.7156 20.5969 12.9234C21.1453 10.8187 20.9344 8.76093 19.9641 6.82031C19.5797 6.04687 19.1625 5.44218 18.6094 4.86093C18.2109 4.44375 18.2062 4.43906 17.9531 4.42031C17.7937 4.41093 17.6391 4.42968 17.55 4.47187Z" fill="#F9C825"/>
<path d="M15.4594 6.59531C15.1922 6.72187 15.0469 6.95156 15.0469 7.23749C15.0516 7.49062 15.0422 7.47656 15.5766 8.15624C16.575 9.41249 16.725 11.2312 15.9469 12.6562C15.7734 12.975 15.4594 13.425 15.375 13.4766C15.3469 13.4953 15.2578 13.5937 15.1828 13.6969C14.9156 14.0719 15.0375 14.5875 15.4406 14.7703C15.6797 14.8781 15.8156 14.8781 16.0547 14.7703C16.4578 14.5922 17.1938 13.5516 17.5219 12.7031C17.9719 11.5406 18.0094 10.1719 17.6203 8.95781C17.4609 8.45156 17.0906 7.71093 16.8469 7.40624C16.5375 7.02187 16.2516 6.70312 16.1531 6.63749C15.9656 6.51562 15.6609 6.49687 15.4594 6.59531Z" fill="#EC2C5D"/>
<path d="M12.2812 13.0734L12.0234 13.1016L12.0094 17.4047L12 21.7031L12.1266 21.675C12.2016 21.6563 12.3094 21.6094 12.375 21.5719C12.4406 21.5297 12.5109 21.5016 12.5391 21.5109C12.5625 21.5156 12.5719 21.5063 12.5484 21.4875C12.5297 21.4688 12.5531 21.3984 12.5953 21.3328C12.675 21.2203 12.6797 20.9297 12.6937 17.1188C12.7031 13.2328 12.7031 13.0313 12.6234 13.0406C12.5766 13.0453 12.4219 13.0594 12.2812 13.0734Z" fill="#8C897F"/>
<path d="M8.03906 6.54845C7.875 6.59064 7.74844 6.70314 7.46719 7.04064C7.31719 7.22345 7.17187 7.39689 7.14844 7.42501C6.95156 7.63126 6.51562 8.49376 6.38437 8.93439C5.86406 10.6219 6.06562 12.1922 6.99844 13.7344C7.14375 13.9828 7.67812 14.611 7.82344 14.7141C8.03437 14.8641 8.29687 14.8875 8.54531 14.775C8.82187 14.6531 8.95312 14.4469 8.95312 14.1422C8.95312 13.8656 8.91094 13.7813 8.59687 13.4391C7.2 11.925 7.20937 9.4922 8.62031 7.90314C8.91094 7.5797 8.95312 7.49064 8.95312 7.22814C8.95312 6.74533 8.52187 6.42658 8.03906 6.54845Z" fill="#FC6840"/>
<path d="M5.83594 4.44843C5.72344 4.4953 5.25937 4.96874 4.95469 5.34374C4.38281 6.05624 3.80156 7.14374 3.51562 8.03905C2.9625 9.78749 2.96719 11.6391 3.53437 13.3875C3.75 14.0437 4.21875 14.9953 4.60781 15.5625C4.9875 16.1109 5.54531 16.7344 5.77031 16.8703C6.24844 17.1469 6.84375 16.8187 6.84375 16.275C6.84375 16.0078 6.76406 15.8625 6.375 15.4406C5.53125 14.5125 4.96875 13.3828 4.68281 12.0469C4.54687 11.4047 4.53281 10.0969 4.65469 9.4453C4.90781 8.1328 5.54531 6.82968 6.38437 5.92499C6.75937 5.51718 6.84375 5.36718 6.84375 5.0953C6.84375 4.84218 6.69844 4.60312 6.46875 4.49061C6.29531 4.40155 5.99531 4.3828 5.83594 4.44843Z" fill="#ECEC6B"/>
<path d="M11.3063 17.1563L11.3203 21.3281L11.4844 21.4922C11.5922 21.6 11.7141 21.6703 11.8266 21.6891L12 21.7172V17.3953V13.0781H11.7984C11.6906 13.0781 11.5313 13.0594 11.4469 13.0359L11.2969 12.9891L11.3063 17.1563Z" fill="#F1EBDB"/>
<path d="M19.6078 2.39063C19.3219 2.56406 19.2047 2.8875 19.3125 3.21094C19.3453 3.31406 19.5234 3.55313 19.7484 3.79219C21.5297 5.7 22.5469 8.19375 22.5469 10.6641C22.5469 13.2094 21.5719 15.5906 19.6922 17.6391C19.5047 17.8406 19.3359 18.0609 19.3078 18.1219C19.1344 18.5906 19.4813 19.0781 19.9922 19.0781C20.3109 19.0781 20.4422 18.9891 20.9484 18.4172C22.6828 16.4859 23.6578 14.3484 23.9531 11.8594C24.0188 11.2828 24.0094 9.99375 23.9344 9.375C23.7141 7.61719 23.1234 5.99531 22.1625 4.52344C21.6281 3.70313 20.625 2.5125 20.3391 2.36719C20.1516 2.26875 19.7906 2.27813 19.6078 2.39063Z" fill="#6B96C1"/>
<path d="M3.8625 2.29688C3.77813 2.31563 3.65156 2.37656 3.57656 2.42813C3.43125 2.53125 2.75625 3.25313 2.62969 3.43594C2.59219 3.49219 2.55 3.54844 2.53125 3.5625C2.40469 3.67031 1.76719 4.60313 1.49063 5.08594C0.782813 6.32344 0.370313 7.51875 0.0843758 9.14063C-0.00937418 9.68906 0.00468832 11.8031 0.107813 12.3984C0.342188 13.7438 0.829688 15.1406 1.41094 16.1391C1.51875 16.3266 1.64063 16.5422 1.6875 16.6219C2.10469 17.3484 3.34219 18.8438 3.66563 19.0125C3.73594 19.05 3.89531 19.0781 4.01719 19.0781C4.52344 19.0781 4.86563 18.5859 4.6875 18.1172C4.65938 18.0469 4.52344 17.8688 4.3875 17.7234C2.86406 16.1344 1.88906 14.2078 1.56563 12.1641C1.20938 9.87656 1.72969 7.44375 3.00469 5.41406C3.32344 4.90781 3.30938 4.92656 3.50156 4.6875C3.57656 4.59844 3.68906 4.44844 3.75938 4.35938C3.825 4.27031 4.05938 4.00313 4.27969 3.76406C4.70625 3.30938 4.77656 3.15938 4.71563 2.84063C4.64531 2.46563 4.25156 2.21719 3.8625 2.29688Z" fill="#96ECEC"/>
<path d="M11.3016 7.99688C10.7156 8.15156 10.1063 8.61094 9.79688 9.12188C9.525 9.57188 9.42656 9.9375 9.42188 10.4813C9.42188 11.2547 9.64688 11.8125 10.1672 12.3328C10.5844 12.75 10.9406 12.9281 11.5406 13.0172C12.15 13.1063 12.7641 13.0266 13.2234 12.7969C13.8 12.5016 14.3016 11.8828 14.5031 11.2078C14.6203 10.8188 14.6016 10.0875 14.4703 9.69844C14.1797 8.85 13.5094 8.20781 12.6797 7.99219C12.3328 7.90313 11.6391 7.90313 11.3016 7.99688Z" fill="#F1EBDB"/>
</svg>
