<svg width="24" height="24" viewBox="0 0 24 24" fill="none" xmlns="http://www.w3.org/2000/svg">
<circle cx="10" cy="10" r="7" fill="#5B33FF"/>
<path d="M9.29639 3.03772C9.24371 3.04524 9.04425 3.07535 8.85232 3.10922L8.49857 3.16943L8.33674 3.42158C8.0432 3.8807 7.77225 4.49036 7.52763 5.25055C7.41473 5.60807 7.22656 6.33439 7.22656 6.42095C7.22656 6.44729 7.39215 6.436 7.72709 6.39461C7.99804 6.35697 8.57383 6.30805 9.00662 6.28171L9.78563 6.23278V4.62208V3.01137L9.58993 3.01514C9.4808 3.0189 9.34908 3.02643 9.29639 3.03772Z" fill="#F9C825"/>
<path d="M10.3877 4.61823V6.23646L10.907 6.2628C11.464 6.29291 12.386 6.37947 12.721 6.43215C12.8339 6.45097 12.9317 6.46226 12.9392 6.45473C12.9543 6.43968 12.736 5.57788 12.6231 5.22413C12.4124 4.55425 12.1038 3.86556 11.8102 3.40268L11.6635 3.16935L11.3361 3.10914C11.1554 3.07903 10.8694 3.03763 10.7001 3.02634L10.3877 3V4.61823Z" fill="#F9C825"/>
<path d="M7.1891 3.61348C5.81172 4.23443 4.64885 5.29192 3.92253 6.58651C3.68168 7.01177 3.43706 7.55368 3.47093 7.58379C3.47846 7.59508 3.64781 7.52734 3.8435 7.43702C4.5209 7.1209 5.34883 6.84994 6.19558 6.66178L6.57568 6.57522L6.6961 6.04459C6.85792 5.35966 7.12888 4.53549 7.3735 3.98981C7.48264 3.75272 7.58048 3.53445 7.59177 3.50811C7.62188 3.43284 7.53156 3.45918 7.1891 3.61348Z" fill="#F9C825"/>
<path d="M12.6609 3.71875C12.9657 4.32465 13.2668 5.20151 13.4549 6.0332C13.5076 6.26276 13.5603 6.4848 13.5716 6.51867C13.5829 6.56007 13.6619 6.59394 13.8049 6.62404C14.5501 6.77081 15.5248 7.08317 16.2548 7.40682C16.4919 7.51595 16.6914 7.59498 16.6989 7.58746C16.7064 7.57993 16.6462 7.42187 16.5634 7.22994C16.0178 5.97299 15.0506 4.85152 13.8501 4.0838C13.5453 3.8881 12.8076 3.5193 12.6345 3.4779L12.5254 3.45156L12.6609 3.71875Z" fill="#F9C825"/>
<path d="M8.80654 6.89122C8.41139 6.91756 7.10928 7.06809 7.0867 7.08691C7.04154 7.13583 6.85337 9.1605 6.84961 9.62339V9.78522H8.31731H9.78501V8.31752V6.84982L9.53286 6.85358C9.38986 6.85735 9.06621 6.87616 8.80654 6.89122Z" fill="#F9C825"/>
<path d="M10.3877 8.31376V9.78522H11.8479H13.3043L13.2967 9.47662C13.2742 8.7917 13.1537 7.5084 13.0785 7.16594C13.0634 7.0982 13.0107 7.07938 12.6193 7.0267C12.0962 6.95519 11.5317 6.90251 10.8694 6.86487L10.3877 6.84229V8.31376Z" fill="#F9C825"/>
<path d="M5.90905 7.34282C4.87414 7.61001 4.0161 7.95248 3.42149 8.33634L3.16935 8.49816L3.10914 8.8331C3.07527 9.0175 3.03763 9.30727 3.02258 9.47662L3 9.78522H4.61823H6.23646L6.26281 9.26588C6.28915 8.75407 6.37194 7.85839 6.43216 7.44066C6.46603 7.18099 6.4999 7.18852 5.90905 7.34282Z" fill="#F9C825"/>
<path d="M13.7143 7.3654C13.7783 7.76055 13.8535 8.53956 13.8686 9.01373C13.8836 9.30351 13.8987 9.59705 13.91 9.66103L13.9288 9.78522H15.547H17.169L17.1427 9.52931C17.1163 9.25835 17.0223 8.64117 16.9884 8.53579C16.9432 8.38902 15.8857 7.85463 15.1481 7.60625C14.7191 7.46324 13.8498 7.22615 13.7444 7.22615C13.7068 7.22615 13.6992 7.26379 13.7143 7.3654Z" fill="#F9C825"/>
<path d="M3.02634 10.6772C3.0414 10.839 3.07903 11.1288 3.1129 11.3207L3.17311 11.6669L3.40644 11.8137C3.99728 12.1862 4.89295 12.5475 5.8526 12.7997C6.17625 12.8825 6.44721 12.9464 6.45097 12.9389C6.4585 12.9314 6.43216 12.6981 6.39452 12.4196C6.36065 12.1411 6.30797 11.5691 6.28162 11.1476L6.2327 10.3874H4.61823H3L3.02634 10.6772Z" fill="#F9C825"/>
<path d="M6.86535 10.903C6.89546 11.4751 6.97449 12.318 7.04599 12.7659C7.09492 13.1008 7.03847 13.0669 7.67823 13.1497C8.29542 13.2325 8.954 13.2852 9.40184 13.2852H9.7857V11.8363V10.3875H8.31423H6.84277L6.86535 10.903Z" fill="#F9C825"/>
<path d="M10.3877 11.8363V13.2852H10.7565C11.3812 13.2852 12.8828 13.1347 13.0258 13.0594C13.1199 13.0067 13.2855 11.5616 13.2855 10.7713V10.3875H11.8366H10.3877V11.8363Z" fill="#F9C825"/>
<path d="M13.9093 10.4477C13.898 10.4815 13.8867 10.6546 13.8867 10.8315C13.8867 11.2116 13.834 11.8777 13.755 12.4911C13.7249 12.7282 13.706 12.9277 13.7136 12.9352C13.7362 12.9578 14.7184 12.6944 15.1361 12.5514C15.8775 12.303 16.7054 11.8965 16.9199 11.6858C16.9952 11.6068 17.0629 11.2794 17.1382 10.5643L17.1608 10.3874H15.5463C14.1087 10.3874 13.9281 10.395 13.9093 10.4477Z" fill="#F9C825"/>
<path d="M3.47752 12.6339C3.52268 12.807 3.85008 13.4693 4.06083 13.8118C4.72694 14.8806 5.74304 15.8176 6.83064 16.3633C7.22203 16.559 7.57202 16.7133 7.59083 16.6983C7.59836 16.6907 7.54191 16.5515 7.46664 16.3859C7.13171 15.6596 6.83064 14.7489 6.65753 13.9623C6.61613 13.7666 6.56344 13.5973 6.54463 13.5822C6.52205 13.5709 6.36775 13.5295 6.1984 13.4957C5.39681 13.3263 4.33179 12.9688 3.71084 12.6564L3.45117 12.5247L3.47752 12.6339Z" fill="#F9C825"/>
<path d="M16.5968 12.5892C16.4199 12.6908 15.6748 12.9957 15.2985 13.1236C15.0915 13.1951 14.6286 13.3306 14.2673 13.4209C13.906 13.5112 13.605 13.594 13.5974 13.6016C13.5786 13.6204 13.3604 14.516 13.3604 14.5687C13.3604 14.5875 13.8308 14.6026 14.448 14.6026H15.5356L15.7425 14.3279C15.8517 14.1811 16.0135 13.9478 16.1001 13.8123C16.2882 13.5112 16.721 12.6231 16.7022 12.5742C16.6947 12.5553 16.6495 12.5629 16.5968 12.5892Z" fill="#F9C825"/>
<path d="M7.22656 13.7442C7.22656 13.8495 7.46365 14.7189 7.60666 15.1479C7.76848 15.6258 8.11094 16.3747 8.33674 16.7473C8.43459 16.9091 8.50233 16.9806 8.57383 16.9957C8.63028 17.007 8.70555 17.0258 8.73942 17.0333C8.79587 17.0521 8.8034 16.9769 8.81469 16.1753L8.82598 15.2984L8.94264 15.0914C9.08941 14.8318 9.34155 14.6511 9.60122 14.6173L9.78563 14.5909V14.2597V13.9286L9.6652 13.9098C9.59746 13.8985 9.30392 13.8834 9.01414 13.8684C8.53996 13.8533 7.76096 13.778 7.36957 13.7141C7.2642 13.699 7.22656 13.7065 7.22656 13.7442Z" fill="#F9C825"/>
<path d="M12.4501 13.7559C12.006 13.8198 11.1969 13.8876 10.8431 13.8876C10.3727 13.8876 10.3877 13.8763 10.3877 14.2677V14.6026H11.5506H12.7135L12.7549 14.4784C12.7963 14.3429 12.9468 13.7559 12.9468 13.722C12.9468 13.6919 12.8414 13.6994 12.4501 13.7559Z" fill="#F9C825"/>
<rect x="10" y="16.0001" width="11" height="5" rx="1" fill="#5B33FF"/>
<path d="M9.51832 15.3137L9.40918 15.4229V18.0835C9.40918 20.8985 9.40918 20.9098 9.57853 20.9775C9.6124 20.9888 12.1602 21.0001 15.2386 21.0001H20.8384L20.9174 20.9136L21.0002 20.827V18.1061V15.389L20.9061 15.2987L20.8158 15.2046H15.2235H9.62745L9.51832 15.3137ZM11.3097 16.3863C11.336 16.4503 11.4978 16.9734 11.6709 17.5454C11.8403 18.1212 11.9946 18.5916 12.0059 18.5916C12.0172 18.5916 12.1715 18.1212 12.3408 17.5454C12.5139 16.9734 12.6757 16.4503 12.7021 16.3863C12.7999 16.1492 13.1537 16.1567 13.2402 16.3976C13.2704 16.4954 13.2101 16.7363 12.7774 18.1814C12.3483 19.6039 12.2618 19.8636 12.1752 19.9351C12.051 20.0442 11.9607 20.0442 11.8365 19.9351C11.75 19.8636 11.6634 19.6039 11.2306 18.1663C10.7828 16.6685 10.7339 16.4728 10.7715 16.3863C10.8769 16.1567 11.2156 16.1567 11.3097 16.3863ZM15.4155 16.2245C15.8482 16.3035 16.1719 16.5594 16.3676 16.9696C16.4466 17.1427 16.4654 17.233 16.4617 17.4814C16.4617 17.7336 16.4428 17.8163 16.3525 18.0007C16.2208 18.2679 15.9837 18.49 15.7015 18.6217C15.5171 18.7045 15.423 18.7233 15.0278 18.7346L14.5649 18.7497V19.2351C14.5649 19.4986 14.5499 19.7582 14.5273 19.8109C14.4483 20.0254 14.2037 20.0743 14.0381 19.9088C13.9666 19.8373 13.9628 19.777 13.9628 18.1099V16.3825L14.0494 16.3073C14.0945 16.2659 14.1585 16.2207 14.1886 16.2094C14.2902 16.1718 15.1859 16.1831 15.4155 16.2245ZM17.6584 16.2922C17.6923 16.3261 18.0046 16.8266 18.3508 17.4061C18.6971 17.9857 19.0019 18.4862 19.032 18.5163C19.0734 18.5615 19.0809 18.4034 19.0809 17.5303C19.0809 16.932 19.096 16.4465 19.1186 16.39C19.16 16.2847 19.3594 16.1793 19.4535 16.2132C19.4874 16.2245 19.5513 16.2659 19.6003 16.3073L19.6831 16.3825V18.1099C19.6831 19.777 19.6793 19.8373 19.6078 19.9088C19.5024 20.0141 19.3594 20.0405 19.2578 19.9727C19.2089 19.9426 18.874 19.4271 18.5164 18.8287C18.1589 18.2341 17.8428 17.7185 17.8127 17.6884C17.7713 17.6432 17.7638 17.8051 17.7638 18.7195V19.8034L17.6546 19.9125C17.5154 20.0518 17.41 20.0518 17.2708 19.9125L17.1616 19.8034V18.1136C17.1616 16.6234 17.1692 16.4164 17.2218 16.3411C17.3347 16.1793 17.5229 16.1567 17.6584 16.2922Z" fill="#F9C825"/>
<path d="M14.5645 17.4774V18.1398H14.9333C15.4714 18.136 15.6709 18.0457 15.8101 17.7446C15.9418 17.4586 15.859 17.1049 15.6144 16.9317C15.4978 16.8489 15.4413 16.8414 15.0273 16.8301L14.5645 16.8151V17.4774Z" fill="#F9C825"/>
</svg>
