<svg width="20" height="20" viewBox="0 0 20 20" fill="none" xmlns="http://www.w3.org/2000/svg">
<path d="M14.6935 1.41022C16.1818 2.94537 17.1115 4.88287 17.4045 7.08209C17.4904 7.73444 17.4904 8.92975 17.4045 9.58209C17.1154 11.7266 16.1974 13.6719 14.7443 15.1993C14.3693 15.5938 14.3693 15.5938 14.4279 15.7032C14.5451 15.9337 14.8302 16.1055 15.0842 16.1055C15.256 16.1016 15.5021 15.9883 15.6271 15.8477C15.717 15.7501 17.9162 11.9063 18.1623 11.418C18.2756 11.1915 18.3576 10.8946 18.3576 10.6915C18.3576 10.6016 18.2951 10.2891 18.2209 9.99615C18.092 9.50397 18.0881 9.45709 18.1388 9.35162C18.217 9.19928 18.2795 9.17975 18.6896 9.17584C19.1115 9.16803 19.2795 9.10162 19.6467 8.80084C19.7873 8.68756 19.9045 8.5899 19.9084 8.586C19.9318 8.57428 19.7873 7.85553 19.6818 7.44147C19.0724 5.09381 17.4865 2.90631 15.4474 1.60553C15.0099 1.32428 14.5451 1.06647 14.4084 1.0274C14.3029 0.996153 14.3381 1.04303 14.6935 1.41022Z" fill="#6BC16B"/>
<path d="M5.47478 18.1798C5.48649 18.211 5.59587 18.4493 5.72087 18.7071L5.94353 19.1837L6.39665 19.3594C6.89274 19.5509 7.15056 19.629 7.18181 19.6016C7.20134 19.5821 6.92009 18.3673 6.88884 18.336C6.88102 18.3282 6.72087 18.3087 6.52946 18.2891C6.18181 18.2579 5.72087 18.1915 5.54899 18.1485C5.47868 18.129 5.45915 18.1368 5.47478 18.1798Z" fill="#6BC16B"/>
<path d="M9.04081 0.03899C8.23613 0.13274 7.43534 0.304615 6.78691 0.523365C4.85722 1.1718 3.15409 2.4179 1.90019 4.1093C1.57988 4.53899 0.993938 5.52727 1.03691 5.56633C1.04472 5.57805 1.19316 6.55071 1.36503 7.7304C1.53691 8.91008 1.69316 9.96087 1.71659 10.0702C1.77519 10.3515 1.95097 10.6366 2.20488 10.8554C2.82988 11.3945 2.84941 11.4374 2.65019 11.9882C2.44706 12.5624 2.41191 12.7109 2.43925 12.9335C2.48613 13.3827 2.62675 13.5859 3.21269 14.0585C3.46269 14.2616 3.71659 14.4999 3.77909 14.5859C3.83769 14.6757 4.23613 15.5038 4.66581 16.4296L5.44706 18.1171L5.83769 18.1835C6.38456 18.2773 6.87284 18.3124 6.87284 18.2616C6.87284 18.2421 6.81816 17.996 6.74784 17.7226C6.60331 17.121 6.58378 16.621 6.69316 16.2421C6.73222 16.1132 6.94316 15.6562 7.16581 15.2265C7.98613 13.6366 7.92753 13.7695 7.92753 13.5077C7.92753 13.2226 7.83769 13.0116 7.63456 12.8163C7.52128 12.707 7.36113 12.6249 6.95097 12.4726C6.65019 12.3593 6.36894 12.2304 6.31034 12.1718C6.16972 12.0429 6.09159 11.8554 6.09159 11.6523C6.09159 11.4374 5.96659 11.2109 5.79081 11.1015C5.64628 11.0116 5.60722 11.0077 4.62675 10.9882C3.47831 10.9648 3.45097 10.957 2.89238 10.6132C2.54863 10.4062 2.43144 10.2734 2.33378 9.99602C2.13066 9.40227 2.36113 8.86321 2.93925 8.57415C3.24003 8.4218 3.4705 8.46477 3.79863 8.72258C4.00566 8.89055 4.11894 8.91008 4.29081 8.82024C4.42753 8.75383 4.42363 8.76165 4.56816 8.13274C4.79081 7.17571 4.93144 7.03118 6.02519 6.6679C7.09941 6.31243 7.21269 6.24602 7.30253 5.90618C7.35722 5.69915 7.29863 5.5429 6.93144 4.96477C6.57206 4.40227 6.43925 4.24993 6.25566 4.18743C6.07206 4.12883 5.93534 4.15618 5.51738 4.34368C5.11503 4.52727 4.87284 4.55071 4.64628 4.43352C4.48613 4.34758 4.33378 4.08196 4.33378 3.88665C4.33378 3.75383 4.44706 3.49602 4.53691 3.4218C4.56425 3.39837 4.93144 3.19133 5.34941 2.95696C6.09159 2.5429 6.11894 2.53508 6.39628 2.51946C6.80644 2.49602 7.03691 2.61321 7.31425 2.99212C7.46659 3.19915 7.57988 3.30462 7.73613 3.39055C7.93925 3.49993 7.9705 3.50383 8.43534 3.50774C9.27519 3.50774 9.43925 3.39055 9.81034 2.50774C10.0018 2.05071 10.0486 1.89446 10.0682 1.66399C10.0916 1.2929 10.0369 1.14055 9.64628 0.515553C9.31034 -0.0156975 9.33378 0.00383377 9.04081 0.03899Z" fill="#96EC6B"/>
<path d="M12.8142 0.996034C12.283 1.4765 12.2205 1.55072 12.1971 1.77338C12.1736 1.99603 12.3064 2.25775 12.4978 2.35931C12.6736 2.45697 12.951 2.45306 13.1814 2.35541C13.5135 2.21478 13.7908 2.26556 13.9939 2.51166C14.1775 2.7265 14.1814 3.07416 14.0017 3.2851C13.951 3.3476 13.4002 3.69525 12.7869 4.05853C12.1697 4.42181 11.5994 4.78119 11.5213 4.85541C10.9627 5.38666 10.9783 6.289 11.5525 6.60541C11.7557 6.71869 12.1033 6.75775 12.3338 6.69525C12.5564 6.63275 12.7439 6.46088 12.9978 6.07416C13.115 5.89447 13.2596 5.7265 13.3221 5.69525C13.4119 5.64838 13.6658 5.63666 14.7439 5.63666C15.9744 5.63666 16.0642 5.64056 16.2088 5.71478C16.7049 5.96869 16.6736 6.69525 16.1502 6.92963C16.0057 6.99603 15.8611 7.00385 14.4314 7.00385C12.7322 7.00385 12.6346 7.01166 12.1932 7.23041C11.9353 7.35541 11.5174 7.73041 11.3846 7.95697C10.9314 8.73041 11.0564 9.67963 11.6932 10.3046C12.0955 10.6992 12.5408 10.871 13.158 10.871C13.3377 10.871 13.5369 10.8984 13.6502 10.9374C13.8963 11.0195 14.1814 11.3007 14.2478 11.5195C14.283 11.6367 14.2947 12.1757 14.2947 13.4726C14.2947 15.207 14.3103 15.5585 14.3767 15.5585C14.3924 15.5585 14.5838 15.3671 14.7986 15.1288C16.1892 13.5976 16.9939 11.9374 17.3494 9.87103C17.4197 9.44525 17.4353 9.21478 17.4353 8.37103C17.4392 7.33197 17.4119 7.04291 17.2439 6.24213C16.9275 4.76556 16.2947 3.40228 15.3533 2.17963C15.0682 1.80853 14.2596 0.929627 14.1775 0.898377C14.1463 0.886659 13.9861 0.820252 13.826 0.753846C13.3103 0.539002 13.326 0.535096 12.8142 0.996034Z" fill="#96EC6B"/>
<path d="M19.7051 8.78906C19.5996 8.88672 19.3965 9.01953 19.2637 9.08203C19.041 9.19141 18.9785 9.20312 18.6621 9.19922C18.3418 9.19531 18.3027 9.20312 18.2168 9.28906C18.0957 9.41016 18.0996 9.45703 18.2441 9.98438C18.3926 10.5117 18.4043 10.8984 18.2871 11.207C18.1855 11.4766 15.791 15.6992 15.6465 15.8633C15.584 15.9336 15.4785 16.0195 15.4121 16.0547C15.2559 16.1367 14.8965 16.1367 14.7402 16.0547C14.6191 15.9922 14.3965 15.7656 14.3652 15.668C14.3496 15.6328 14.2871 15.668 14.1543 15.7852C12.8809 16.8906 11.4277 17.6562 9.88085 18.0352C9.11523 18.2227 8.55273 18.293 7.68163 18.3203C7.18945 18.3359 6.95116 18.3594 6.95116 18.3867C6.95116 18.4102 7.01757 18.707 7.0957 19.043L7.24413 19.6562L7.5957 19.7383C8.56445 19.9648 8.82226 19.9922 9.97851 19.9922C11.1543 19.9922 11.4785 19.9609 12.3418 19.75C15.0918 19.0898 17.4121 17.3086 18.7988 14.7969C19.3262 13.8398 19.6699 12.8398 19.8887 11.6328C19.9707 11.1719 19.9785 11.0195 19.9746 9.97266C19.9746 9.33984 19.9551 8.77344 19.9355 8.71875L19.9004 8.61328L19.7051 8.78906Z" fill="#156BC1"/>
<path d="M3.39648 17.5508C3.7207 17.8359 4.48632 18.3906 4.87304 18.6172C5.35741 18.9023 5.81445 19.1328 5.84179 19.1055C5.86132 19.082 5.45507 18.1836 5.40038 18.1367C5.38476 18.1211 5.23632 18.0781 5.07616 18.0391C4.69726 17.9492 3.9121 17.6875 3.5957 17.5469C3.27929 17.4023 3.22851 17.4023 3.39648 17.5508Z" fill="#156BC1"/>
<path d="M9.4161 0.09375C9.77938 0.648438 10.0177 1.0625 10.0606 1.21094C10.1739 1.58984 10.1231 1.85547 9.78329 2.66406C9.47079 3.40234 9.28719 3.52344 8.49813 3.52734C8.20907 3.52734 7.92782 3.50781 7.83407 3.48047C7.67 3.42969 7.46297 3.24219 7.17391 2.89062C7.00594 2.68359 6.88485 2.60938 6.62313 2.55078C6.33797 2.48828 6.13485 2.55859 5.31063 3.01562C4.65438 3.37891 4.53719 3.46094 4.46297 3.58984C4.34579 3.78906 4.34579 4.02344 4.46297 4.19141C4.69735 4.53516 4.94735 4.56641 5.50594 4.30859C6.14657 4.01172 6.38485 4.07031 6.74422 4.61719C7.25204 5.38281 7.34188 5.55859 7.34188 5.76562C7.34188 6.01172 7.22469 6.22656 7.03329 6.33203C6.95516 6.375 6.58407 6.50781 6.20907 6.63281C5.39657 6.90234 5.26766 6.96094 5.045 7.17578C4.81063 7.39844 4.74422 7.54297 4.59188 8.17969C4.44735 8.78906 4.39657 8.87109 4.15438 8.90625C4.01766 8.92188 3.97469 8.90625 3.82625 8.78516C3.42391 8.46094 3.17 8.44922 2.76766 8.72656C2.58407 8.85547 2.49422 8.95312 2.40829 9.11328C2.30672 9.30859 2.295 9.35547 2.31063 9.64062C2.33797 10.1484 2.49032 10.3594 3.04891 10.668C3.53719 10.9336 3.65047 10.957 4.73641 10.9766C5.63875 10.9961 5.71297 11.0039 5.83016 11.082C5.98641 11.1836 6.13094 11.4648 6.13094 11.6602C6.13094 11.8477 6.20907 12.0352 6.33407 12.1523C6.38875 12.2031 6.6661 12.3281 6.95125 12.4336C7.53329 12.6523 7.68563 12.75 7.83407 13.0039C7.95907 13.2148 7.99813 13.5898 7.92 13.8047C7.89266 13.8789 7.63094 14.4062 7.33407 14.9766C7.0411 15.543 6.77157 16.1133 6.7325 16.2422C6.61922 16.6211 6.63875 17.1133 6.7911 17.7461C6.86141 18.0352 6.92782 18.2812 6.93954 18.293C6.9825 18.3359 7.61532 18.3359 8.17391 18.293C10.1505 18.1445 11.9356 17.4766 13.4864 16.3086C13.7013 16.1445 13.9708 15.9258 14.088 15.8164L14.2989 15.6172L14.295 13.7539C14.295 12.7031 14.2755 11.8008 14.2559 11.6836C14.2052 11.4219 14.0489 11.1953 13.8145 11.0508C13.6466 10.9492 13.588 10.9336 13.1309 10.9062C12.3848 10.8633 12.0059 10.7031 11.5997 10.2578C11.3731 10.0117 11.2481 9.78125 11.1505 9.44922C11.0567 9.13281 11.0841 8.55469 11.2052 8.24609C11.3966 7.75 11.8536 7.3125 12.4044 7.09375L12.6739 6.98438L14.3731 6.96484C15.9981 6.94531 16.0802 6.94141 16.2091 6.86328C16.2833 6.82031 16.3849 6.72266 16.4356 6.64844C16.5138 6.53906 16.5255 6.47656 16.5138 6.28125C16.4981 6.00781 16.42 5.87891 16.1895 5.74609C16.0333 5.65625 16.0216 5.65625 14.7364 5.65625C13.2208 5.65625 13.3614 5.61719 12.9825 6.15625C12.713 6.54688 12.5684 6.66797 12.295 6.73047C11.795 6.85156 11.252 6.58594 11.1348 6.15625C11.0645 5.91016 11.0841 5.54297 11.1739 5.30078C11.3106 4.9375 11.5098 4.77734 12.5958 4.13281C13.8927 3.37109 13.9591 3.32422 14.0333 3.16406C14.2208 2.76953 13.9513 2.31641 13.5294 2.31641C13.4356 2.31641 13.2677 2.35156 13.1544 2.39844C12.752 2.55859 12.3731 2.4375 12.2208 2.10547C12.0489 1.72266 12.1388 1.53906 12.7755 0.980469L13.2833 0.539062L13.0567 0.46875C12.0606 0.160156 11.3653 0.046875 10.252 0.0234375L9.35751 0L9.4161 0.09375Z" fill="#1596EC"/>
<path d="M0.779379 6.08985C0.388754 7.03126 0.177817 7.82813 0.0528167 8.79688C-0.0370271 9.53516 -0.00968332 10.957 0.115317 11.6524C0.478598 13.7109 1.38094 15.5117 2.77938 16.9453C3.2286 17.4102 3.26766 17.4336 4.12704 17.7461C4.4825 17.875 5.34579 18.1133 5.37313 18.0899C5.40047 18.0586 3.86532 14.7656 3.74813 14.6055C3.68172 14.5195 3.42391 14.2813 3.17 14.0742C2.65047 13.6484 2.49032 13.4336 2.42391 13.0547C2.37313 12.7656 2.41219 12.5469 2.59579 12.0547C2.67 11.8516 2.7325 11.6445 2.7325 11.5899C2.7325 11.3984 2.61532 11.2305 2.33797 11.0313C2.02157 10.8008 1.79891 10.4883 1.70516 10.1406C1.67 10.0156 1.50985 8.97266 1.34579 7.82423C1.18172 6.67579 1.03719 5.69923 1.01766 5.66016C0.994223 5.60157 0.939535 5.69923 0.779379 6.08985Z" fill="#1596EC"/>
</svg>
